{"glyphs":{"0":{"ha":389,"x_min":-67,"x_max":389,"o":"m 71 17 q 25 6 47 6 q 3 8 13 6 q -31 29 -17 14 q -39 44 -36 36 l -44 57 q -53 203 -67 117 q -51 218 -51 214 q -21 339 -37 297 l -19 343 l -18 346 q 7 417 -10 376 q 76 566 32 486 q 138 671 119 646 l 140 674 l 143 672 q 186 728 176 717 l 189 731 l 193 728 l 201 739 q 238 776 225 767 l 240 779 l 244 774 l 261 789 l 264 786 l 265 786 q 274 793 269 789 l 281 796 l 289 796 l 310 813 q 308 816 308 814 q 310 822 308 818 q 315 829 313 826 q 324 833 319 833 q 332 829 329 833 q 339 831 335 831 q 351 826 346 831 q 364 821 358 822 l 365 822 l 369 822 q 386 724 388 822 q 374 599 388 656 l 374 594 l 369 594 q 354 510 363 540 q 297 333 338 432 q 254 235 279 285 q 222 178 229 186 q 171 104 201 139 q 122 56 146 74 q 106 40 117 50 q 92 31 99 35 l 88 28 q 71 17 78 21 m 75 381 l 75 376 l 72 371 q 65 347 68 360 q 61 332 64 343 q 50 293 53 307 q 32 194 38 243 q 29 183 31 192 q 26 174 26 176 q 28 153 25 161 q 29 138 28 146 q 32 115 29 119 q 38 107 35 111 q 42 99 39 104 l 43 97 q 44 100 43 99 l 61 111 q 94 143 76 125 q 131 192 103 151 q 147 214 143 208 l 157 226 q 169 249 165 239 q 175 265 168 250 q 185 282 182 278 l 183 285 l 186 292 q 211 343 207 332 q 219 365 208 350 l 219 367 l 221 371 q 222 374 222 372 l 225 381 q 229 392 228 388 q 239 413 233 399 q 244 428 242 424 q 254 465 246 442 q 257 475 254 467 l 258 479 l 260 479 l 261 483 q 271 515 268 513 q 274 526 271 518 q 279 553 278 549 l 281 556 q 293 619 288 576 q 300 689 297 647 l 300 694 q 300 738 301 710 q 301 782 300 768 l 300 782 l 300 776 q 272 744 288 763 q 233 693 260 729 q 181 611 200 646 l 179 607 l 176 607 l 171 597 l 169 593 l 164 582 l 138 528 l 135 529 l 133 524 q 117 486 118 490 q 97 443 104 449 q 88 414 93 435 q 75 381 81 392 z "},"1":{"ha":186,"x_min":-78,"x_max":254,"o":"m -51 13 l -51 29 q -53 22 -53 24 l -54 18 l -69 17 l -69 31 l -74 32 q -74 84 -76 47 q -69 133 -72 121 l -68 138 l -68 140 l -62 178 l -60 178 l -60 179 q -57 196 -57 194 q -50 222 -58 213 q -49 232 -50 224 q -43 256 -47 247 q -30 308 -40 272 q -17 349 -19 343 q -12 354 -17 350 q -8 365 -7 363 q -3 382 -7 375 q 0 392 0 388 q 7 415 3 403 l 8 419 l 13 419 q 14 422 13 421 q 32 474 18 443 q 36 486 33 481 q 54 524 47 517 l 57 526 q 59 532 57 528 q 63 538 61 536 q 64 549 60 539 q 68 556 67 553 l 64 557 l 68 560 l 71 564 q 75 571 72 568 q 82 585 79 579 q 86 597 79 590 l 88 603 l 94 613 q 97 618 96 614 q 103 628 100 625 q 107 644 100 629 l 108 647 l 113 647 q 121 669 118 667 q 131 688 126 683 l 133 693 q 154 739 140 706 l 158 750 q 164 764 161 756 q 182 796 174 786 q 208 811 194 811 l 217 807 l 218 806 l 219 804 q 233 794 231 801 q 242 786 239 789 l 247 789 l 251 781 q 238 731 254 772 q 214 678 221 689 l 211 675 l 210 675 l 208 672 q 197 642 200 649 l 133 496 q 115 457 129 486 q 107 439 107 440 q 82 378 101 428 q 58 317 63 328 q 53 299 57 311 q 42 265 46 275 l 31 233 q 7 146 22 206 q 0 117 1 121 l -1 113 l -6 113 q -11 89 -11 89 l -12 85 l -18 83 l -25 56 l -33 54 q -36 47 -35 49 l -51 13 z "},"2":{"ha":422,"x_min":-150,"x_max":360,"o":"m -107 3 l -112 4 q -128 22 -124 10 l -129 21 l -139 29 l -149 22 l -129 53 q -132 65 -132 60 l -133 67 l -135 69 l -133 74 q -99 97 -128 85 q -54 163 -78 133 l -51 167 l -50 165 l -50 167 l -47 172 l -43 181 q -37 189 -43 181 q -26 206 -32 197 l -21 213 l -18 213 l -18 214 q -4 235 -6 231 q 17 261 7 258 q 24 275 18 265 q 42 300 33 292 q 72 348 42 303 q 110 406 101 393 q 117 413 113 408 q 128 428 126 422 q 139 444 132 438 q 147 458 144 451 q 164 485 154 471 l 167 489 l 169 488 q 174 493 172 492 q 206 546 185 514 l 214 557 q 225 576 217 561 q 244 607 240 601 l 250 611 q 256 624 254 619 q 257 632 254 624 q 260 640 258 638 l 260 644 l 261 650 l 261 649 q 268 672 268 665 q 268 685 264 676 l 268 690 l 269 701 q 269 708 269 704 q 269 715 269 713 q 268 718 268 715 q 260 715 260 715 q 244 704 251 710 q 215 674 232 693 q 201 654 210 667 q 178 625 188 633 q 149 611 163 611 l 147 611 l 144 611 l 140 615 q 139 621 139 618 q 128 635 131 625 q 122 646 124 640 l 118 643 l 115 653 q 149 715 113 665 q 183 756 163 736 q 215 783 203 776 l 219 785 l 221 782 q 243 797 232 792 q 265 808 258 806 q 289 814 278 813 q 296 814 292 814 q 349 775 336 814 q 357 738 354 757 l 357 732 q 357 689 360 711 q 321 572 353 628 q 274 500 310 549 l 165 344 l 154 328 q 122 283 132 296 l 93 243 q 6 129 39 169 q 11 129 10 129 q 35 132 18 132 l 39 133 q 99 142 57 138 l 106 143 q 119 144 115 144 l 125 144 l 140 144 l 140 149 l 150 163 l 147 144 q 178 147 160 147 q 197 144 193 147 l 218 138 l 221 136 l 222 135 l 219 135 l 218 131 q 225 128 224 129 l 235 117 l 229 115 l 238 106 l 236 106 l 246 100 l 240 99 l 254 90 l 232 85 l 225 79 q 179 67 213 71 l 176 65 l 171 65 q 160 64 161 64 l 158 64 l 156 65 q 153 64 156 64 q 143 60 151 60 l 142 60 l 138 63 q 133 58 136 60 l 131 57 q 86 49 93 49 l 83 54 l 81 49 q 74 47 75 47 l 71 50 q 57 43 65 44 l 44 42 q 33 39 40 40 l 26 38 q 13 33 18 33 l 7 36 l 7 35 l 0 32 l -7 29 l -12 31 l -12 29 q -21 26 -18 26 l -26 31 l -28 25 l -32 22 l -33 26 q -43 21 -33 24 l -64 17 l -62 18 l -67 18 q -89 10 -74 17 q -93 7 -90 8 q -107 3 -101 3 z "},"3":{"ha":390,"x_min":-108,"x_max":357,"o":"m -42 10 l -60 14 q -76 21 -69 17 l -83 25 q -85 28 -83 25 q -90 34 -87 31 q -93 39 -93 38 q -97 99 -107 54 q -89 126 -93 119 l -87 129 l -81 129 q -76 138 -78 136 l -57 169 l -60 151 q -54 164 -56 161 l -51 167 l -37 164 l -40 149 l -37 146 q -39 136 -37 146 q -40 99 -43 103 q -22 92 -37 92 q -12 93 -18 92 q 39 111 18 97 l 57 124 q 88 147 72 133 q 119 176 100 158 q 157 214 153 210 q 172 233 158 218 q 175 238 175 236 l 183 251 q 190 263 185 254 q 219 339 224 306 q 210 351 218 346 q 192 358 201 357 q 153 364 174 364 q 139 364 147 364 q 85 353 113 363 q 69 349 79 351 q 50 343 57 344 l -25 319 l -6 364 q 56 440 0 371 q 79 468 78 467 q 81 474 79 469 q 88 483 83 478 q 96 488 92 488 q 99 494 96 489 q 142 554 103 501 q 165 585 161 579 l 169 589 q 178 596 178 594 q 188 611 181 606 q 192 618 190 614 q 207 636 193 622 q 210 642 210 640 q 228 672 217 654 q 246 700 231 675 q 231 690 239 697 q 213 674 228 686 q 189 653 196 660 q 179 643 186 650 q 150 624 161 628 q 138 621 144 621 q 119 631 122 621 q 119 639 118 635 q 113 654 114 644 q 110 667 111 664 l 106 671 l 106 676 q 138 715 107 686 q 181 751 169 743 q 200 767 186 756 q 213 776 210 774 q 228 788 215 778 l 233 790 l 261 806 l 269 808 q 294 814 286 814 q 300 814 296 814 q 344 789 332 814 q 354 747 357 767 q 339 692 351 714 q 301 632 325 667 l 297 628 q 260 576 293 619 q 218 522 228 532 l 210 511 q 161 454 204 503 q 192 456 181 456 q 276 429 242 456 q 301 395 293 417 q 308 356 310 374 q 303 315 308 332 q 286 271 299 297 q 268 236 274 244 q 222 168 251 204 q 164 106 199 139 q 69 39 117 63 q -19 11 17 14 l -42 10 z "},"4":{"ha":372,"x_min":6,"x_max":438,"o":"m 68 -8 l 69 7 l 65 8 q 66 62 63 21 q 74 115 69 103 l 75 118 l 75 122 l 82 161 l 83 163 q 88 182 88 179 q 94 208 86 199 q 97 218 96 211 q 104 244 100 235 l 106 249 q 119 299 108 263 q 133 342 131 335 q 138 347 135 343 q 142 354 140 351 q 140 354 140 354 l 139 353 q 100 339 135 351 q 42 328 68 328 q 22 336 25 328 l 21 336 q 11 353 19 336 q 8 361 8 360 q 8 382 6 371 q 10 403 10 393 q 13 435 7 407 l 14 438 l 18 439 q 18 442 18 442 q 32 497 21 465 l 35 506 q 53 544 44 536 q 60 558 58 553 q 63 568 58 558 q 67 574 65 572 l 63 576 l 67 579 l 68 583 l 69 583 q 74 592 71 586 q 81 601 79 600 q 86 615 79 610 l 90 622 l 96 629 l 99 633 q 103 642 101 639 q 110 658 104 647 l 113 663 l 115 661 q 126 681 122 678 q 139 697 133 694 l 142 701 q 163 733 147 710 q 175 754 172 751 q 181 764 176 756 q 205 792 194 785 q 228 800 215 800 q 239 793 236 800 q 240 790 240 792 q 251 776 250 785 q 258 767 257 769 l 260 767 l 264 764 l 265 760 q 245 715 267 750 q 215 671 224 681 l 213 668 l 210 669 q 196 642 197 644 l 190 631 q 160 575 171 597 q 133 521 147 551 l 132 517 q 110 467 113 472 q 104 447 107 460 l 103 442 q 100 432 100 436 l 99 429 l 110 432 q 135 439 126 436 l 138 440 l 142 439 q 182 456 146 442 q 189 472 183 460 q 194 486 192 479 q 214 524 207 518 l 218 528 q 224 540 222 538 q 226 551 222 540 q 231 558 229 556 l 226 560 l 231 563 l 233 567 q 239 575 236 571 q 246 588 244 585 q 254 603 244 596 l 254 607 l 261 617 q 265 624 263 619 q 271 633 268 631 q 276 650 268 636 l 279 654 l 282 653 q 293 676 290 674 q 304 694 300 692 l 308 700 q 331 743 314 711 q 340 761 339 758 q 347 774 342 764 q 369 807 360 797 q 396 819 382 819 q 406 814 403 819 q 407 811 406 813 q 419 800 415 807 q 426 789 425 793 l 432 792 l 435 783 q 415 732 436 774 q 386 679 394 690 l 383 675 l 381 676 l 378 668 q 367 642 368 647 q 292 493 313 540 l 289 489 l 292 481 q 299 483 297 483 l 331 490 l 319 481 l 328 483 l 326 482 l 332 468 l 322 460 l 322 456 q 285 426 314 444 q 244 401 257 408 q 228 358 242 392 q 208 307 210 314 q 201 288 206 300 q 189 253 193 263 l 176 218 q 150 126 167 189 q 142 96 143 101 l 140 92 l 136 92 q 134 84 136 90 q 131 73 132 78 q 129 65 129 68 l 128 63 l 124 61 l 114 31 l 107 31 q 104 22 104 24 l 101 19 l 97 19 l 96 13 l 89 13 q 86 -3 86 -3 l 85 -7 l 68 -8 z "},"5":{"ha":426,"x_min":-96,"x_max":500,"o":"m -31 10 l -39 10 q -65 15 -53 10 q -92 53 -87 28 q -92 86 -94 68 q -78 133 -89 108 q -40 206 -65 165 q 17 288 -8 258 l 19 292 l 24 289 q 63 336 51 325 l 65 339 l 68 336 l 76 344 q 108 376 101 371 l 113 379 l 117 374 q 129 385 126 383 l 133 388 l 135 383 q 140 387 138 385 q 143 389 142 389 l 144 390 l 149 392 l 151 392 l 154 390 q 176 408 172 407 l 181 410 l 186 397 l 185 394 q 178 388 183 394 q 168 378 172 382 l 168 372 q 154 356 164 368 q 108 299 125 321 q 63 236 90 275 l 54 224 l 53 225 q 52 222 53 224 q 50 221 51 221 l 47 213 l 29 182 l 15 157 l 14 158 l 13 154 q -1 125 0 129 q -8 101 -7 108 q -7 103 -8 103 q -4 104 -6 103 q 33 122 17 113 q 104 174 68 143 q 111 178 107 175 q 135 199 131 189 q 150 214 146 211 q 168 233 161 222 q 192 261 178 247 l 194 265 l 197 263 q 199 267 197 264 q 203 271 201 269 q 204 274 204 272 q 246 349 239 326 q 250 372 250 358 q 249 381 250 376 q 247 393 246 389 q 244 397 247 394 q 238 403 240 400 q 225 407 236 403 q 218 411 222 410 l 214 411 q 178 421 192 418 q 171 418 175 418 q 160 421 167 418 l 158 421 l 156 421 q 154 421 156 421 l 147 419 l 143 425 l 143 421 l 138 421 q 131 422 133 422 l 124 421 q 113 421 115 421 l 110 422 l 108 421 q 94 419 100 419 q 51 442 67 419 q 46 449 49 444 q 42 458 43 454 l 42 463 l 43 463 q 39 492 38 478 q 53 532 40 521 l 64 553 q 75 571 72 567 l 76 572 q 133 663 82 578 q 149 689 147 686 q 164 713 154 697 l 164 714 q 154 718 158 714 q 149 744 144 728 q 151 751 150 749 q 154 768 150 754 q 160 786 158 783 l 158 789 l 160 792 l 163 796 q 204 807 174 807 q 211 806 208 807 l 217 804 q 224 807 219 806 q 286 811 247 811 l 290 811 q 307 810 296 811 l 313 804 l 313 810 l 365 808 q 379 810 376 810 q 389 808 385 810 l 401 807 l 403 811 l 413 818 l 410 807 q 453 801 447 806 l 468 793 l 476 792 l 471 786 q 475 783 474 785 l 482 772 l 478 771 l 485 763 l 483 761 l 494 754 l 488 753 l 499 746 q 475 740 476 740 l 474 736 q 428 725 458 725 l 422 724 q 411 722 414 722 l 410 722 l 407 725 q 404 724 407 724 q 396 721 404 721 l 394 721 l 392 722 l 383 719 q 346 717 360 717 l 338 718 l 332 717 q 324 716 329 717 q 317 715 319 715 l 294 715 l 288 714 q 278 713 282 713 q 269 717 272 713 q 263 715 267 715 l 260 713 q 254 714 256 713 q 168 569 210 628 l 167 565 l 164 567 q 135 515 140 525 l 149 517 q 169 517 160 517 q 182 517 175 517 q 247 507 219 515 q 297 483 275 500 q 324 456 319 465 q 340 414 333 444 q 338 358 343 381 q 314 299 331 329 q 284 248 308 283 q 231 182 260 213 q 126 86 181 126 q 29 28 72 43 l 25 25 l 25 26 l 24 25 l 19 24 q -11 14 1 17 l -17 13 q -31 10 -25 11 z "},"6":{"ha":369,"x_min":-103,"x_max":353,"o":"m -8 1 l -12 1 q -33 1 -22 1 l -44 3 q -69 11 -58 4 q -94 49 -87 25 l -96 53 l -93 54 q -94 60 -93 54 q -96 74 -96 65 q -97 79 -97 79 q -76 200 -101 128 q -42 289 -57 267 l -37 296 l -33 304 q -22 326 -26 318 q -17 344 -24 328 q -8 360 -10 356 l -10 361 l -7 365 l -6 369 l -4 369 q 10 394 0 378 q 24 418 21 414 q 35 438 19 424 l 35 440 q 38 446 36 443 l 42 453 q 49 463 46 458 q 60 479 53 468 q 69 494 65 490 q 88 528 75 508 q 94 538 89 531 l 97 540 l 99 540 q 118 569 111 563 q 125 579 119 571 q 143 603 139 600 l 143 604 q 192 669 147 607 q 229 721 224 714 q 246 743 238 731 q 290 796 274 779 q 326 815 313 815 l 328 815 l 332 814 l 335 811 q 336 801 338 806 q 343 783 343 796 q 346 771 344 775 l 350 768 l 351 763 q 334 731 351 757 q 293 672 317 704 q 254 619 269 639 q 233 593 239 599 l 231 590 l 228 592 q 188 529 204 554 l 178 514 q 201 517 190 517 q 224 514 213 517 q 275 474 258 507 q 289 439 285 458 l 289 438 q 290 428 290 431 l 290 431 l 293 418 l 293 401 q 292 374 294 388 q 288 343 290 357 l 286 338 l 283 339 l 282 335 q 268 293 283 333 q 247 249 257 257 q 242 239 244 246 q 238 229 239 232 q 210 185 222 199 q 188 149 211 179 q 157 110 165 119 q 112 63 138 86 q 71 31 86 39 q 51 21 67 28 q 19 7 29 13 q -8 1 6 1 m 144 458 l 143 463 q 126 432 139 454 q 104 393 113 410 q 40 267 61 317 q -3 156 11 204 q -11 119 -8 138 q -10 90 -14 101 l -6 89 l -3 92 q 19 97 7 93 l 24 100 q 54 121 38 107 q 114 182 74 135 l 122 192 l 124 193 q 158 243 146 224 q 214 360 206 317 q 214 422 222 396 l 213 426 l 215 428 q 214 431 215 428 q 199 447 207 444 l 196 447 l 197 454 q 192 454 194 454 q 179 457 186 457 q 164 456 174 457 l 161 454 l 158 463 q 147 461 150 461 l 144 458 z "},"7":{"ha":611,"x_min":61,"x_max":553,"o":"m 93 -36 l 88 -32 q 85 -25 86 -29 q 75 -11 78 -21 q 69 0 72 -4 l 65 -3 l 63 7 q 81 49 61 14 q 119 110 101 83 q 140 142 136 138 l 142 146 l 144 144 l 153 157 q 171 192 167 183 l 261 343 l 254 343 l 256 343 q 253 344 253 344 q 240 342 249 344 l 231 339 q 224 338 226 338 q 214 342 218 338 q 206 367 204 351 l 206 368 l 207 371 q 207 389 206 375 q 210 407 208 404 q 213 418 207 414 q 231 430 217 425 q 251 435 244 435 l 260 432 q 266 436 261 435 q 294 442 271 438 q 322 446 318 446 l 339 469 q 383 553 346 483 q 429 640 421 622 q 450 685 436 654 q 460 707 457 700 l 460 708 q 464 719 463 715 l 425 707 l 396 700 q 361 692 368 692 l 357 690 l 357 694 q 321 685 325 686 l 317 683 l 315 689 l 279 678 l 276 685 l 264 681 l 263 686 l 256 683 l 251 683 l 249 688 q 233 681 235 682 l 224 672 l 218 688 l 222 692 q 239 704 224 694 l 240 710 q 305 746 254 724 q 372 772 356 768 l 376 772 l 376 771 l 388 775 l 392 778 q 426 790 426 790 l 431 792 l 431 789 l 433 790 q 457 797 451 794 q 465 801 461 800 q 482 806 474 804 q 490 806 486 806 q 503 803 500 806 q 538 784 524 801 q 547 740 551 767 q 529 663 551 718 q 494 590 513 624 q 490 583 494 589 q 479 563 479 569 q 469 544 476 553 q 461 528 464 536 q 447 497 457 514 l 446 493 l 442 494 q 438 486 439 488 q 424 454 431 469 l 431 463 l 428 450 l 446 450 q 464 447 460 450 l 478 442 l 485 440 l 481 435 q 485 431 483 433 l 492 422 l 488 421 l 494 413 l 493 411 l 501 406 l 497 404 l 508 399 l 494 392 l 486 386 q 466 374 481 379 q 446 369 451 369 l 443 369 q 432 367 433 367 l 431 367 l 428 368 q 418 364 426 364 l 417 364 l 414 364 q 413 363 414 364 l 408 361 l 404 361 q 374 356 381 356 l 368 357 q 365 353 367 354 l 358 346 q 349 329 350 333 q 343 315 350 328 q 336 306 339 308 q 325 285 333 296 q 311 265 314 269 q 301 249 315 258 l 300 244 l 297 239 q 293 232 294 235 q 283 219 289 228 q 276 208 279 213 q 264 185 275 201 l 263 181 l 260 182 q 240 151 244 156 l 239 149 q 225 128 229 131 l 218 117 q 183 64 208 103 l 176 60 l 181 58 q 168 39 171 43 q 157 22 165 33 q 126 -21 139 -8 q 96 -36 110 -36 l 93 -36 z "},"8":{"ha":369,"x_min":-101,"x_max":415,"o":"m 56 4 q 11 -1 35 -1 q -4 -1 3 -1 q -28 3 -12 0 q -33 4 -32 4 q -39 3 -36 3 q -49 6 -43 3 q -61 14 -53 7 l -64 14 l -68 17 l -67 17 q -79 25 -74 21 l -82 29 q -92 46 -87 35 l -96 56 q -99 76 -97 64 l -100 86 l -100 92 q -99 115 -100 108 q -89 172 -99 139 q -83 185 -87 175 l -82 189 l -81 189 q -72 210 -76 201 q -58 239 -61 235 q -35 283 -49 267 l -33 286 q -21 307 -32 289 q 14 361 1 342 q 72 443 53 418 l 86 461 q 131 515 115 497 q 126 538 128 531 q 128 617 121 583 q 164 701 135 665 l 167 706 l 168 706 l 171 708 q 246 776 200 746 q 308 810 276 797 l 318 814 q 333 818 326 817 q 351 819 343 819 q 361 819 356 819 q 403 790 390 815 q 406 732 415 767 q 386 685 400 708 q 371 665 381 675 l 363 654 l 343 633 q 293 581 313 599 l 290 578 l 288 581 l 229 524 l 226 526 l 218 519 q 221 511 219 517 q 228 489 225 494 q 233 464 232 478 q 240 435 236 449 q 250 378 246 414 l 250 374 l 246 372 q 249 347 247 349 q 224 203 251 278 l 222 196 q 199 142 210 163 q 161 85 182 107 l 160 82 l 158 83 q 113 39 139 61 q 86 19 113 33 q 63 10 76 14 l 60 7 l 56 4 m -10 100 q 19 94 6 94 q 63 106 43 94 q 93 133 78 115 q 132 199 115 160 q 150 247 142 218 l 153 254 q 158 385 169 321 q 153 417 156 399 l 146 408 q 67 296 106 356 l 64 292 l 60 294 q 18 213 40 258 l 15 207 q -6 150 1 174 q -12 108 -12 128 q -10 100 -11 103 m 263 693 l 261 690 q 240 671 250 682 q 217 632 222 651 q 211 590 210 615 l 242 624 q 269 654 264 649 l 272 658 l 274 657 q 277 661 275 658 q 281 665 279 664 l 286 674 l 315 708 q 324 719 321 715 l 328 729 l 329 729 l 329 731 l 325 732 l 324 736 l 324 732 q 279 704 310 726 q 263 693 267 696 z "},"9":{"ha":339,"x_min":-8,"x_max":417,"o":"m 3 -22 l -6 -8 q -3 10 -7 -4 l -7 14 q 6 66 -6 26 q 24 118 18 106 l 25 122 l 26 122 l 26 126 l 29 133 q 39 163 38 160 l 43 168 q 44 172 43 168 q 47 178 46 175 q 49 182 49 182 q 57 207 49 199 l 58 208 q 61 218 60 211 q 69 242 65 233 q 85 285 68 243 q 107 336 103 328 q 111 343 107 338 q 118 354 118 351 q 124 371 119 364 q 128 382 126 376 q 136 406 131 393 l 139 410 l 142 408 q 142 410 142 408 q 143 413 143 413 q 154 443 147 428 q 132 429 143 429 q 128 426 132 428 q 121 421 125 424 q 96 407 104 410 l 92 403 l 86 401 q 38 388 58 388 q 32 388 35 388 q 15 393 21 389 q 4 407 8 397 q 1 428 0 414 l 1 433 q 6 451 3 443 q 11 467 11 463 q 18 488 13 478 q 25 507 24 499 q 29 521 28 514 q 35 535 32 526 l 38 538 l 40 538 q 42 540 42 540 q 68 593 50 564 l 71 599 q 96 635 88 629 l 100 638 q 103 642 101 639 q 107 646 106 644 q 107 649 106 647 q 113 657 108 651 q 118 663 117 661 l 119 665 l 119 667 q 129 678 124 672 q 139 688 138 686 q 147 699 139 694 l 149 701 l 160 711 q 164 715 161 713 q 172 722 169 721 q 183 736 171 726 l 186 739 l 188 738 q 206 753 196 749 q 222 767 218 765 l 229 771 q 253 786 242 781 q 283 800 268 796 q 304 803 294 803 l 308 803 q 339 792 325 801 q 350 803 344 797 q 375 814 361 814 q 385 808 382 814 q 386 804 386 807 q 399 792 396 800 q 406 782 403 785 l 411 779 l 413 775 q 363 674 415 761 l 360 669 l 357 671 l 343 636 q 285 519 335 624 q 268 486 269 488 q 244 440 263 474 q 238 425 239 428 q 178 296 204 357 q 171 281 176 292 q 154 242 160 253 l 139 207 q 114 151 132 194 l 111 146 q 85 85 89 92 l 82 81 l 79 82 l 64 51 l 60 51 q 46 25 47 28 l 22 -4 l 28 17 l 26 17 l 22 8 l 17 11 q 10 -4 11 0 l 3 -22 m 292 708 l 286 710 l 264 699 q 251 686 256 689 q 203 636 221 657 q 167 590 186 617 l 156 575 q 132 542 133 544 q 113 506 122 525 q 115 506 114 506 q 117 508 117 507 q 142 525 129 515 l 178 551 l 179 549 q 196 563 192 557 l 219 586 l 215 575 q 221 579 221 578 q 231 596 221 589 l 229 599 q 235 607 233 606 q 240 617 238 611 q 246 626 244 624 q 253 644 244 631 l 254 647 l 258 647 q 269 671 265 668 q 281 689 276 686 l 285 696 q 292 708 286 699 z "},"\u000b":{"ha":732,"x_min":69,"x_max":663,"o":"m 69 972 l 663 972 l 663 0 l 69 0 l 69 972 m 108 944 l 365 515 l 624 944 l 108 944 m 349 486 l 99 903 l 99 68 l 349 486 m 367 457 l 110 29 l 624 29 l 367 457 m 383 486 l 635 65 l 635 906 l 383 486 z "},"\u0000":{"ha":0,"x_min":0,"x_max":0,"o":""},"\n":{"ha":0,"x_min":0,"x_max":0,"o":""},"\r":{"ha":0,"x_min":0,"x_max":0,"o":""}," ":{"ha":407,"x_min":0,"x_max":0,"o":""},"!":{"ha":214,"x_min":-82,"x_max":243,"o":"m -8 167 q 29 146 18 163 q 32 97 40 129 q 17 74 28 86 q 7 61 13 67 q -4 53 0 54 q -36 43 -14 43 l -36 47 l -40 43 q -58 47 -50 43 q -79 76 -75 56 q -72 115 -81 99 l -71 121 q -59 135 -68 125 q -47 149 -50 146 l -43 151 q -8 167 -24 167 m 239 813 q 233 773 242 804 q 221 732 225 742 l 215 721 q 213 706 214 713 q 194 647 210 696 q 176 592 179 597 q 164 558 174 583 q 161 549 161 550 l 129 454 q 125 443 128 450 l 107 390 l 107 388 l 104 386 l 99 371 q 71 300 76 308 l 69 296 l 67 297 q 60 285 65 296 q 50 264 56 274 l 46 254 l 44 264 q 40 257 42 258 l 26 243 l 25 247 l 8 231 l 11 242 l 6 233 l 6 238 q 4 236 6 238 l -8 231 l -8 253 q 11 336 -8 265 q 17 358 15 356 q 21 371 21 367 q 26 390 19 381 q 28 396 28 392 q 33 415 29 408 q 39 440 35 424 q 47 467 43 456 q 51 481 50 479 l 54 486 q 58 490 57 490 q 61 507 57 500 q 63 511 63 508 q 67 529 63 519 l 67 533 l 71 533 q 79 571 72 547 l 82 575 q 83 582 82 576 q 94 611 89 606 q 99 619 97 615 q 99 628 97 621 q 101 636 100 631 q 106 646 104 644 q 110 660 106 647 q 117 678 115 675 q 119 683 118 681 q 120 692 119 685 q 122 701 121 699 q 138 736 135 733 l 139 740 q 143 753 140 743 q 149 773 146 764 q 153 783 151 782 q 156 793 153 786 q 168 819 160 811 q 193 832 179 832 q 203 828 199 832 q 218 822 211 828 q 229 817 226 818 l 235 819 l 239 813 z "},"\"":{"ha":403,"x_min":31,"x_max":343,"o":"m 333 736 q 336 697 343 722 q 295 618 328 664 q 234 543 263 572 q 200 513 206 514 l 176 506 l 179 513 l 175 514 l 172 515 l 172 517 l 163 519 l 154 526 l 163 536 l 164 540 q 171 557 165 542 q 254 728 231 706 l 269 738 q 281 746 275 743 l 292 749 q 304 750 299 750 q 333 736 325 750 m 203 739 q 207 700 211 725 q 169 622 200 668 q 110 544 138 575 q 76 511 82 514 l 54 504 l 57 510 l 51 513 l 49 514 l 50 514 l 39 517 l 31 524 l 38 532 l 40 538 q 46 554 40 539 q 122 726 99 703 l 136 736 q 149 746 142 743 l 158 749 q 172 751 167 751 q 203 739 193 751 z "},"#":{"ha":606,"x_min":-72,"x_max":560,"o":"m 10 0 l 11 13 l 10 10 l 3 10 l -7 10 l -4 21 l -7 24 q 1 63 -7 33 q 14 100 10 92 l 15 103 l 15 104 l 25 135 l 28 135 q 31 146 29 138 q 38 164 35 158 q 40 174 39 167 q 47 192 43 185 q 53 210 47 193 l 51 210 q 21 208 36 208 q -11 210 4 208 l -25 211 q -57 224 -44 214 q -64 231 -60 225 q -69 238 -68 238 l -71 239 l -68 254 l -58 257 l -57 261 q -8 275 -32 274 l -7 275 l -6 276 l 22 281 l 22 279 q 32 281 25 279 q 47 282 42 282 q 57 283 51 282 q 69 285 65 285 l 72 285 l 75 286 l 83 288 l 83 286 q 91 299 89 290 q 94 313 93 308 l 97 315 l 100 315 l 101 317 l 104 318 q 115 353 107 326 l 118 360 l 100 358 q 63 357 71 357 q 57 357 58 357 l 54 357 l 54 361 q 44 361 51 361 l 10 361 l 18 367 q 11 369 18 367 q -3 374 4 371 l -8 375 l 0 378 l -17 383 l -10 385 l -4 389 l -6 393 l -1 394 l -6 393 l -7 403 l 4 406 l 7 410 q 42 419 15 414 q 78 426 69 425 l 81 426 l 82 426 l 110 431 l 110 429 q 118 431 113 431 q 135 433 131 433 q 158 444 150 433 l 163 451 l 168 464 q 179 489 175 482 l 182 493 l 185 492 q 193 510 189 507 q 199 521 196 518 l 213 544 l 213 543 q 219 557 215 549 q 225 571 224 568 l 228 578 q 249 610 239 601 q 274 619 263 619 l 281 617 l 282 615 q 299 604 292 613 l 301 601 l 307 606 l 311 594 q 304 569 313 590 q 288 533 296 549 q 278 515 279 517 l 275 511 q 240 440 264 490 q 246 440 243 440 q 278 443 256 440 q 304 446 297 446 q 314 446 308 446 q 326 444 322 444 q 335 446 333 444 q 340 457 339 447 q 344 469 343 464 l 365 507 q 375 531 374 524 q 381 544 379 542 q 383 551 382 547 q 400 581 390 574 q 422 592 414 592 q 429 589 426 592 l 432 589 q 451 575 442 589 l 458 582 l 464 572 q 456 533 467 564 q 440 496 444 503 l 436 490 q 419 447 429 471 q 442 447 425 447 q 490 446 475 446 q 504 447 501 446 q 533 450 525 450 q 544 449 540 450 q 556 425 560 442 q 553 419 556 422 q 540 394 551 407 l 547 392 l 538 381 q 465 368 525 368 l 463 368 l 461 371 q 407 365 449 367 q 386 361 390 364 q 374 342 382 358 l 372 338 q 351 293 363 319 q 361 293 351 293 q 381 293 371 293 l 390 293 l 388 290 q 401 292 390 290 q 413 294 411 293 q 418 294 414 294 q 432 296 428 296 q 447 292 442 296 q 457 268 461 279 l 457 267 l 454 264 q 442 239 453 253 l 449 236 l 439 225 q 368 213 428 213 l 367 213 l 365 215 l 356 214 q 332 211 339 213 q 321 211 328 211 q 308 200 315 211 l 297 178 q 286 154 293 169 q 256 94 268 113 l 254 92 l 253 92 q 190 35 229 51 l 179 38 l 176 39 l 179 49 l 176 51 q 187 86 178 60 q 199 121 196 113 l 200 122 l 200 124 l 211 151 l 213 151 l 215 158 q 224 178 219 172 q 226 185 224 179 q 232 203 228 196 q 232 204 232 203 q 233 208 232 206 l 182 207 l 156 208 q 142 207 149 208 q 129 201 132 206 l 125 194 l 114 168 q 101 139 110 158 q 74 78 85 96 l 71 74 l 68 75 q 58 56 67 74 l 46 28 l 44 38 q 42 32 43 33 l 22 8 l 24 18 l 10 0 m 186 288 q 189 288 188 288 q 211 292 196 288 q 239 296 231 296 q 257 290 250 296 q 264 289 260 289 l 269 289 q 272 300 269 289 q 275 310 274 307 l 278 314 l 281 313 q 294 349 286 322 q 299 363 299 361 l 289 364 q 249 365 263 365 q 215 363 229 365 l 208 361 q 197 350 203 360 l 194 344 q 168 290 183 324 q 169 290 169 290 q 182 293 178 293 l 185 293 l 185 289 l 186 288 z "},"$":{"ha":440,"x_min":-79,"x_max":463,"o":"m 447 800 q 443 690 461 747 q 429 657 436 667 q 399 638 415 638 q 386 640 392 638 q 369 681 368 651 q 368 703 365 685 l 369 718 q 365 761 372 750 q 332 776 360 776 q 304 772 315 776 q 246 743 272 764 q 208 706 221 725 q 188 653 192 679 q 203 543 179 606 q 224 493 211 518 l 226 488 q 238 464 228 485 q 274 388 260 418 q 300 313 292 346 q 307 257 306 289 l 307 250 q 297 182 307 214 q 221 67 278 121 q 100 -6 158 8 l 99 -6 q 93 -24 97 -11 q 85 -46 89 -36 l 82 -56 q 64 -104 67 -99 l 63 -107 l 60 -106 q 54 -118 60 -107 l 47 -136 l 46 -129 q 43 -133 44 -132 l 25 -140 q 24 -142 24 -142 q 19 -147 22 -146 l 11 -151 l 11 -137 q 24 -81 11 -128 q 38 -33 29 -57 q 39 -28 38 -31 q 44 -7 40 -21 q -10 17 13 0 q -75 139 -64 63 q -72 207 -79 176 l -71 215 l -64 215 q -49 260 -58 239 l -46 267 l -21 264 l -21 256 q -26 231 -22 250 l -26 225 l -21 226 l -21 218 q 4 118 -21 157 q 46 75 22 86 q 78 68 61 68 q 103 72 90 68 q 108 74 103 72 q 118 79 114 76 l 124 81 l 135 89 q 196 146 167 107 q 228 214 224 179 q 226 258 229 238 q 217 296 224 275 q 179 379 206 328 l 169 397 q 126 486 140 454 q 97 604 100 550 q 115 699 99 658 q 125 721 118 707 l 129 731 q 150 761 139 749 q 175 789 163 778 q 221 828 189 807 q 261 847 247 844 q 292 860 274 854 q 294 868 294 867 q 297 872 296 869 q 297 877 297 874 q 299 882 297 881 q 308 907 307 904 l 310 908 l 321 949 q 328 961 324 956 q 344 969 335 969 q 350 967 349 969 q 361 964 357 967 q 368 960 365 961 l 371 963 l 374 957 q 367 918 378 950 q 363 906 364 908 l 360 899 q 357 888 358 892 q 350 865 356 885 q 378 864 367 865 q 429 835 411 856 q 442 814 436 826 q 447 800 446 806 z "},"%":{"ha":754,"x_min":63,"x_max":694,"o":"m 439 468 q 379 379 418 439 q 308 278 367 360 q 196 126 249 197 l 143 54 q 122 28 124 31 l 119 25 l 114 29 q 107 22 110 25 l 104 19 l 101 22 l 94 15 l 90 18 l 76 0 l 63 8 l 71 24 l 69 28 q 394 551 75 43 q 421 592 404 567 q 450 633 438 617 l 461 651 q 483 685 476 675 q 571 811 568 807 q 604 854 590 844 q 628 864 618 864 l 629 864 l 632 863 l 638 858 l 639 856 q 653 839 647 853 q 657 831 656 833 l 658 831 l 664 828 l 664 824 q 651 793 665 817 q 622 745 638 769 q 590 695 607 721 q 571 668 572 669 q 439 468 510 568 m 204 510 q 138 542 160 510 q 126 635 113 579 q 217 789 146 721 q 280 840 244 818 q 344 861 315 861 q 375 853 361 861 l 378 851 l 375 844 l 383 840 q 403 858 390 853 q 408 861 406 860 l 403 871 l 421 871 q 449 843 426 871 q 454 800 456 826 q 429 722 451 763 l 428 719 l 424 719 q 410 688 417 701 q 367 621 393 657 q 217 510 289 521 q 204 510 210 510 m 263 726 q 193 589 178 618 q 197 586 194 586 q 225 598 207 586 q 251 618 243 610 q 265 633 254 624 q 289 656 271 643 l 290 658 q 307 681 296 665 q 318 697 314 690 l 321 700 l 324 699 q 336 719 332 715 q 339 724 336 719 q 344 733 342 731 l 356 750 q 360 768 361 763 q 332 781 356 781 q 288 751 311 781 q 264 726 272 735 l 263 726 m 682 403 q 690 354 694 382 q 667 276 686 314 l 664 274 l 661 274 q 646 242 654 257 q 593 163 626 204 q 440 64 513 64 q 433 64 436 64 q 360 122 371 68 q 389 250 350 174 l 386 250 l 392 260 l 401 275 q 454 343 426 317 q 516 394 481 372 q 581 415 551 415 q 611 407 599 415 l 615 406 l 611 400 q 619 396 617 397 q 639 414 628 407 q 644 415 642 415 l 639 425 l 657 425 q 667 419 661 425 q 678 409 674 414 q 682 403 682 404 m 593 304 q 596 322 597 317 q 568 335 592 335 q 524 306 549 335 q 500 282 510 289 l 500 281 q 429 143 415 172 q 433 140 431 140 q 461 152 443 140 q 488 172 479 164 q 503 188 490 178 q 525 210 508 197 l 526 213 q 544 235 533 219 q 556 251 551 247 l 558 254 l 561 253 q 572 274 568 269 q 575 278 572 274 q 581 288 579 285 l 593 304 z "},"&":{"ha":524,"x_min":-122,"x_max":461,"o":"m 374 -7 q 314 -22 365 -22 q 294 -21 299 -22 q 246 61 267 -11 l 243 71 q 149 19 192 36 q 109 5 135 13 q 78 -3 83 -3 l 72 -1 q 54 -6 63 -6 l 46 -6 q 14 -8 25 -8 l 7 -8 q -101 42 -74 -4 q -111 111 -121 74 l -110 114 q -88 181 -107 146 q -53 237 -69 217 q -7 292 -36 257 l 1 301 q 63 369 22 325 q 125 438 107 415 q 133 446 128 440 q 146 458 144 456 q 144 482 147 463 q 142 500 142 494 q 160 626 142 568 q 267 775 193 728 q 335 796 301 796 q 382 777 365 796 q 397 726 399 758 q 333 576 394 671 q 269 488 304 532 q 258 475 268 485 q 236 449 236 453 q 243 410 233 440 q 247 396 246 399 q 310 194 267 306 q 325 210 313 199 l 343 228 q 379 264 376 261 l 383 267 l 390 257 l 393 260 q 404 272 399 267 l 407 275 l 410 271 q 446 313 428 290 l 449 317 l 461 306 q 433 269 442 281 l 433 264 q 393 210 415 236 q 331 143 361 169 q 346 104 340 115 q 353 92 350 96 q 358 79 353 89 q 378 39 374 53 q 375 1 385 15 q 374 -7 375 -3 m -11 161 l -15 156 q -39 113 -36 126 q -28 80 -44 90 q 10 65 -12 69 q 31 65 19 65 q 208 125 106 65 q 224 133 221 132 q 161 363 188 254 q 124 321 149 349 q -6 169 32 224 l -11 161 m 318 731 l 317 732 q 310 729 314 732 q 265 667 286 717 q 235 569 243 618 q 296 672 278 638 l 301 682 q 318 731 322 721 z "},"'":{"ha":169,"x_min":42,"x_max":231,"o":"m 221 735 q 224 694 229 719 q 183 616 215 661 q 121 541 150 571 q 86 510 92 511 l 64 503 l 67 510 l 63 511 l 60 513 l 60 514 l 50 517 l 42 524 l 49 533 l 51 538 q 58 556 51 539 q 142 725 118 703 l 156 735 q 168 743 163 742 l 179 746 q 190 749 186 749 q 221 735 211 747 z "},"(":{"ha":464,"x_min":-61,"x_max":401,"o":"m -11 -125 l -12 -122 q -18 -108 -14 -122 l -24 -110 q -47 -44 -35 -97 q -57 24 -60 8 l -56 28 l -57 33 l -60 60 q -60 79 -60 69 l -58 82 l -57 83 l -57 88 l -57 113 q -53 147 -60 139 q -53 164 -53 151 q -49 196 -51 183 q -40 254 -49 213 q -22 328 -31 307 q -18 336 -21 331 q -11 357 -11 351 q -7 376 -11 367 q 0 394 -3 385 q 8 425 1 408 l 10 429 l 14 429 q 17 438 17 436 q 36 496 21 460 l 44 515 q 75 578 63 563 l 81 585 q 89 600 86 596 q 88 603 88 601 q 90 609 89 606 q 94 618 92 613 q 101 626 99 624 l 97 628 l 101 632 l 104 636 l 104 635 q 113 647 108 642 q 125 667 122 661 l 124 669 q 133 683 125 676 l 135 685 l 140 688 l 136 690 l 140 694 q 144 701 143 699 q 155 713 150 706 q 163 725 160 721 q 175 749 164 732 q 181 756 176 751 l 185 760 l 185 758 q 203 781 199 778 l 206 785 q 222 803 218 800 l 229 810 l 244 826 q 301 883 292 878 q 313 893 308 889 q 329 907 324 903 q 364 925 349 919 q 381 926 371 926 q 400 917 399 926 q 397 906 401 911 q 399 886 401 897 l 397 871 l 400 867 l 400 861 q 383 842 399 854 q 356 818 367 829 q 342 806 351 815 q 324 789 329 794 q 301 767 310 774 l 299 764 l 296 767 q 269 729 276 742 l 243 693 l 206 635 l 172 576 l 157 546 q 118 468 124 483 q 87 388 111 457 q 58 299 63 318 q 51 268 56 289 q 42 226 46 239 q 36 197 39 215 l 33 181 q 24 106 28 157 l 21 83 q 21 53 21 74 q 19 22 21 26 l 19 18 l 15 17 l 15 13 l 18 -21 l 13 -24 l 14 -29 q 15 -56 14 -42 l 17 -60 l 8 -64 q 10 -75 10 -72 l 10 -78 l 4 -81 l 6 -90 l -1 -93 q 4 -114 3 -111 l 4 -118 l -11 -125 z "},")":{"ha":263,"x_min":-204,"x_max":258,"o":"m -167 -124 q -183 -125 -174 -125 q -203 -114 -201 -125 q -201 -104 -204 -110 q -201 -83 -204 -96 q -200 -69 -201 -72 l -204 -65 l -203 -60 q -186 -40 -201 -53 q -158 -17 -169 -28 q -146 -6 -154 -12 q -126 13 -132 7 q -106 35 -112 28 l -101 38 l -100 35 q -72 74 -79 61 l -46 108 l -8 167 l 25 225 l 40 256 q 78 333 74 318 q 109 414 85 344 q 138 503 133 483 q 144 533 140 513 q 156 574 151 563 l 156 575 q 161 604 158 586 l 164 621 q 174 696 169 646 l 175 718 q 176 750 176 728 q 176 781 176 775 l 178 783 l 182 785 l 181 789 l 179 822 l 183 825 l 183 831 q 182 857 183 846 l 181 861 l 189 865 q 188 876 188 874 l 188 879 l 193 882 l 192 892 l 199 894 q 193 915 193 914 l 193 919 l 208 926 l 210 924 l 215 910 l 219 911 q 244 846 232 899 q 253 778 257 793 l 253 774 l 254 768 l 257 742 q 256 722 257 733 l 256 719 l 254 718 l 254 714 l 253 689 q 250 654 257 663 q 250 638 250 650 q 246 606 249 618 q 238 546 246 576 q 219 474 228 496 q 215 465 218 471 q 208 444 208 450 q 203 425 208 429 q 197 407 199 417 q 196 399 197 401 l 197 390 l 194 392 q 189 376 192 386 l 188 372 l 183 372 q 181 364 181 365 q 161 306 176 340 l 153 286 q 122 224 135 239 l 117 217 q 108 201 110 206 q 108 199 108 200 q 107 193 108 197 q 101 183 106 189 q 96 175 99 179 l 93 172 l 94 171 q 85 154 90 163 q 72 135 75 139 l 74 132 q 63 118 71 125 l 61 113 l 57 107 q 53 100 54 103 q 42 88 47 96 q 35 78 38 81 q 22 53 33 69 l 19 50 l 17 50 q -6 21 -1 25 l -10 17 q -25 -1 -21 1 l -49 -28 l -49 -26 q -104 -82 -96 -76 q -117 -92 -108 -85 q -132 -106 -126 -101 q -167 -124 -151 -118 z "},"*":{"ha":471,"x_min":63,"x_max":410,"o":"m 406 751 q 404 719 408 738 q 403 711 406 718 q 392 699 400 704 q 376 693 383 693 q 307 667 365 685 l 297 664 q 301 656 299 663 q 313 626 313 638 l 314 626 q 317 617 317 626 q 325 589 326 599 l 324 578 l 325 571 l 319 569 q 318 564 319 567 l 315 560 l 311 557 l 307 546 l 306 547 l 303 538 l 300 539 l 299 528 l 293 531 l 283 532 q 268 538 276 532 q 257 549 260 544 l 256 550 q 249 561 249 557 q 244 568 244 561 q 239 579 235 568 q 238 578 239 578 q 233 582 238 578 q 217 604 219 597 l 214 614 q 213 615 214 614 q 213 617 213 615 q 200 604 208 613 q 165 572 178 579 q 160 567 164 571 q 153 560 157 564 q 128 539 136 543 l 117 533 l 108 528 l 108 533 q 104 532 106 532 l 92 531 l 93 533 q 83 532 83 532 l 83 533 l 72 529 l 75 533 l 63 528 l 71 543 l 71 550 q 78 569 71 557 q 90 586 86 582 q 101 600 99 599 q 108 607 101 603 q 108 608 107 607 q 110 610 108 608 l 111 614 q 150 658 132 642 l 161 669 q 133 682 151 674 q 117 690 124 688 q 113 693 115 692 q 94 703 97 699 q 90 731 85 717 q 100 740 93 738 q 108 757 101 749 q 146 782 128 782 q 160 774 156 782 q 161 774 161 774 q 207 754 171 774 q 215 750 210 753 l 221 765 l 222 765 l 224 774 l 226 778 l 226 779 l 225 778 l 218 779 l 228 789 l 229 793 l 226 797 l 232 803 l 232 804 l 233 808 l 239 821 l 239 819 q 240 822 240 821 q 240 824 240 822 q 244 832 243 829 q 276 861 258 861 q 283 860 281 861 q 294 861 289 861 q 326 843 321 861 q 319 819 329 831 q 299 749 317 801 q 308 751 304 750 l 325 756 l 324 756 q 331 758 329 757 l 332 765 l 333 764 l 333 765 l 347 764 l 346 767 l 350 772 l 353 768 l 353 767 l 356 769 l 372 772 q 389 775 382 775 q 407 765 404 775 q 406 751 410 760 z "},"+":{"ha":669,"x_min":63,"x_max":608,"o":"m 596 417 q 604 406 600 414 q 607 390 608 397 q 601 382 606 385 q 597 364 604 375 q 592 350 594 354 l 594 346 l 589 339 q 528 328 578 328 q 515 329 519 328 l 506 331 q 492 328 499 329 q 393 325 447 325 l 386 325 q 368 325 379 325 l 347 272 l 344 264 q 332 235 336 243 l 322 213 l 322 210 l 319 207 q 282 125 289 135 l 281 122 l 278 124 q 271 112 276 122 q 260 93 265 101 l 256 83 l 254 92 q 249 86 250 88 l 231 71 l 232 76 l 218 63 l 221 74 l 215 65 l 215 68 l 201 72 l 204 82 l 201 85 q 222 157 203 110 l 224 160 l 224 161 l 232 189 l 233 189 q 238 199 238 197 q 243 218 236 208 l 244 219 q 246 224 244 221 q 250 239 247 233 q 259 269 250 242 q 272 304 268 297 l 276 310 q 279 314 279 314 q 281 325 279 319 l 265 325 q 256 325 261 325 q 240 324 244 324 q 229 325 233 324 l 228 325 l 218 325 l 207 325 l 183 325 q 126 326 132 325 l 124 328 l 124 332 q 116 333 122 332 q 108 333 110 333 l 85 336 l 93 342 q 88 343 89 342 l 69 354 l 78 356 l 63 364 l 72 367 l 65 368 l 67 369 l 69 386 l 76 388 l 75 389 l 81 392 q 115 401 89 397 q 149 406 140 406 l 151 406 l 153 406 l 158 407 q 176 408 174 408 l 181 407 q 185 408 182 407 q 189 408 189 408 q 201 411 193 411 l 206 404 l 206 410 q 213 411 208 410 q 224 413 219 413 l 225 413 l 229 414 q 285 418 272 418 q 294 417 292 418 q 299 415 297 415 l 306 418 l 307 418 q 313 417 310 418 l 314 417 q 321 429 317 425 q 325 438 325 433 q 326 446 324 438 l 328 449 q 333 463 329 457 q 338 471 336 468 q 342 483 333 478 l 346 486 l 342 489 l 347 494 q 350 501 349 500 q 353 515 349 507 l 367 549 l 367 546 q 369 550 368 549 q 382 582 374 558 q 386 594 386 593 q 390 603 388 597 q 404 629 396 621 q 428 640 415 640 q 439 632 438 640 q 442 633 440 633 q 453 628 443 633 q 464 619 461 622 l 469 622 l 474 615 q 467 577 476 607 q 451 539 457 547 l 444 528 q 442 513 443 519 q 407 419 433 490 q 411 418 410 419 l 413 419 l 422 421 l 424 421 l 429 424 q 444 421 443 421 l 446 422 q 451 424 449 424 q 458 421 456 424 l 461 418 l 463 424 l 469 421 l 472 421 q 475 421 474 421 q 486 424 479 424 l 517 424 l 514 422 l 515 422 l 519 419 l 528 419 q 551 421 536 419 q 563 421 558 421 q 571 421 567 421 q 579 421 575 421 q 596 417 589 421 z "},",":{"ha":183,"x_min":-185,"x_max":3,"o":"m 0 108 q -15 53 1 86 q -40 13 -31 21 q -40 11 -39 13 q -43 6 -40 10 q -51 -1 -46 3 q -64 -18 -51 -4 q -79 -35 -76 -32 q -93 -49 -87 -46 l -97 -53 q -137 -78 -129 -76 l -158 -82 l -157 -76 l -162 -74 l -165 -72 l -164 -71 l -165 -71 l -176 -67 l -185 -58 l -176 -50 l -175 -46 q -154 -21 -169 -32 l -146 -14 q -114 24 -136 -6 q -108 31 -110 31 l -104 36 q -101 40 -104 38 l -100 42 q -114 47 -108 43 q -122 68 -119 54 q -122 82 -125 78 q -116 117 -126 101 q -96 139 -106 133 l -96 143 l -89 146 l -82 147 q -71 154 -78 153 l -60 156 q -53 157 -56 157 q -46 157 -49 157 q 0 108 -6 150 z "},"-":{"ha":449,"x_min":-87,"x_max":335,"o":"m 324 281 q 331 254 335 271 q 326 247 329 250 q 324 231 329 243 q 318 214 319 218 l 319 210 l 315 203 q 268 192 304 192 q 258 193 261 192 l 251 194 q 242 193 249 193 q 171 189 218 189 l 164 189 q 146 190 157 189 q 138 192 139 192 l 76 192 l 69 192 q 60 190 63 190 q 49 192 53 190 l 14 193 q -25 196 -21 193 l -44 203 l -54 204 l -49 210 q -53 213 -53 211 l -65 222 l -58 225 l -69 232 l -67 233 l -81 240 l -74 242 l -87 247 l -58 256 l -56 260 q -29 269 -49 265 q -4 274 -10 274 l -3 274 l 3 275 q 17 276 15 276 l 21 275 q 25 276 21 275 q 35 279 28 279 l 39 272 l 39 278 q 49 281 46 279 l 51 281 q 96 285 83 285 l 101 283 l 104 283 l 108 282 l 113 283 l 115 278 l 118 283 q 131 286 125 286 l 156 286 l 158 286 q 165 286 163 286 q 176 288 174 288 q 188 283 185 288 q 196 286 189 286 l 197 288 l 200 288 q 208 286 206 288 l 211 286 l 213 286 q 218 288 215 288 l 219 288 l 221 286 l 226 286 l 229 288 l 232 286 q 243 288 240 288 l 265 288 l 264 286 q 269 282 267 285 q 290 285 278 283 q 297 285 296 285 q 303 285 300 285 q 310 286 307 286 q 324 281 318 286 z "},".":{"ha":164,"x_min":-129,"x_max":-4,"o":"m -18 144 q -15 96 -6 124 q -31 71 -19 85 q -42 60 -35 65 q -51 51 -47 53 q -83 40 -61 40 l -85 40 l -83 46 l -87 40 q -106 44 -97 40 q -126 75 -122 54 q -119 114 -129 96 l -118 118 q -106 136 -114 126 q -51 161 -83 161 q -47 161 -49 161 q -18 144 -28 157 z "},"/":{"ha":186,"x_min":-133,"x_max":271,"o":"m -118 0 l -133 4 l -129 19 l -132 22 q -116 75 -129 36 q -97 126 -103 114 l -96 131 l -94 135 l -81 172 l -79 172 l -79 174 q -72 192 -74 188 q -62 217 -71 208 l -61 218 q -58 229 -61 221 q -49 253 -54 244 l -46 258 q -36 290 -44 268 q -21 329 -28 313 q -13 348 -14 346 q -10 354 -12 350 q -3 367 -3 363 q 3 383 -1 378 q 7 394 7 389 q 15 418 10 406 l 17 422 l 21 422 q 22 426 22 425 q 40 476 26 446 l 43 485 q 47 494 44 486 q 65 533 58 526 l 68 538 q 74 549 72 546 q 76 560 72 550 q 81 568 79 565 l 76 568 l 79 572 l 82 576 q 86 585 83 579 q 94 599 93 596 q 99 613 92 606 l 100 617 q 104 625 103 624 q 110 636 107 631 q 115 646 113 643 q 119 664 113 649 l 119 665 q 122 669 121 667 l 124 674 l 126 674 q 135 692 131 688 q 143 711 139 708 l 146 717 q 165 763 151 726 q 174 781 171 776 q 179 796 176 788 q 197 831 189 819 q 225 846 211 846 l 233 843 l 235 842 l 235 839 q 250 829 246 836 q 258 821 256 824 l 263 824 l 267 815 q 252 762 269 806 q 228 704 235 718 l 226 701 l 224 701 l 221 696 q 211 665 214 672 q 144 506 165 546 q 124 458 140 494 q 115 443 117 444 l 58 310 q 51 293 56 304 q 35 254 42 265 l 19 219 l 19 217 l 15 214 l 3 182 q -37 93 -32 103 l -40 89 l -43 90 q -49 78 -44 86 q -56 65 -53 71 l -58 60 l -64 60 q -79 32 -76 35 l -103 4 l -97 22 l -99 24 l -103 17 l -110 18 l -118 0 z "},":":{"ha":183,"x_min":-112,"x_max":158,"o":"m -31 161 q -1 144 -10 157 q 1 96 11 124 q -14 71 -3 85 q -25 60 -18 65 q -35 51 -31 53 q -67 40 -44 40 l -68 40 l -67 46 l -71 40 q -89 44 -81 40 q -110 75 -106 54 q -103 114 -112 96 l -101 118 q -89 136 -97 126 q -35 161 -67 161 q -31 161 -32 161 m 144 556 q 147 507 157 535 q 132 482 143 496 q 122 471 128 476 q 111 463 115 464 q 79 451 101 451 l 78 451 l 79 457 l 75 451 q 57 456 65 451 q 36 486 40 465 q 43 525 35 507 l 44 529 q 57 547 49 538 q 111 572 79 572 q 117 572 114 572 q 144 556 136 568 z "},";":{"ha":193,"x_min":-175,"x_max":161,"o":"m -36 157 q 10 108 4 150 q -5 53 11 86 q -31 13 -21 21 q -30 11 -29 13 q -33 6 -31 10 q -42 -1 -36 3 q -54 -18 -42 -4 q -69 -35 -67 -32 q -83 -49 -78 -46 l -87 -53 q -128 -78 -119 -76 l -149 -82 l -147 -76 l -153 -74 l -156 -72 l -154 -71 l -156 -71 l -167 -67 l -174 -58 l -167 -50 l -165 -46 q -144 -21 -160 -32 l -135 -14 q -104 24 -126 -6 q -99 31 -100 29 l -94 36 q -90 40 -94 38 l -90 42 q -103 47 -99 43 q -112 68 -110 54 q -112 82 -115 78 q -106 117 -117 101 q -86 139 -96 133 l -86 143 l -79 146 l -71 147 q -61 154 -68 153 l -50 156 q -42 157 -44 157 q -36 157 -39 157 m 146 556 q 150 507 160 535 q 135 482 146 496 q 124 471 131 476 q 113 463 117 464 q 81 451 104 451 l 82 457 l 78 451 q 60 456 68 451 q 39 486 42 465 q 46 525 36 507 l 47 529 q 60 547 51 538 q 113 572 81 572 q 118 572 117 572 q 146 556 138 568 z "},"<":{"ha":540,"x_min":-99,"x_max":488,"o":"m 335 0 l 301 8 l 297 6 q 243 18 271 6 l 242 19 l 236 21 q 221 26 222 25 q 214 31 217 29 l 213 31 q 199 38 200 31 q 193 36 196 36 q 188 38 190 36 l 186 38 l 182 39 q 136 56 143 51 l 132 60 q 119 65 122 63 l 118 65 q 103 69 108 65 l 86 76 q 75 82 82 78 q 68 83 72 83 q 47 96 50 89 l 47 97 l 42 97 l 36 99 l 32 99 q 24 104 28 101 l 19 107 q 15 107 17 107 q 10 113 11 107 l 11 113 l 10 115 l 8 111 l 6 111 l 3 114 l -4 119 l -7 118 q -12 119 -10 118 l -35 132 l -33 132 q -36 136 -36 133 q -45 140 -37 136 q -60 146 -53 143 q -67 149 -67 149 l -68 149 q -83 157 -76 149 q -90 165 -87 157 q -86 196 -99 182 q -87 207 -87 203 l -89 208 l -90 210 l -90 214 q -56 241 -85 225 q -17 260 -28 257 l -6 263 q 8 272 3 268 q 63 300 15 276 q 114 325 110 324 q 146 339 122 329 q 156 343 154 343 q 244 386 158 343 q 254 392 247 388 q 282 404 274 401 l 283 404 q 303 414 288 407 l 306 415 l 310 417 l 329 426 q 392 453 383 451 l 394 454 l 396 450 q 404 453 397 451 q 414 457 411 456 l 439 465 l 432 457 q 439 458 436 458 l 463 458 l 456 453 l 474 454 l 464 446 l 471 449 l 469 447 l 488 450 l 475 432 q 467 426 474 432 l 465 421 q 435 399 458 414 q 400 378 411 383 l 406 372 l 386 371 q 369 361 372 361 q 358 356 363 358 q 340 344 351 344 q 335 342 339 344 q 325 335 329 338 l 326 333 l 321 329 l 317 329 q 308 325 314 328 q 257 297 265 300 l 251 297 q 246 296 247 296 q 232 288 239 288 q 228 285 231 288 q 211 274 221 278 l 208 272 l 207 275 q 172 256 193 265 q 161 250 167 253 q 135 238 142 238 l 131 238 q 128 236 129 238 q 126 236 126 236 q 118 229 128 235 l 113 228 l 114 228 q 111 225 111 226 l 110 224 l 110 225 q 101 221 107 222 q 94 219 99 221 l 94 217 l 93 215 l 89 213 l 85 213 l 76 213 l 79 210 l 78 208 l 74 207 l 69 207 q 63 204 64 204 q 58 200 61 201 q 97 183 94 185 q 119 172 103 181 q 126 168 125 168 l 189 139 q 196 136 192 139 q 217 126 211 132 l 218 126 l 240 115 q 292 86 286 92 l 293 85 l 292 81 q 301 74 299 75 l 318 63 l 310 60 q 314 54 313 57 l 321 38 l 315 39 l 322 25 l 319 26 l 329 14 l 322 15 l 335 0 z "},"=":{"ha":565,"x_min":-99,"x_max":503,"o":"m 488 432 q 497 406 501 422 q 493 397 496 400 q 489 381 494 393 q 483 365 485 368 l 486 361 l 481 354 q 424 343 469 343 q 414 343 417 343 l 406 346 q 393 343 399 344 q 311 342 372 342 q 300 342 303 342 q 274 343 290 342 q 267 344 268 344 l 190 346 l 171 344 q 158 346 164 344 l 142 347 l 138 346 l 136 347 l 113 347 q 68 350 74 349 l 65 351 l 67 356 q 53 357 56 357 l 32 360 l 40 365 q 35 367 36 367 l 19 378 l 26 379 l 14 389 l 21 390 l 17 392 l 18 393 l 17 393 l 19 410 l 26 411 l 25 413 l 29 415 q 60 425 38 421 q 92 429 83 429 l 94 429 l 100 429 q 115 432 114 432 l 117 432 l 121 429 q 124 431 122 431 q 128 431 126 431 q 139 433 131 433 l 143 428 l 143 432 q 147 433 144 432 q 158 435 154 435 l 160 435 q 211 439 194 439 q 218 439 215 439 l 222 436 q 232 438 232 438 q 239 436 236 438 l 242 436 q 254 439 246 439 l 283 439 l 290 439 q 299 439 294 439 q 311 440 307 440 q 322 436 319 440 q 335 438 326 438 l 336 440 l 340 439 q 349 438 344 439 q 357 436 356 436 l 357 439 q 361 439 360 439 q 367 436 365 439 l 367 435 l 369 433 l 368 439 l 371 439 l 374 438 q 378 437 376 438 q 382 436 381 436 q 392 439 385 439 l 418 439 l 415 438 l 422 435 l 428 435 q 450 436 436 435 l 458 436 q 466 436 461 436 q 474 436 471 436 q 488 432 482 436 m 385 221 q 400 217 394 221 q 410 190 414 207 q 404 182 408 185 q 401 164 407 176 q 396 149 397 151 l 397 144 l 392 138 q 336 126 382 126 q 325 128 329 126 l 317 131 q 304 128 311 128 q 222 125 285 125 q 213 126 215 125 q 186 128 203 126 l 178 128 l 103 129 q 83 129 85 129 q 71 131 76 129 l 69 131 l 53 131 q -51 164 -36 131 q -53 171 -53 168 l -72 176 l -71 178 l -97 188 l -60 196 l -58 200 q -28 209 -50 206 q 3 213 -6 213 l 6 213 l 7 214 l 13 214 q 28 215 25 215 l 29 215 l 33 214 q 36 215 33 214 q 39 215 39 215 q 50 218 43 218 l 54 211 l 56 215 q 60 217 57 217 q 69 219 67 218 l 72 219 q 124 222 107 222 q 129 222 128 222 l 135 221 q 144 221 144 221 q 151 219 149 221 l 154 221 q 167 224 158 224 l 196 224 l 194 222 q 204 222 196 222 l 210 218 l 211 224 q 222 224 218 224 q 235 221 231 224 q 247 222 239 222 l 249 225 l 251 224 q 261 222 257 224 q 268 221 267 221 l 269 222 q 274 224 272 224 q 279 221 276 224 l 278 219 l 281 218 l 281 222 l 283 222 l 286 222 q 291 222 289 222 q 293 221 293 221 q 303 224 297 224 l 332 224 l 329 221 l 333 219 l 340 219 q 363 219 347 219 l 371 219 q 378 221 374 219 q 385 221 383 221 z "},">":{"ha":540,"x_min":-144,"x_max":442,"o":"m -96 4 l -89 13 q -96 11 -94 11 l -119 11 l -112 17 l -131 17 l -121 24 l -129 22 l -128 24 l -143 21 l -132 38 q -124 44 -132 39 l -122 49 q -58 92 -106 68 l -62 97 l -43 100 q -28 110 -29 110 q -15 115 -19 113 q 1 125 -8 125 q 7 128 4 125 q 17 135 14 133 l 17 138 l 22 140 l 26 140 q 33 144 29 142 q 85 172 78 169 l 90 174 q 96 175 96 174 q 110 183 103 182 q 114 185 113 183 q 131 196 121 192 l 135 197 l 136 194 q 169 215 149 204 l 174 217 q 181 221 176 218 q 207 232 200 232 l 213 232 q 214 233 213 232 q 217 235 215 233 q 225 240 215 236 q 231 243 229 242 q 242 249 235 247 q 244 249 242 249 q 247 251 247 250 l 249 253 l 250 256 l 254 258 l 258 258 l 265 257 l 264 261 l 265 261 l 268 263 l 274 263 q 281 267 278 265 q 285 271 282 268 q 246 288 249 285 q 224 299 240 289 q 217 301 218 301 l 153 331 q 146 333 151 332 q 126 343 131 339 l 125 344 l 111 350 l 108 350 l 107 353 l 103 356 q 51 383 56 378 l 49 386 l 51 389 q 40 397 44 394 l 25 408 l 33 410 q 29 415 29 414 l 22 432 l 28 432 l 21 444 l 22 444 l 13 457 l 21 454 l 8 471 l 42 461 l 46 465 q 99 451 72 465 l 101 451 l 107 450 q 122 443 121 446 q 129 440 126 440 q 144 433 142 440 q 146 435 144 435 q 156 432 151 433 l 157 432 l 161 431 q 207 414 200 418 l 210 410 q 224 404 221 408 l 225 404 q 240 401 233 404 l 257 393 q 267 389 260 392 q 275 386 271 388 q 296 375 292 381 l 296 372 l 301 372 l 306 372 l 307 371 l 311 371 q 318 365 315 369 l 324 363 q 328 364 325 364 q 333 358 332 364 l 332 357 l 333 354 l 335 360 l 336 358 l 340 357 l 346 351 l 349 353 q 356 350 353 353 l 378 339 l 376 339 q 379 335 378 338 q 410 321 408 322 q 426 313 419 321 q 433 304 429 313 q 429 274 442 289 q 431 264 431 267 l 432 263 l 432 261 l 432 257 q 398 229 426 246 q 360 210 369 213 l 349 207 q 335 199 340 201 q 280 171 326 194 q 229 144 233 147 q 197 131 221 140 q 186 126 188 128 q 97 83 185 126 q 88 79 94 83 q 60 65 69 68 l 58 65 q 40 57 56 64 l 38 54 l 33 54 l 13 44 q -49 17 -40 19 l -53 17 l -53 19 q -62 17 -54 19 q -71 14 -69 14 l -96 4 z "},"?":{"ha":453,"x_min":61,"x_max":501,"o":"m 499 719 q 497 679 500 707 q 478 615 492 646 l 471 600 q 461 582 467 589 q 442 557 454 569 q 419 531 431 543 l 408 519 q 365 476 379 488 l 331 444 q 271 382 292 410 q 247 344 260 367 l 240 333 l 236 335 q 224 307 225 313 l 222 304 l 217 303 q 213 295 215 300 q 210 288 211 290 l 208 283 q 203 271 204 274 l 182 240 l 185 258 l 183 258 l 179 250 l 172 251 q 164 232 167 235 l 163 229 l 149 233 l 149 236 q 164 318 157 294 q 190 382 169 342 l 189 381 l 193 390 l 199 400 q 242 460 218 433 q 245 465 242 460 q 255 476 249 471 q 265 483 261 482 q 274 493 267 485 q 294 515 286 508 l 329 553 q 370 613 349 574 q 392 685 392 651 q 367 743 393 722 q 338 750 356 750 q 275 735 313 750 l 269 733 q 256 725 258 726 l 250 722 q 233 708 240 715 q 211 678 221 693 q 201 657 207 671 q 186 631 193 640 q 157 611 172 611 l 129 629 q 119 665 111 642 q 136 707 125 686 q 165 750 147 728 q 193 779 183 772 q 246 817 235 811 q 290 834 257 824 q 354 844 324 844 l 361 844 q 456 808 417 844 q 489 763 478 789 q 499 719 497 742 m 135 167 q 171 146 161 163 q 175 97 182 129 q 160 74 171 86 q 149 61 156 67 q 138 53 142 54 q 106 43 129 43 l 107 47 l 103 43 q 85 47 93 43 q 64 76 67 56 q 69 115 61 99 l 72 121 q 83 135 74 125 q 96 149 92 146 l 99 151 q 135 167 119 167 z "},"@":{"ha":708,"x_min":-90,"x_max":636,"o":"m 235 -182 l 190 -183 q 163 -182 165 -183 l 118 -175 l 119 -171 q 113 -171 113 -171 q 63 -151 104 -171 q 18 -128 22 -132 q -82 65 -71 -68 q -62 242 -89 149 q 18 411 -35 335 q 188 571 83 504 q 417 638 293 638 q 551 601 497 638 q 622 500 604 565 q 629 400 635 456 q 600 292 622 349 q 476 93 560 185 q 335 -1 401 11 q 315 -4 325 -4 q 275 7 293 -4 q 253 36 263 14 q 244 53 249 47 q 243 60 243 56 q 136 1 186 1 q 121 1 129 1 q 82 68 88 10 l 81 71 l 83 72 q 90 153 81 110 q 124 226 100 197 l 126 229 l 132 238 q 140 253 138 247 l 151 271 l 153 275 q 193 322 171 301 q 246 371 222 354 l 249 374 l 250 372 q 276 392 271 389 l 283 396 q 332 417 313 413 q 344 421 339 419 q 389 439 374 436 q 429 444 414 444 q 456 440 444 444 q 461 437 457 439 q 471 428 465 435 q 476 418 476 422 l 475 415 l 474 411 l 467 407 q 451 394 468 403 q 453 393 453 393 l 451 379 q 446 379 446 379 q 438 379 443 379 l 435 372 l 442 368 l 444 367 q 442 360 442 361 l 444 360 l 444 357 q 419 292 444 350 q 372 183 394 233 q 346 126 349 132 q 340 115 343 121 q 335 100 339 111 q 324 54 314 58 q 328 54 325 54 q 376 74 344 54 q 417 103 407 93 q 518 249 474 157 q 561 413 563 340 q 511 519 560 481 q 379 558 463 558 q 356 558 368 558 q 194 496 272 553 q 63 361 117 439 q 8 219 31 314 q 7 43 -15 124 q 185 -114 40 -86 q 213 -115 194 -115 l 225 -115 q 338 -101 281 -115 l 350 -99 q 394 -85 383 -92 q 467 -49 429 -69 l 469 -46 l 472 -51 q 514 -26 499 -35 l 518 -24 l 524 -39 l 521 -42 q 501 -57 515 -46 l 492 -65 l 489 -69 q 362 -150 431 -119 q 235 -182 293 -181 m 428 375 l 431 379 q 342 361 385 376 q 318 349 321 351 q 276 321 296 336 q 178 204 215 274 q 143 97 143 143 q 154 67 142 67 q 213 108 168 67 q 243 142 225 121 l 250 149 q 288 197 276 181 q 294 213 290 201 q 311 240 304 232 l 325 264 l 333 283 q 364 332 351 318 l 367 335 l 369 333 q 379 346 376 343 l 393 367 l 393 357 q 399 363 397 363 l 408 367 l 428 375 z "},"A":{"ha":847,"x_min":-54,"x_max":872,"o":"m 829 526 q 861 515 851 526 q 862 493 871 504 q 829 482 853 482 q 800 483 824 482 q 775 485 776 483 q 753 485 767 485 q 731 486 740 486 q 694 486 721 486 l 692 474 q 607 211 621 247 q 563 108 586 156 q 531 49 547 75 q 508 25 514 24 q 497 17 506 26 q 485 10 489 8 q 483 15 482 10 q 481 24 483 21 q 467 11 479 24 q 450 7 454 1 q 452 11 450 7 q 460 24 454 15 q 471 43 465 33 q 513 133 489 78 q 565 278 542 206 q 581 323 569 292 q 602 390 592 354 q 626 485 613 426 q 613 486 618 486 q 568 482 608 485 q 507 482 567 482 q 483 480 503 482 q 454 478 464 478 q 378 472 410 478 q 313 464 368 471 l 249 372 q 144 206 211 328 q 88 106 92 117 l 74 76 q 39 28 57 44 q 7 15 21 13 q -5 28 -1 18 q -4 60 -8 39 q 13 107 0 81 q 44 165 19 121 q 74 217 69 210 q 102 263 89 242 q 145 331 115 285 q 213 438 175 378 q 214 441 213 439 q 217 444 215 443 q 179 438 179 438 q 122 425 167 436 q 65 408 78 414 q 53 405 64 408 q 32 399 43 401 q 8 392 21 396 q -12 388 -6 389 q -21 388 -19 386 q -28 390 -22 390 q -35 392 -33 389 q -35 395 -36 393 q -33 400 -33 397 q -42 399 -35 400 q -51 403 -50 399 q 8 431 -53 407 q 74 454 68 453 q 109 463 78 456 q 183 483 140 471 q 233 493 188 485 q 254 497 233 493 q 281 532 272 519 q 294 551 283 535 q 319 588 304 567 q 342 619 333 608 q 432 729 367 654 q 454 756 438 736 q 486 794 471 776 q 514 824 501 811 q 665 943 622 932 q 709 945 688 953 q 740 917 731 938 q 747 897 743 913 q 750 883 750 888 q 753 858 753 863 q 747 775 753 826 q 735 690 743 747 q 724 608 726 632 q 706 528 719 581 q 739 528 718 528 q 765 528 760 528 q 790 527 765 528 q 815 528 814 526 l 829 526 m 676 736 q 688 868 689 844 l 685 881 l 683 881 l 682 881 l 682 881 l 682 879 l 676 876 q 669 873 674 875 q 660 867 665 871 q 654 863 656 864 q 592 810 631 849 q 531 746 556 775 q 478 683 511 722 q 428 625 444 644 q 389 574 413 606 q 343 511 365 543 q 365 514 344 511 q 394 517 385 517 q 471 522 442 521 q 544 525 500 525 q 618 529 589 525 q 636 529 624 529 q 648 578 639 542 q 663 635 657 615 q 676 736 669 660 z "},"B":{"ha":557,"x_min":-178,"x_max":615,"o":"m 604 858 q 588 750 615 806 q 559 701 582 733 q 507 640 536 668 q 472 612 492 626 q 441 590 453 597 q 413 573 429 582 q 396 564 397 564 q 279 508 336 531 q 332 496 313 501 q 446 433 403 478 q 483 374 475 404 q 488 358 486 365 q 489 346 489 350 l 489 343 q 485 299 492 326 q 461 249 478 272 q 367 160 433 206 q 190 74 304 119 q 39 25 128 47 q -26 9 6 15 q -76 1 -58 3 q -97 1 -94 -1 q -116 3 -99 4 q -136 6 -133 1 q -132 12 -139 8 q -126 19 -125 15 q -140 19 -128 21 q -164 19 -151 18 q -176 24 -176 19 q -114 42 -176 25 q -82 49 -99 44 q -64 161 -92 79 q 0 328 -37 235 q 144 667 32 406 q 221 814 165 715 q 249 869 222 818 q 317 946 269 914 q 372 971 344 964 q 429 978 383 974 q 543 947 496 976 q 604 858 593 915 m 294 440 q 238 451 281 444 q 154 457 197 457 q 133 457 139 458 l 128 457 l 125 457 l 124 457 q 75 336 93 385 q 17 183 22 203 l 0 138 q -39 61 -18 89 q 26 81 -3 71 q 122 112 72 93 q 199 142 172 131 q 231 157 226 154 q 336 213 300 189 q 400 268 376 240 q 413 368 443 319 q 367 409 401 388 q 294 440 333 431 m 533 788 q 542 828 540 807 q 499 898 542 879 q 403 911 457 917 q 325 869 363 907 q 297 826 313 857 q 268 767 281 794 q 238 704 260 747 q 201 628 217 661 l 185 593 q 157 536 174 575 q 165 538 157 536 q 176 542 174 540 q 268 574 224 556 q 418 653 333 599 q 455 681 431 660 q 500 729 479 701 q 533 788 519 753 z "},"C":{"ha":642,"x_min":-57,"x_max":575,"o":"m 538 250 q 552 262 539 250 q 569 269 565 274 q 544 229 574 267 q 476 157 517 194 q 354 67 413 99 q 275 31 322 50 q 211 13 218 14 q 103 8 157 0 q 46 28 79 10 q -7 75 13 47 q -32 115 -14 81 q -37 131 -33 118 q -43 150 -42 143 q -49 179 -44 156 q -39 319 -57 235 q -8 435 -22 403 q 24 511 22 507 q 64 589 40 546 q 153 724 97 650 q 253 847 201 786 q 311 901 275 872 l 356 933 q 372 942 358 935 q 396 955 386 950 q 422 965 406 960 q 456 974 439 971 l 474 975 q 497 972 485 975 q 519 960 511 967 q 535 943 529 950 q 551 894 547 922 q 540 775 556 871 q 535 758 538 765 q 532 746 533 750 l 531 743 q 502 692 521 708 q 469 681 483 675 q 467 763 444 692 q 481 819 476 794 q 486 867 488 853 q 483 897 486 889 q 478 911 482 910 l 453 908 q 442 906 447 907 q 368 860 410 893 q 290 793 307 810 q 231 719 272 776 q 156 617 163 628 q 100 521 154 617 q 67 450 86 497 q 40 374 49 407 q 13 226 15 283 q 51 107 10 146 q 60 99 53 104 q 71 92 68 94 q 100 78 85 83 l 143 71 q 188 71 151 67 q 256 88 224 75 q 360 143 310 107 q 440 201 411 178 q 471 226 451 210 q 499 249 490 243 q 510 254 507 256 q 522 258 513 251 q 535 264 531 265 q 536 258 538 263 q 538 250 535 253 z "},"D":{"ha":621,"x_min":-178,"x_max":679,"o":"m 654 765 q 639 546 679 660 q 540 361 615 481 q 475 283 494 303 q 440 249 463 269 l 425 235 q 404 217 422 232 q 372 190 386 201 q 333 162 357 179 q 286 132 308 144 q 139 56 210 83 q 8 13 72 26 q -47 1 -19 6 q -90 -5 -75 -4 q -108 -3 -106 -6 q -124 0 -110 0 q -142 4 -139 0 q -137 10 -143 7 q -133 17 -132 14 q -155 18 -133 18 q -176 25 -176 18 q -82 47 -176 25 q -69 144 -94 72 q -15 286 -50 201 q 28 394 -3 317 q 103 575 60 471 q 164 703 114 603 q 218 818 199 781 q 239 857 222 828 l 249 875 q 263 897 254 886 q 342 957 294 935 q 426 976 372 976 q 515 954 479 975 q 558 926 531 947 q 606 875 586 904 q 654 765 644 822 m 600 667 q 596 731 603 693 q 576 797 589 769 q 524 871 554 844 q 479 899 504 889 q 443 908 454 908 q 396 908 432 911 q 357 893 378 904 q 303 838 318 868 q 215 660 253 753 q 190 606 207 643 q 161 540 174 568 l 147 511 q 57 290 121 463 q 8 160 10 169 l -6 122 q -40 57 -21 81 q -4 68 -18 64 q 167 135 92 96 q 257 185 239 174 q 408 311 329 229 q 497 414 464 369 q 525 456 501 421 q 557 518 531 467 q 600 667 593 600 z "},"E":{"ha":581,"x_min":15,"x_max":754,"o":"m 729 958 q 749 944 746 956 q 744 922 753 932 q 722 914 736 911 q 689 918 697 918 q 615 915 642 918 q 599 914 611 914 q 582 914 588 914 q 553 910 564 911 q 513 906 549 908 q 497 903 510 906 q 478 900 483 901 q 426 894 463 901 q 381 886 413 890 q 374 843 386 868 q 356 807 371 838 q 338 774 340 776 q 323 745 333 764 q 300 700 313 726 q 268 629 288 674 q 260 611 265 622 q 247 586 254 600 q 235 565 239 572 q 224 539 232 560 q 257 546 225 539 q 271 549 260 546 q 289 554 282 553 q 335 565 313 557 q 372 576 343 569 q 419 593 401 583 l 453 606 q 501 625 458 606 q 509 629 503 626 q 520 634 515 632 q 528 639 525 636 l 535 643 q 557 642 546 649 q 569 624 568 635 q 557 603 571 614 q 540 595 554 601 q 526 588 526 589 q 506 580 525 588 q 460 560 486 572 q 429 551 458 560 q 403 540 422 549 q 367 531 394 536 q 351 525 363 529 q 333 521 340 521 q 288 508 317 518 q 245 499 272 504 q 200 486 218 494 q 185 457 194 476 q 171 426 175 438 q 157 394 167 419 q 142 357 147 368 q 123 306 138 347 q 107 256 108 265 q 88 158 90 182 q 108 88 83 104 q 119 81 111 85 q 136 75 121 79 q 145 74 139 75 q 154 74 151 74 l 163 74 q 236 90 183 68 q 307 126 269 103 q 363 161 339 146 q 413 191 410 193 q 422 192 415 189 q 432 194 429 196 q 435 189 435 193 q 438 182 435 185 q 448 188 438 181 q 463 192 458 196 q 456 178 464 190 q 431 148 447 165 q 396 115 414 131 q 311 57 346 74 q 257 33 293 47 q 215 18 236 25 q 142 7 172 6 q 99 15 124 6 q 75 29 86 22 q 56 50 72 32 q 36 81 50 53 q 24 126 24 111 q 33 224 19 157 q 38 245 35 228 q 45 277 42 263 q 53 301 49 292 q 93 407 67 346 q 121 472 104 439 q 90 467 100 468 q 61 462 81 464 q 33 464 42 460 q 30 467 33 467 q 25 471 26 468 q 26 475 25 474 q 26 479 26 476 q 22 481 26 479 q 15 486 17 482 q 19 489 15 488 q 31 492 24 490 q 46 497 38 494 q 63 501 54 500 q 78 505 71 503 q 90 508 85 507 q 96 508 94 508 q 112 511 96 508 q 143 518 128 514 q 181 600 167 564 q 192 628 183 610 q 210 663 201 647 l 218 678 q 235 709 224 688 q 258 758 246 731 q 272 789 271 786 q 287 817 272 790 q 304 854 301 844 q 313 869 307 858 l 293 867 q 256 860 285 867 q 217 850 226 853 q 208 848 215 850 q 194 844 201 846 q 178 840 188 842 q 165 839 169 839 q 158 840 160 839 q 153 842 157 842 q 149 844 150 842 q 148 848 147 846 q 149 853 149 850 q 142 853 147 853 q 135 857 136 853 q 175 878 133 861 q 219 893 217 894 q 243 898 222 893 q 293 913 264 903 q 326 918 296 914 q 357 926 335 919 q 397 932 361 928 q 413 935 400 932 q 433 939 426 939 q 485 946 447 939 q 533 951 503 949 q 583 957 563 953 q 597 959 588 958 q 615 960 607 960 l 624 960 q 655 961 631 960 q 683 963 679 963 q 699 961 686 963 q 718 960 713 960 q 729 958 729 958 z "},"F":{"ha":678,"x_min":24,"x_max":854,"o":"m 840 939 q 851 908 854 926 q 849 892 851 907 q 847 887 847 890 q 844 882 846 883 q 841 875 843 878 q 839 871 839 872 l 838 869 q 817 853 829 856 q 800 856 806 850 q 800 893 783 867 q 804 900 800 894 q 807 907 807 906 l 807 908 l 807 908 q 801 911 807 908 q 788 915 794 914 q 728 922 764 922 q 707 924 722 922 q 685 925 692 925 q 646 922 678 926 q 617 922 635 922 q 593 922 599 922 q 572 919 588 921 q 547 915 556 917 q 482 906 519 915 q 478 905 481 906 q 475 904 476 904 q 469 882 475 893 q 440 825 456 857 q 427 803 436 818 q 408 766 418 788 q 383 708 397 744 q 354 657 383 708 q 333 608 342 626 q 331 603 333 607 q 329 599 329 600 q 351 603 336 600 q 369 606 367 606 q 416 612 388 610 q 464 618 444 614 l 503 619 q 531 619 508 619 q 560 619 554 619 q 577 616 564 618 q 594 614 590 614 l 604 613 q 622 594 621 607 q 614 574 624 582 q 593 568 604 565 q 563 574 571 575 q 494 575 521 578 q 480 574 492 574 q 463 575 468 575 q 435 569 451 574 q 414 567 428 568 q 397 567 400 567 q 381 564 393 567 q 364 561 369 561 q 315 553 344 560 q 303 550 313 551 q 300 546 303 549 q 288 519 297 540 q 274 489 279 499 q 231 408 240 428 q 197 342 224 392 q 158 257 169 293 q 149 233 156 249 q 138 206 143 218 l 132 194 q 105 133 122 182 q 88 69 88 83 q 82 22 82 46 q 83 5 82 14 q 84 -8 83 -4 q 83 -14 85 -11 q 83 -22 81 -17 q 85 -31 86 -26 q 80 -34 83 -33 q 74 -37 76 -35 q 82 -47 74 -39 q 88 -60 90 -54 q 83 -60 86 -60 q 72 -56 79 -60 q 56 -46 64 -53 q 25 18 29 -25 q 24 46 24 33 q 26 69 25 58 q 29 88 28 81 q 32 101 31 96 q 33 107 33 107 q 42 135 38 122 q 56 174 46 147 q 76 236 65 201 q 103 290 78 242 q 122 340 103 293 q 156 403 128 351 q 169 429 160 408 q 183 460 178 450 q 218 525 192 471 l 193 517 q 157 506 185 515 q 124 492 136 496 q 110 485 124 492 q 85 474 97 478 q 72 471 74 469 q 67 472 71 472 q 63 474 64 471 q 61 477 61 475 q 60 481 61 479 q 53 480 58 482 q 46 482 49 478 q 49 488 44 483 q 62 499 54 492 q 79 511 69 506 q 118 533 110 532 q 143 544 125 536 q 188 563 161 551 q 219 571 188 563 q 224 573 219 571 q 236 577 229 575 q 246 581 243 579 q 300 692 289 661 q 309 714 301 699 q 324 742 317 729 l 331 754 q 345 779 336 761 q 364 819 354 797 q 375 844 374 842 q 386 864 376 847 q 399 889 396 881 q 358 878 378 885 l 310 864 q 260 852 299 863 q 210 838 222 842 q 133 821 135 817 q 128 822 132 822 q 122 825 124 822 q 122 828 121 826 q 122 833 122 831 q 114 833 121 833 q 106 836 107 832 q 157 861 104 840 q 215 882 210 882 q 235 888 222 885 q 265 896 247 890 q 310 911 282 901 q 354 921 314 913 q 392 932 363 922 q 446 942 400 935 q 466 947 449 943 q 492 951 483 951 q 510 954 496 953 q 541 958 524 956 q 560 961 558 961 q 628 966 589 965 q 690 968 668 967 l 744 965 q 767 962 749 964 q 801 956 785 960 q 825 949 817 953 q 840 939 832 946 z "},"G":{"ha":550,"x_min":-111,"x_max":561,"o":"m 529 969 q 560 910 560 953 q 558 889 560 900 q 558 883 558 888 q 557 878 557 879 q 508 733 553 847 q 498 713 503 722 q 492 699 493 703 l 489 694 q 456 647 475 665 q 422 624 436 628 q 400 625 408 621 q 398 656 392 636 q 429 725 404 676 q 463 797 447 758 q 485 861 479 838 q 493 901 492 885 q 493 908 494 907 q 488 907 490 908 q 451 888 474 903 q 350 797 408 858 q 253 694 263 706 q 176 592 228 667 q 82 450 107 494 q 18 315 76 439 q -21 217 -3 271 q -43 115 -43 150 q -42 81 -44 93 q -39 75 -40 75 l -37 74 l -4 92 q 6 99 1 96 q 65 144 32 118 q 186 263 126 197 q 235 313 197 274 q 286 365 274 351 q 197 365 203 367 q 160 375 160 365 q 158 379 160 378 q 156 383 156 381 q 156 386 156 385 q 157 390 157 388 q 153 394 157 392 q 150 400 150 396 q 206 407 150 407 q 317 407 315 407 q 328 407 318 406 q 350 432 340 421 q 365 449 357 439 l 368 451 l 368 451 l 368 453 l 369 453 l 371 454 q 386 463 374 460 q 406 461 399 465 q 424 435 421 453 q 417 414 424 421 l 417 414 l 415 414 l 417 413 l 415 413 l 414 410 l 411 407 q 457 407 431 407 q 500 407 483 407 l 517 407 q 532 385 531 407 q 517 363 533 363 q 506 363 515 363 q 495 364 496 364 q 448 363 494 364 q 381 363 401 363 q 376 357 378 358 q 310 210 340 294 q 268 82 282 131 q 254 30 261 60 q 243 -15 247 0 q 236 -31 239 -29 q 229 -45 232 -31 q 224 -61 226 -60 q 217 -56 219 -62 q 211 -50 215 -50 q 208 -74 208 -49 q 208 -85 208 -78 q 208 -97 208 -93 q 206 -101 208 -101 q 197 -81 203 -103 q 193 -33 193 -58 q 214 99 196 21 q 256 238 229 163 q 219 204 235 218 q 125 113 135 121 q 57 56 92 81 q 18 31 39 42 q -4 18 4 22 l -10 15 q -14 13 -10 15 q -21 11 -18 11 q -42 7 -40 7 q -61 11 -49 7 q -100 54 -90 25 q -110 101 -108 75 q -99 182 -110 139 q -64 289 -86 231 q -18 394 -47 331 q 89 582 28 493 q 215 749 132 642 q 283 826 235 776 q 308 850 294 838 q 328 869 321 863 l 335 875 q 404 932 385 917 q 454 963 431 950 q 469 968 460 964 q 490 972 478 972 q 511 972 504 972 q 519 971 513 972 q 529 969 526 969 z "},"H":{"ha":753,"x_min":-33,"x_max":821,"o":"m 749 846 q 777 868 757 865 q 808 856 797 871 q 810 818 819 842 q 786 768 796 789 q 775 747 782 761 q 760 714 768 733 q 739 663 751 694 q 715 617 739 661 q 699 572 713 608 q 683 539 694 560 q 706 539 685 539 q 728 540 726 539 q 734 540 731 540 q 739 540 738 540 l 740 540 q 767 529 758 540 q 769 507 776 518 q 740 494 763 496 l 694 494 q 677 495 688 494 q 663 496 667 496 q 649 467 654 475 q 614 394 633 440 q 583 332 606 374 q 551 258 561 290 q 542 238 549 251 q 531 214 536 225 l 525 204 q 465 96 513 188 q 452 72 463 90 q 428 37 442 54 q 410 21 414 19 q 402 19 407 22 q 393 17 397 15 q 390 22 390 18 q 385 26 389 25 q 378 22 385 26 q 367 19 371 17 q 377 51 364 21 q 406 112 390 81 q 421 144 421 143 q 432 164 424 150 q 449 197 440 178 q 471 247 458 215 q 496 292 471 247 q 499 301 496 293 q 507 320 503 310 q 513 335 511 331 q 542 392 515 340 q 551 415 544 396 q 564 442 558 433 q 589 492 569 450 q 572 492 585 492 q 553 492 558 492 q 514 488 547 490 q 497 486 506 486 q 478 486 489 486 q 461 486 467 486 q 439 483 456 485 q 414 482 422 482 q 349 476 381 482 q 296 472 332 475 q 238 464 260 469 q 218 429 221 433 q 179 358 208 408 q 138 269 150 308 q 127 247 135 263 q 113 218 119 231 l 107 206 q 76 140 96 192 q 54 76 56 89 q 44 25 46 33 q 45 6 44 15 q 47 -7 46 -4 q 46 -14 47 -10 q 44 -21 42 -15 q 46 -31 47 -26 q 41 -33 44 -33 q 35 -36 38 -33 q 42 -47 33 -39 q 50 -60 51 -54 q 45 -60 49 -60 q 33 -56 42 -60 q 17 -44 24 -51 q -11 25 -11 -21 q -11 53 -12 39 q -8 78 -10 67 q -3 97 -6 89 q 0 111 -1 106 q 1 117 1 117 q 12 145 7 132 q 28 186 17 158 q 53 250 39 214 q 82 306 56 258 q 88 317 83 307 q 97 339 92 326 q 106 357 103 351 q 143 422 110 368 q 158 453 146 429 q 71 439 107 447 q -7 431 -6 426 q -12 433 -7 432 q -18 435 -17 433 q -18 440 -19 438 q -17 443 -17 442 q -24 444 -17 444 q -32 449 -31 444 q 22 468 -33 453 q 81 482 76 483 q 112 488 83 483 q 178 500 140 492 q 181 501 179 500 q 185 501 183 501 q 194 521 192 514 q 203 538 199 529 q 211 556 207 547 q 215 565 215 564 q 256 641 229 593 q 297 726 283 689 q 308 749 300 733 q 325 778 317 765 l 332 790 q 348 817 338 799 q 369 858 358 835 q 382 883 381 881 q 396 907 382 885 q 413 938 410 929 q 417 947 415 943 q 419 953 419 950 l 421 954 q 455 979 433 976 q 485 965 476 982 q 479 921 493 949 q 469 903 478 917 q 454 878 461 890 q 447 864 447 865 q 433 840 443 856 q 410 801 422 824 q 382 743 399 779 q 374 727 379 736 q 362 707 369 718 q 351 689 354 696 q 346 678 350 688 q 336 657 342 669 q 328 638 331 644 q 292 574 326 633 q 278 545 288 567 q 264 514 269 524 q 263 513 264 514 q 315 517 269 514 q 336 519 319 517 q 361 522 353 522 q 429 526 386 522 q 490 529 451 528 q 557 535 529 531 q 575 536 563 536 q 599 536 588 536 l 608 536 q 610 536 608 536 q 626 571 615 549 q 645 610 638 593 q 660 650 653 628 q 667 669 661 656 q 679 694 674 683 l 685 704 q 721 785 688 710 q 731 806 721 786 q 742 832 740 825 l 749 846 z "},"I":{"ha":431,"x_min":-185,"x_max":626,"o":"m 604 972 q 620 962 614 972 q 622 940 626 951 q 607 928 618 928 q 593 926 606 928 q 561 924 581 925 q 526 921 542 922 q 503 919 524 921 q 479 915 483 917 q 443 911 469 914 q 439 889 444 899 q 414 833 417 839 q 403 810 411 825 q 387 774 396 796 q 365 718 378 753 q 339 668 364 717 q 335 658 339 667 q 328 637 332 649 q 322 619 324 625 q 292 558 319 613 q 282 533 290 554 q 268 503 274 513 q 232 425 253 476 q 199 356 222 401 q 165 276 176 311 q 156 254 163 269 q 143 228 149 239 l 136 217 q 81 111 126 201 q 133 117 96 114 q 162 119 147 118 q 183 119 176 119 q 193 121 190 119 q 200 121 200 121 q 213 110 208 121 q 215 88 218 99 q 200 76 211 76 q 178 76 186 76 q 90 67 115 74 q 53 61 78 64 q 15 15 24 13 q 8 14 13 18 q -1 11 3 10 q -5 15 -4 13 q -10 21 -6 18 q -17 15 -11 21 q -29 13 -24 8 q -15 53 -32 14 q -53 43 -39 50 q -90 35 -56 42 q -126 29 -125 29 q -167 28 -164 19 q -169 31 -167 31 q -174 35 -172 32 q -174 38 -174 36 q -174 42 -174 40 q -178 44 -174 43 q -183 49 -182 44 q -158 62 -183 53 q -128 71 -132 71 q -12 96 -36 93 q -3 98 -11 96 q 7 100 4 100 q 31 147 31 147 q 42 169 33 154 q 60 205 51 185 q 83 260 69 225 q 110 310 83 260 q 128 357 110 313 q 158 418 131 364 q 169 444 161 424 q 182 474 176 464 q 218 550 200 504 q 250 619 228 574 q 283 700 272 665 l 310 761 q 349 849 313 765 q 359 871 349 850 q 371 900 369 892 q 372 903 371 901 q 319 896 354 900 q 258 888 285 892 q 228 883 231 885 q 183 885 186 876 q 181 888 183 888 q 176 892 178 889 q 177 895 176 893 q 176 900 178 897 q 172 901 176 900 q 167 907 168 903 q 197 918 167 911 q 232 925 226 925 q 333 943 332 942 q 390 950 367 950 q 529 967 417 949 q 604 972 604 972 z "},"J":{"ha":508,"x_min":-99,"x_max":693,"o":"m 685 928 q 689 924 685 926 q 692 917 693 921 q 651 919 692 917 q 633 920 643 919 q 616 922 622 921 q 610 922 610 922 q 596 924 606 922 q 574 924 586 925 q 540 922 561 924 q 526 921 536 921 q 528 883 532 906 q 506 813 519 846 q 488 762 503 800 q 456 668 474 724 q 426 606 451 657 q 421 593 425 603 q 411 569 417 583 q 403 547 406 554 q 363 475 396 531 q 348 445 360 469 q 328 410 336 421 q 272 322 289 349 q 213 238 250 285 q 157 158 176 190 q 126 121 150 147 q 115 109 121 115 q 106 100 108 103 l 103 97 q 79 76 100 94 q 43 46 58 58 q 0 18 24 31 q -26 8 -17 10 q -49 7 -31 7 q -56 9 -53 8 q -60 10 -58 10 q -62 11 -61 11 q -92 39 -79 14 q -97 72 -99 53 q -94 97 -97 82 q -86 126 -92 113 q -76 146 -81 139 q -69 153 -72 153 q -61 158 -65 151 q -53 163 -57 164 q -49 159 -50 163 q -44 154 -47 156 q -37 164 -43 154 q -25 174 -31 174 q -35 110 -22 171 q -39 71 -42 82 q -36 69 -37 68 q -35 69 -35 69 q 1 90 -18 76 q 67 158 31 114 q 88 181 72 164 q 111 206 104 199 q 146 256 117 213 q 172 290 154 268 q 194 319 189 313 q 212 348 199 326 q 232 379 225 369 q 258 421 238 386 q 285 467 279 456 q 316 522 297 489 q 347 581 335 556 q 371 639 360 607 q 381 665 374 647 q 394 697 389 683 l 401 711 q 439 818 413 731 q 445 836 440 822 q 453 862 450 850 q 457 882 457 874 l 463 900 q 468 915 464 907 q 443 914 443 914 q 427 910 439 913 q 410 907 415 908 q 363 899 378 904 q 333 892 350 896 q 302 885 315 889 q 275 874 289 881 q 263 868 271 871 q 247 863 254 865 l 240 860 q 192 839 233 860 q 180 833 192 839 q 165 824 168 826 q 158 818 158 818 q 136 817 149 811 q 122 833 124 822 q 133 856 121 844 q 143 863 136 858 q 158 870 150 867 q 165 874 165 874 q 190 885 172 878 q 233 906 208 893 q 265 915 236 907 q 276 920 265 915 q 292 926 288 925 q 332 935 306 931 q 347 940 335 936 q 365 944 360 943 q 392 949 369 944 q 415 953 414 953 q 462 958 433 956 q 510 965 490 960 l 549 967 q 588 965 554 967 q 626 961 621 963 q 659 956 633 963 q 683 943 685 949 q 686 939 683 942 q 689 933 689 936 q 687 931 689 932 q 685 928 685 929 z "},"K":{"ha":476,"x_min":-169,"x_max":589,"o":"m 519 861 q 548 874 531 874 q 576 859 565 874 q 578 825 588 844 q 569 814 575 822 q 558 797 564 806 q 551 788 551 788 q 540 772 547 782 q 522 748 532 763 q 497 710 511 733 q 468 678 493 704 q 447 647 468 676 q 411 610 439 638 q 398 594 408 607 q 382 576 388 581 q 335 531 374 569 q 290 490 319 514 q 244 447 261 467 l 207 415 q 160 386 197 411 q 122 360 124 361 q 107 350 119 358 q 108 347 107 350 q 111 343 110 344 q 116 331 113 339 q 121 319 119 322 q 133 300 122 315 q 142 285 138 294 q 147 272 146 275 q 154 262 149 269 q 163 250 160 254 q 182 217 169 231 q 200 190 186 211 q 226 158 214 169 q 246 135 246 135 q 262 112 247 129 q 282 89 276 94 q 308 50 313 56 q 308 46 307 49 q 307 40 310 43 q 305 38 307 39 q 301 36 303 38 q 302 32 300 36 q 301 24 304 28 q 272 43 299 21 q 246 68 246 65 q 234 82 246 68 q 206 113 222 96 q 190 133 203 115 q 188 138 190 135 q 181 145 185 140 q 174 151 176 150 q 157 178 171 154 q 149 189 156 181 q 140 201 143 197 q 119 236 135 214 q 101 268 111 247 q 81 303 92 289 l 67 331 q 67 332 67 332 q 60 331 64 331 q 39 282 49 307 l 8 221 q -61 101 -11 197 q -92 49 -69 85 q -122 17 -115 14 q -130 15 -125 19 q -139 11 -135 10 q -143 16 -142 13 q -147 21 -144 19 q -156 15 -149 22 q -167 13 -162 8 q -164 28 -169 14 q -149 63 -158 42 q -129 103 -139 83 q -111 138 -119 122 q -103 153 -103 153 q -90 175 -99 160 q -70 211 -81 190 q -43 268 -60 232 q -15 318 -43 268 q -10 328 -14 319 q -1 349 -7 338 q 6 367 4 361 q 40 428 8 369 q 52 454 43 433 q 67 485 61 475 q 107 564 86 517 q 140 632 115 583 q 176 717 165 681 l 203 779 q 240 869 208 788 q 249 893 240 871 q 260 924 258 915 q 262 932 261 928 q 264 938 263 936 l 264 939 q 290 968 271 961 q 324 962 310 975 q 329 919 338 949 q 317 886 326 913 q 307 858 307 860 q 290 820 304 854 q 258 736 275 786 q 232 683 254 726 q 214 635 228 674 q 182 571 211 626 q 170 544 179 565 q 156 514 161 524 q 115 435 142 492 q 113 429 114 432 q 111 425 111 426 q 175 475 142 444 q 207 500 175 475 q 213 505 208 500 q 224 517 218 510 q 233 526 231 524 q 253 544 240 533 q 270 558 267 554 q 285 572 274 561 q 301 589 296 583 q 324 610 306 593 q 346 632 342 628 q 381 669 353 640 q 421 724 408 699 q 431 737 424 728 q 444 754 439 746 l 451 761 q 492 817 460 768 q 499 827 493 819 q 508 841 504 835 q 514 851 513 847 l 519 861 z "},"L":{"ha":465,"x_min":-101,"x_max":396,"o":"m 364 257 q 377 263 365 257 q 393 264 389 268 q 369 238 394 261 q 310 190 343 214 q 217 125 257 150 q 53 31 151 86 q 15 14 44 25 q 3 11 11 14 q -10 7 -6 8 q -25 5 -15 6 q -46 4 -35 4 q -65 8 -49 6 l -68 8 q -71 11 -68 10 q -79 15 -74 13 q -92 31 -83 19 q -95 40 -93 33 q -99 50 -97 47 q -100 72 -99 51 q -100 97 -100 74 q -72 199 -96 131 q -61 236 -71 203 q -44 285 -51 269 q -22 343 -42 292 q 3 404 -1 394 q 48 513 18 446 q 94 629 78 579 l 133 718 q 152 756 140 731 q 176 813 164 782 q 192 849 189 844 q 207 882 192 850 q 225 925 222 914 q 231 936 228 931 q 235 944 233 942 l 235 946 q 272 987 249 978 q 303 977 294 996 q 297 919 311 958 q 260 838 276 874 q 243 804 254 826 q 219 751 232 782 q 185 669 206 719 q 176 647 182 660 q 163 619 171 635 q 150 593 154 603 q 124 524 139 565 q 83 432 121 518 q 68 394 79 424 q 51 350 57 364 q 28 292 46 339 q 6 232 10 244 q -29 119 -29 119 q -36 71 -36 92 l -33 68 l -32 69 q -31 70 -33 69 q -24 72 -29 71 q -17 75 -19 74 q -1 81 -11 76 q 11 86 8 85 q 28 94 19 90 q 42 100 38 97 l 46 101 q 130 144 65 107 q 213 196 194 181 q 247 218 214 196 q 309 256 281 240 q 340 268 338 272 q 351 270 343 267 q 363 271 360 274 q 364 265 365 268 q 364 257 363 261 z "},"M":{"ha":824,"x_min":-115,"x_max":868,"o":"m 865 818 q 867 799 867 811 q 865 783 865 788 q 861 753 864 765 q 832 622 854 701 q 771 431 817 572 q 701 238 760 392 q 636 85 643 83 q 623 65 632 85 q 610 44 614 44 q 607 47 607 43 q 607 56 607 51 q 604 63 607 61 q 596 48 601 64 q 583 17 590 32 q 572 4 576 3 q 651 267 563 11 q 740 533 731 492 q 778 654 769 624 q 797 736 789 694 q 801 808 810 807 q 736 751 794 811 q 596 600 658 674 q 481 453 569 571 q 406 353 439 397 q 368 304 382 322 l 358 292 l 356 288 q 342 275 350 279 q 303 276 322 265 q 282 311 282 288 q 283 320 282 317 q 284 325 283 324 q 285 327 285 326 q 286 329 286 328 l 290 344 q 349 557 310 403 q 369 704 369 649 q 364 740 369 729 q 361 742 364 744 l 343 729 q 326 714 333 719 q 286 663 306 688 q 246 608 267 639 q 215 564 225 578 q 181 513 206 550 q 153 469 157 475 q 7 210 74 343 q -8 185 3 204 q -24 154 -18 165 q -43 118 -33 136 l -44 114 l -46 111 q -62 97 -51 101 q -100 103 -83 89 q -112 121 -108 108 q -111 142 -115 133 q -97 174 -100 167 l -57 267 q 26 447 -37 307 q 92 592 90 588 q 118 647 97 603 q 156 725 139 690 q 179 781 172 760 l 204 836 q 255 929 231 896 q 293 961 279 963 q 303 944 301 960 q 296 892 306 928 q 265 808 286 857 q 186 636 250 771 q 189 640 188 638 q 192 644 190 643 q 257 732 242 713 q 301 779 283 764 q 333 801 318 794 q 385 806 365 813 q 417 778 406 796 q 432 728 428 760 q 426 622 436 689 q 392 460 418 569 q 383 432 389 449 q 469 541 411 467 q 563 661 528 615 q 661 772 604 714 q 697 808 678 790 q 726 835 717 825 l 738 843 q 744 849 739 844 q 756 856 750 853 q 762 860 757 857 q 772 867 767 864 q 787 873 778 869 q 804 877 796 876 q 824 876 813 878 q 851 858 842 868 q 865 818 863 842 z "},"N":{"ha":575,"x_min":-122,"x_max":679,"o":"m 646 793 q 660 813 647 793 q 676 828 672 832 q 670 805 679 826 q 640 732 661 783 q 606 651 618 681 q 572 567 590 613 q 542 496 553 522 q 529 468 531 469 q 397 167 471 332 q 392 155 396 163 q 386 143 388 147 q 379 131 386 143 q 373 120 378 129 q 365 107 368 111 q 332 64 344 75 q 297 51 321 56 q 269 68 278 57 q 260 92 263 83 q 251 156 254 113 q 250 238 250 192 q 261 417 250 276 q 263 489 261 432 q 268 574 265 546 q 275 685 271 596 q 278 796 279 774 q 278 819 278 799 q 278 852 279 839 q 275 867 278 865 q 243 811 272 867 q 185 675 214 750 q 163 617 179 657 q 132 546 146 576 l 119 515 q 29 281 100 476 q 13 241 25 272 q -10 184 0 210 q -22 143 -19 158 l -37 103 q -66 45 -50 68 q -94 17 -82 22 q -113 20 -106 13 q -118 56 -121 28 q -101 126 -115 85 q -44 275 -82 178 q -19 337 -35 299 q 18 433 -4 375 q 74 581 40 490 q 133 717 83 608 q 144 742 133 717 q 166 795 154 767 q 186 840 178 824 q 201 871 189 847 l 210 886 q 222 908 210 886 q 239 933 231 922 q 258 953 253 950 l 268 961 q 272 962 269 961 q 276 963 275 963 q 297 965 279 964 q 333 922 322 957 q 342 861 339 903 q 343 819 343 833 q 342 736 344 772 q 336 621 342 721 q 331 511 331 521 q 326 435 329 472 q 321 357 324 397 q 317 296 318 317 q 314 157 310 158 l 356 235 q 424 378 374 264 q 497 549 474 492 q 559 685 511 585 q 615 783 607 786 q 627 796 618 783 q 640 808 636 808 q 643 802 643 808 q 646 793 643 796 z "},"O":{"ha":472,"x_min":-67,"x_max":525,"o":"m 490 826 q 500 750 499 796 q 500 686 503 710 q 486 589 497 646 q 432 411 464 494 q 375 300 417 371 q 317 201 336 229 q 215 85 276 140 q 96 6 146 19 q 86 3 93 4 q 70 0 79 1 q 50 -1 61 -1 q -24 29 6 0 q -47 63 -37 44 q -58 94 -56 82 q -63 121 -61 106 q -65 136 -65 136 q -67 166 -67 151 q -66 191 -67 181 q -63 217 -65 201 q -60 240 -61 233 q -56 263 -60 246 q -51 283 -51 279 q -45 305 -50 286 q -40 324 -40 324 q 19 494 -21 388 q 57 574 31 526 l 86 626 q 105 653 90 631 q 138 701 119 675 q 172 749 156 726 q 268 858 225 818 q 364 935 301 896 q 408 958 385 947 q 447 972 432 968 q 463 973 461 976 q 477 972 464 969 q 493 969 490 974 q 490 963 494 967 q 488 956 486 960 q 506 956 488 956 q 525 951 525 957 q 506 944 525 950 q 453 922 486 938 q 393 886 419 907 q 364 863 379 875 q 336 840 349 850 q 313 817 324 829 q 294 798 301 806 q 282 785 288 790 q 276 779 276 779 q 218 710 240 738 q 128 561 169 644 q 112 532 124 553 q 90 491 100 511 q 72 454 81 471 q 38 353 60 432 q 1 215 8 256 q -1 158 -3 193 q 7 101 0 124 q 44 64 19 65 q 113 85 69 58 q 235 200 171 124 q 325 343 290 268 q 340 374 326 347 q 361 418 354 401 q 372 444 367 431 q 381 464 378 457 l 383 471 q 417 568 401 507 q 432 664 425 600 q 431 778 442 743 l 425 810 q 424 900 406 883 q 442 901 431 903 q 467 878 453 899 q 490 826 481 858 z "},"P":{"ha":417,"x_min":-143,"x_max":525,"o":"m 522 801 q 517 736 525 776 q 512 719 517 736 q 501 692 507 703 q 494 675 499 683 q 485 660 489 667 q 479 651 481 653 q 446 606 463 624 q 403 564 429 588 q 364 526 376 540 q 345 511 358 521 q 321 493 332 501 l 310 486 q 190 421 221 432 q 140 400 163 408 q 96 390 108 390 q 50 279 58 306 q 42 256 49 271 q 29 228 35 240 l 22 217 q -37 94 10 196 q -65 42 -43 79 q -94 7 -87 4 q -102 3 -97 8 q -111 0 -107 -1 q -115 5 -114 1 q -119 10 -117 8 q -127 3 -121 10 q -139 0 -133 -3 q -128 35 -142 1 q -99 106 -115 69 q -83 142 -83 142 q -71 165 -79 149 q -53 201 -62 181 q -32 258 -44 222 q -25 274 -29 265 q -15 293 -21 282 q -7 311 -10 304 q 11 360 3 336 q 40 424 14 367 q 50 450 43 429 q 63 481 57 471 q 97 561 81 513 q 127 632 106 583 q 157 717 149 681 q 165 740 160 725 q 176 768 171 756 l 182 781 q 215 872 186 788 q 224 893 217 876 l 221 892 q 185 894 199 886 q 177 915 171 901 q 210 936 183 928 q 240 942 217 938 q 275 972 250 969 q 306 950 300 974 q 310 950 307 950 q 317 950 314 950 q 404 946 365 951 q 463 919 438 940 q 483 904 467 919 q 504 878 500 889 q 514 858 511 865 l 518 840 q 522 801 522 826 m 478 765 q 479 806 481 782 q 475 839 479 810 q 433 888 463 875 q 416 895 429 890 q 392 903 403 900 q 379 906 381 907 q 299 906 360 914 q 292 888 296 899 q 286 870 289 878 q 282 861 283 863 q 272 838 279 853 q 258 800 265 822 q 239 740 250 778 q 233 726 236 735 q 224 705 229 717 q 215 688 218 693 q 199 638 207 660 q 171 574 196 626 q 162 547 169 568 q 149 515 154 525 q 114 435 133 486 q 113 432 114 433 q 113 431 113 431 q 128 436 119 433 q 194 468 151 446 q 212 477 200 471 q 232 488 224 483 q 258 503 240 492 q 297 532 275 515 q 342 564 335 558 q 378 599 365 586 q 424 646 421 643 q 454 693 424 647 q 469 726 464 710 q 478 765 475 742 z "},"Q":{"ha":543,"x_min":-60,"x_max":583,"o":"m 581 801 q 581 733 583 763 q 567 632 579 699 q 515 444 544 525 q 458 324 501 403 q 399 218 432 268 q 292 94 356 153 q 289 91 292 93 q 285 88 286 89 q 290 71 286 79 q 293 61 292 68 q 294 49 294 54 l 294 43 q 304 -11 293 26 q 306 -54 314 -51 q 302 -57 303 -54 q 299 -61 301 -60 q 296 -61 297 -61 q 292 -61 294 -61 q 290 -65 290 -61 q 285 -71 289 -69 q 272 -43 281 -72 q 263 -11 263 -14 q 260 0 261 -7 q 257 17 260 7 q 250 42 254 26 q 247 57 249 46 q 164 13 201 22 q 156 10 163 13 q 139 7 149 8 q 119 6 129 6 q 46 21 86 1 q -8 63 14 36 q -37 107 -31 90 q -58 221 -60 154 q -46 314 -58 256 q 17 496 -28 388 q 60 579 31 531 q 76 605 68 592 q 89 625 85 618 l 94 632 q 115 660 96 635 q 153 710 133 685 q 193 757 172 735 q 301 867 254 828 q 404 940 342 906 q 453 965 428 954 q 493 978 478 975 q 510 979 508 982 q 525 978 511 976 q 542 976 539 981 q 538 970 543 974 q 535 963 533 967 q 555 964 535 963 q 575 958 575 965 q 539 944 575 957 q 569 882 558 922 q 581 801 578 851 m 513 710 q 511 832 522 793 q 507 857 508 847 l 504 865 q 493 926 494 904 q 432 892 458 910 q 394 864 414 879 q 358 835 374 849 q 331 811 343 822 q 310 792 318 800 q 303 783 303 785 q 236 715 260 742 q 131 564 178 644 q 113 534 126 556 q 88 492 100 513 q 68 454 76 471 q 50 407 64 444 q 31 349 36 369 q 6 206 6 254 q 17 149 6 181 q 44 101 28 118 q 69 82 51 93 q 108 69 88 71 q 186 93 143 67 q 236 131 210 108 q 235 142 233 138 q 231 178 235 154 q 229 212 229 190 q 225 247 229 233 q 224 258 224 251 q 224 271 224 265 l 224 276 q 224 289 225 283 q 223 305 224 294 q 222 317 222 315 q 224 330 222 318 q 224 342 225 342 q 224 349 224 349 q 235 363 224 358 q 257 363 246 368 q 268 347 268 358 q 267 322 268 331 q 268 271 267 281 q 269 259 269 269 q 268 247 268 249 q 271 226 269 242 q 272 213 272 226 q 272 197 272 199 q 274 187 272 196 q 275 172 275 178 q 275 168 275 172 q 315 214 297 192 q 408 367 371 285 q 423 401 410 372 q 443 447 436 431 q 456 475 450 461 q 463 496 461 489 l 465 503 q 497 608 482 538 q 513 710 506 643 z "},"R":{"ha":504,"x_min":-143,"x_max":558,"o":"m 535 868 q 549 767 558 822 q 544 728 549 760 q 532 681 539 697 q 481 578 521 643 q 454 538 478 572 q 422 496 435 511 q 403 476 421 494 q 372 444 386 457 q 352 424 364 435 q 331 406 340 414 q 319 396 321 397 q 206 318 260 347 q 82 261 153 289 q 38 249 65 254 q 31 231 33 239 q 83 197 47 221 q 120 174 99 188 q 155 151 142 160 q 174 140 168 143 q 255 87 201 122 q 307 46 308 51 q 313 38 306 44 q 319 29 319 32 q 315 27 319 26 q 310 26 311 28 q 319 16 308 25 q 328 4 331 7 q 118 126 324 -1 q 88 146 107 133 q 60 164 68 158 q 40 176 54 167 q 15 192 25 185 q 11 194 15 192 q -37 94 -10 154 q -65 42 -43 79 q -94 7 -87 4 q -102 3 -97 8 q -111 0 -107 -1 q -115 5 -114 1 q -119 10 -117 8 q -127 3 -121 10 q -139 0 -133 -3 q -128 35 -142 1 q -99 106 -115 69 q -83 142 -83 142 q -72 163 -79 149 q -56 197 -64 178 q -37 244 -47 215 q -25 272 -37 260 q -16 292 -22 279 q -7 311 -10 304 q 11 360 3 336 q 40 424 14 367 q 50 450 43 429 q 63 481 57 471 q 97 561 81 513 q 127 632 106 583 q 157 717 149 681 q 165 740 160 725 q 176 768 171 756 l 182 781 q 215 872 186 788 q 225 894 217 876 q 176 903 183 890 q 178 915 174 908 q 199 929 183 922 q 236 942 214 936 q 240 943 236 942 q 274 972 250 969 q 306 951 299 974 q 338 954 332 954 q 411 949 375 954 q 424 946 415 947 q 435 943 432 944 q 465 932 438 943 q 535 868 517 906 m 478 661 q 506 781 507 729 q 504 806 507 785 q 503 821 503 819 q 499 836 501 828 q 489 858 497 843 q 485 865 486 863 q 483 867 483 867 q 428 901 463 893 q 357 910 389 911 q 300 907 335 911 q 293 889 297 900 q 286 870 289 878 q 282 861 283 863 q 272 838 279 853 q 258 800 265 822 q 239 740 250 778 q 233 726 236 735 q 224 705 229 717 q 215 688 218 693 q 199 638 211 676 q 171 574 196 626 q 162 547 169 568 q 149 515 154 525 q 114 435 133 486 q 85 366 104 407 q 57 299 65 325 q 79 306 76 304 q 151 339 111 315 q 244 393 204 367 q 318 453 253 399 q 367 499 336 467 q 411 551 390 524 q 478 661 461 622 z "},"S":{"ha":531,"x_min":-121,"x_max":658,"o":"m 631 938 q 653 869 658 908 q 633 843 647 846 q 608 856 619 840 q 597 872 606 860 q 582 890 588 883 q 546 908 568 904 q 501 910 521 913 q 428 894 460 904 q 296 826 364 872 q 214 767 228 779 q 188 738 208 763 q 163 699 168 713 q 149 654 149 672 q 157 600 149 628 q 178 561 161 585 q 214 522 190 546 q 271 475 221 513 q 340 425 321 438 q 378 400 371 406 q 414 367 400 383 q 440 276 446 325 q 413 201 433 235 q 353 126 392 168 q 289 78 329 103 l 242 50 q 113 6 151 14 q 28 3 64 -4 q -25 17 0 7 q -64 38 -46 24 q -111 106 -103 64 q -96 181 -119 146 q -85 193 -90 188 q -77 201 -81 199 q -72 203 -74 203 q -60 208 -69 201 q -47 214 -50 215 q -46 207 -44 211 q -44 199 -47 203 q -31 207 -44 199 q -12 210 -17 215 q -15 205 -12 208 q -25 194 -18 201 q -37 179 -32 186 q -56 117 -65 144 q -6 74 -49 89 q 33 64 4 69 q 103 65 67 58 q 236 125 168 81 q 318 183 296 163 q 342 211 324 186 q 367 251 361 236 q 357 333 386 300 q 315 365 350 342 q 268 397 281 388 q 244 415 268 397 q 203 446 221 432 q 138 508 163 478 q 92 594 103 547 q 85 636 88 610 q 86 679 83 664 q 109 735 93 708 q 138 776 125 761 q 181 824 150 792 q 243 872 200 844 q 265 886 253 879 q 282 897 276 893 l 289 900 q 378 943 371 940 q 469 971 431 965 q 529 975 493 976 q 594 963 560 975 q 621 944 615 951 q 626 941 624 943 q 629 938 628 939 l 631 938 z "},"T":{"ha":381,"x_min":-97,"x_max":832,"o":"m 792 924 q 822 911 813 922 q 823 889 832 900 q 789 879 814 878 q 761 881 785 879 q 736 882 738 882 q 625 882 653 883 q 599 883 618 882 q 575 883 581 883 q 565 883 574 883 q 546 882 557 883 q 529 881 535 881 q 499 880 526 879 q 469 881 472 881 q 444 879 464 881 q 415 878 425 878 q 399 876 411 878 q 358 764 372 808 q 352 749 356 758 q 343 728 349 740 q 335 711 338 717 q 332 701 335 710 q 325 679 329 692 q 319 661 321 667 q 290 597 315 650 q 281 570 289 592 q 268 539 274 549 q 233 458 253 510 q 202 385 224 432 q 169 303 181 338 q 161 279 168 294 q 149 251 154 264 l 143 240 q 82 118 128 218 q 54 65 76 103 q 25 31 32 28 q 17 27 22 32 q 8 24 13 22 q 5 28 6 25 q 0 33 4 32 q -7 27 0 33 q -19 24 -14 21 q -9 59 -22 25 q 21 129 4 93 q 38 165 38 165 q 49 188 40 172 q 66 225 57 204 q 88 282 75 246 q 94 297 90 289 q 104 317 99 306 q 114 335 110 328 q 131 383 122 360 q 160 447 133 390 q 170 474 163 453 q 182 504 178 494 q 217 585 200 536 q 247 656 225 607 q 276 740 268 704 q 285 764 279 749 q 296 792 292 779 l 301 804 q 328 872 310 818 q 285 869 313 871 q 238 866 258 868 q 196 860 218 864 q 138 853 138 853 q 21 840 99 854 q -69 835 -67 826 q -75 837 -69 836 q -82 840 -81 838 q -81 844 -82 842 q -79 849 -79 846 q -87 849 -79 849 q -96 854 -96 850 q -33 871 -96 858 q 35 883 29 883 q 58 886 43 885 q 93 890 72 888 q 146 899 114 893 q 197 903 151 900 q 242 910 199 903 q 303 914 247 911 q 323 915 308 914 q 344 918 338 917 q 356 950 354 942 q 358 958 357 954 q 360 964 360 963 l 361 965 q 376 988 365 979 q 396 996 386 996 q 415 990 406 996 q 426 973 424 985 q 424 944 429 961 q 415 921 424 942 q 427 922 421 921 q 433 922 433 922 q 508 924 461 924 q 581 928 556 924 l 640 928 q 665 926 647 926 q 702 926 683 926 q 726 926 721 926 q 748 925 726 926 q 776 925 769 924 q 784 924 781 924 q 790 924 788 924 l 792 924 z "},"U":{"ha":554,"x_min":-15,"x_max":665,"o":"m 663 968 q 663 944 664 964 q 656 887 663 925 q 640 814 650 849 q 596 661 629 765 q 500 417 569 590 q 444 311 489 392 q 438 297 444 310 q 424 272 431 285 q 408 242 417 258 q 393 217 399 226 q 303 101 357 157 q 196 17 239 33 q 90 6 133 -6 q 26 38 54 14 q 0 81 13 53 q -8 186 -15 122 q 8 267 -4 224 q 58 431 14 290 q 76 477 63 444 q 101 533 90 510 l 113 558 q 159 653 125 579 q 200 739 193 728 q 225 788 203 746 q 254 843 247 829 l 269 874 q 299 915 283 899 q 327 933 315 932 q 346 926 339 933 q 349 895 353 918 q 329 842 344 872 q 271 732 285 760 q 247 686 264 718 q 209 613 229 654 q 160 500 189 571 q 136 444 154 485 q 114 394 118 404 q 83 296 100 360 q 54 165 57 197 q 57 115 51 144 q 76 81 63 92 q 97 69 76 81 q 115 65 104 68 q 125 65 117 65 q 136 67 133 65 q 203 96 175 71 q 313 213 253 135 q 394 354 360 278 l 453 475 q 508 601 475 514 q 553 726 536 669 q 586 831 557 738 q 595 858 590 842 q 603 883 600 874 q 609 903 606 893 q 615 917 613 913 q 618 921 617 921 q 626 932 622 921 q 635 944 631 943 q 639 940 638 944 q 644 933 640 935 q 651 951 646 933 q 663 968 656 969 z "},"V":{"ha":469,"x_min":14,"x_max":649,"o":"m 615 938 q 622 943 617 936 q 634 956 628 950 q 644 958 640 963 q 593 851 647 958 q 514 697 539 744 q 489 655 506 683 q 451 586 472 626 q 397 479 431 546 q 342 383 394 472 q 332 365 340 381 q 313 327 324 349 q 296 294 301 306 q 226 179 279 263 q 208 150 221 171 q 184 110 196 129 q 163 76 172 90 q 158 72 161 75 q 151 62 156 68 q 142 51 146 56 q 117 21 132 36 q 79 -1 96 1 q 60 -1 78 -3 q 44 10 49 6 q 32 25 40 13 q 25 44 28 32 q 18 81 19 65 q 17 96 17 90 q 26 263 14 153 q 46 422 42 369 q 53 469 47 436 q 64 526 58 501 l 69 551 q 90 649 75 574 q 110 738 106 725 q 124 790 113 749 q 139 847 136 832 q 144 863 142 856 q 147 875 146 871 l 147 878 q 177 931 158 913 q 208 943 196 949 q 213 858 235 932 q 179 746 189 792 q 167 699 178 736 q 149 621 157 663 q 129 507 140 579 q 119 453 126 492 q 108 399 111 414 q 97 300 104 379 q 89 238 94 281 q 82 169 83 194 q 82 115 81 150 q 83 103 82 114 q 83 86 83 92 q 83 85 83 86 q 86 83 85 85 q 132 150 111 115 q 187 238 150 179 q 246 336 224 297 q 292 426 268 375 l 354 540 q 482 768 392 596 q 540 869 499 800 q 588 935 581 938 q 598 942 590 933 q 610 950 606 951 q 613 945 613 950 q 615 938 613 940 z "},"W":{"ha":815,"x_min":-86,"x_max":947,"o":"m 944 932 q 939 900 947 931 q 914 820 931 869 q 879 722 897 771 q 793 511 833 600 q 738 396 776 475 q 714 349 735 392 q 670 267 693 307 q 617 178 647 226 q 564 114 592 142 q 525 81 544 93 q 467 61 494 61 q 461 61 465 61 q 453 61 457 61 q 431 68 444 64 q 408 83 418 76 q 389 107 390 103 q 356 203 367 140 q 349 308 349 246 q 356 408 350 350 l 354 417 l 354 415 l 353 414 q 203 208 328 381 q 101 82 149 133 q 49 31 72 50 q 15 8 33 18 q -43 0 -12 -8 l -58 11 q -65 19 -61 14 q -71 25 -69 25 q -79 43 -75 31 q -82 60 -82 54 q -82 111 -85 82 q -65 215 -79 154 q -31 329 -56 260 q -17 367 -25 347 q -7 396 -10 386 l -3 406 q 49 535 6 425 q 106 671 93 644 q 142 747 114 689 q 178 824 169 804 q 189 847 183 836 q 197 863 194 858 l 200 868 q 249 939 222 914 q 289 957 276 964 q 260 838 313 943 q 217 753 249 818 q 181 676 186 688 q 156 620 172 656 q 129 563 139 585 q 43 336 81 450 q -7 179 -4 190 q -18 121 -14 156 q -21 79 -21 97 q -19 74 -19 78 q -19 68 -19 71 q -18 64 -18 65 l -18 64 l -8 69 q 22 94 4 79 q 85 160 51 122 q 140 233 101 179 q 190 300 179 286 q 264 401 208 322 q 319 479 294 444 q 338 504 328 492 q 344 510 339 506 q 353 518 350 515 q 364 524 358 522 q 371 526 369 526 q 391 526 378 529 q 411 515 404 522 q 419 501 413 513 q 422 497 419 500 q 424 491 424 494 q 424 483 425 488 q 422 426 424 444 q 420 406 421 419 q 418 386 419 393 q 414 276 414 322 q 426 174 415 214 q 449 133 436 144 q 456 128 451 129 q 461 125 460 124 q 474 127 464 124 q 505 151 483 131 q 543 194 526 171 l 588 257 q 685 426 626 308 q 765 601 732 521 q 826 746 785 649 q 836 767 831 753 q 853 808 847 794 q 867 840 860 822 q 879 865 875 857 q 886 871 883 872 q 897 887 889 871 q 908 903 904 903 q 913 896 913 903 q 915 888 913 889 q 922 899 917 886 q 934 922 928 911 q 944 932 940 933 z "},"X":{"ha":621,"x_min":-132,"x_max":701,"o":"m 631 924 q 672 942 650 943 q 698 922 694 940 q 679 876 701 903 q 629 825 647 843 q 608 803 622 818 q 574 769 593 789 q 526 715 556 749 q 514 701 522 708 q 495 683 506 693 q 478 667 485 672 q 439 621 471 658 q 382 561 438 618 q 361 537 378 557 q 335 507 344 517 q 313 483 331 503 q 317 467 315 471 q 333 415 325 443 q 348 363 340 386 q 368 314 356 339 l 390 253 q 410 192 393 239 q 435 131 428 144 q 463 35 469 38 q 460 26 460 32 q 457 18 461 21 q 452 17 456 17 q 446 17 449 18 q 446 7 444 17 q 442 -6 447 -3 q 403 56 435 -7 q 369 128 371 119 q 360 151 365 136 q 346 189 354 167 q 321 244 338 211 q 304 299 321 244 q 285 346 304 301 q 267 413 279 361 q 263 426 265 417 q 222 379 246 406 q 179 331 197 353 q 143 281 161 308 q 127 257 139 272 q 106 229 115 242 l 96 218 q 47 158 83 207 q -1 93 10 110 q -7 85 -1 93 q -17 69 -12 76 q -31 51 -22 63 q -46 32 -39 40 q -60 15 -53 24 q -72 3 -67 7 q -78 0 -76 0 q -86 -2 -81 3 q -96 -6 -92 -7 q -99 -1 -99 -4 q -103 4 -100 3 q -112 -2 -104 6 q -125 -6 -119 -10 q -85 72 -131 -3 q -35 151 -40 147 q -6 188 -33 153 q 54 274 21 224 q 99 326 60 282 q 135 376 118 353 q 189 439 139 383 q 210 464 193 443 q 235 494 226 485 q 242 501 236 496 q 236 522 239 508 q 231 543 233 535 q 228 554 229 551 q 212 634 219 585 q 193 715 204 683 l 183 782 q 174 879 183 794 q 172 907 172 885 q 171 936 172 929 l 169 953 q 186 989 169 978 q 219 991 203 1000 q 238 956 236 982 q 238 937 238 951 q 238 910 238 922 q 239 896 238 899 q 240 872 239 888 q 242 833 240 856 q 253 775 244 810 q 256 747 254 767 q 258 719 257 726 q 260 710 258 718 q 266 689 263 701 q 271 671 269 676 q 277 636 274 658 q 282 606 281 614 q 288 583 283 599 q 294 558 293 567 q 306 571 303 568 q 369 640 326 597 q 436 718 411 683 q 456 740 442 725 q 481 765 469 754 l 492 775 q 515 799 500 782 q 549 836 531 815 q 571 860 568 857 q 592 881 571 861 q 617 908 613 901 l 631 924 z "},"Y":{"ha":450,"x_min":-212,"x_max":543,"o":"m 532 782 q 540 754 542 769 q 538 740 540 747 l 536 736 q 515 688 515 689 q 475 603 504 663 q 433 518 463 576 q 383 422 403 460 q 332 338 358 375 q 313 310 322 324 q 297 289 303 296 l 293 282 q 270 253 289 276 q 228 202 251 229 q 185 151 206 175 q 69 35 143 106 q -36 -50 31 -3 q -103 -93 -72 -75 q -137 -107 -135 -111 q -154 -111 -140 -106 q -171 -114 -168 -117 q -169 -106 -174 -111 q -168 -99 -165 -101 q -188 -106 -168 -97 q -210 -108 -208 -115 q -192 -93 -211 -107 q -135 -53 -172 -79 q -68 -3 -97 -26 q -33 25 -51 10 q -1 53 -15 40 q 26 78 13 65 q 48 99 39 90 q 63 113 57 107 q 69 119 69 119 q 93 143 79 129 q 118 169 107 157 q 142 194 129 181 q 261 354 199 258 q 336 469 332 463 q 388 569 350 492 q 336 508 347 521 q 185 364 261 422 q 93 314 131 325 q 58 310 74 308 q 15 328 33 310 q -4 371 -1 343 q -6 407 -7 388 q 22 510 -3 446 q 51 572 51 572 q 113 686 72 614 q 172 782 154 758 q 217 843 183 799 q 258 896 251 888 q 272 913 265 906 q 282 925 279 921 l 285 928 q 341 974 314 961 q 379 978 368 986 q 335 883 403 960 q 285 824 322 871 q 244 769 249 778 q 185 683 200 707 q 96 507 131 593 q 58 386 60 414 q 60 375 58 382 q 63 372 60 374 q 64 372 63 372 q 69 373 65 372 q 78 375 74 374 q 101 388 86 378 q 225 485 158 421 q 254 515 238 496 q 292 558 271 533 q 322 593 313 582 q 388 674 336 607 q 449 760 439 742 l 457 772 l 461 779 q 483 796 469 792 q 532 782 513 806 z "},"Z":{"ha":651,"x_min":-54,"x_max":560,"o":"m 519 189 q 538 197 521 188 q 557 201 554 206 q 541 184 558 199 q 492 149 524 169 q 428 114 460 128 q 279 57 364 83 q 193 35 249 47 q 126 21 150 25 q 17 10 53 8 l 10 10 q -1 13 6 11 q -24 19 -8 13 q -53 60 -51 33 q -50 88 -54 71 l -44 101 l -40 110 q -25 139 -33 125 q 26 232 -10 176 q 106 347 42 257 q 137 393 113 356 q 175 449 161 431 q 224 519 185 461 q 274 592 264 576 q 326 672 294 625 q 364 732 357 719 q 429 874 415 818 q 433 901 435 896 q 421 904 432 901 q 408 904 411 904 l 399 903 q 318 869 367 901 q 247 814 297 857 q 171 736 188 763 l 151 711 q 114 672 133 686 q 99 664 106 667 q 85 660 89 660 q 74 664 79 657 q 68 685 68 671 q 97 751 69 714 q 142 803 106 765 q 185 846 178 842 q 256 903 210 869 q 314 940 296 931 q 331 948 318 942 q 351 957 343 954 q 372 965 358 960 q 399 971 385 969 q 429 971 414 972 q 460 965 443 969 q 490 942 482 956 q 500 900 501 924 q 488 840 500 875 q 469 797 485 833 q 444 740 454 760 q 369 621 425 703 q 342 576 367 615 q 303 518 317 536 q 201 374 285 492 q 107 236 199 369 q 26 97 49 151 q 24 92 25 97 q 21 85 22 88 q 18 78 18 78 l 38 76 q 45 76 42 76 q 50 76 49 76 l 51 76 q 182 94 94 72 q 306 131 249 110 q 406 167 383 158 q 446 183 422 172 q 481 197 469 193 q 493 200 492 201 q 506 201 496 197 q 521 204 517 206 q 521 197 524 203 q 519 189 518 192 z "},"[":{"ha":474,"x_min":-146,"x_max":414,"o":"m -18 -126 q -31 -126 -26 -126 q -61 -122 -46 -126 q -135 -47 -119 -107 q -125 53 -146 -3 l -3 372 l 1 375 q 1 376 0 375 q 1 378 1 376 l 3 383 l 6 390 l 11 396 q 13 401 11 399 l 18 411 l 21 417 l 24 424 l 25 431 l 44 474 l 89 592 q 103 625 99 614 l 144 731 l 161 772 l 169 793 q 189 831 181 819 q 197 843 192 833 q 214 867 207 860 q 232 886 222 879 q 240 892 238 890 l 247 896 q 261 903 251 899 q 281 911 269 907 q 339 918 301 918 q 404 893 375 917 q 410 886 408 889 q 389 842 413 863 q 363 833 383 838 q 326 828 343 828 q 293 812 310 828 q 265 778 276 796 q 243 733 254 760 q 229 699 232 707 q 224 682 226 690 q 201 619 224 676 l 199 608 l 196 600 q 189 581 190 586 q 186 572 188 576 l 182 568 q 183 568 183 568 q 183 567 183 568 l 119 404 l 75 294 l 68 282 l 65 283 l 43 228 l 15 128 l 14 122 q 8 115 11 119 l -10 97 l -10 101 l -14 92 l -25 67 q -32 49 -31 54 q -37 26 -36 39 q -33 -4 -39 13 l -31 -14 l -35 -19 l -33 -22 l -35 -25 l -44 -39 l -47 -36 q -53 -32 -50 -35 l -54 -40 l -67 -28 q -69 -24 -68 -25 q -67 -32 -68 -28 q -60 -40 -65 -35 q -56 -46 -56 -44 l -56 -47 l -49 -51 q -43 -58 -43 -54 l -39 -61 l -35 -67 q -32 -67 -35 -67 q -26 -69 -29 -68 q -19 -71 -22 -69 q -6 -72 -14 -71 l 0 -72 l 6 -76 l 6 -85 l -3 -90 l -11 -93 q -19 -94 -15 -94 l -24 -93 q -29 -93 -25 -93 q -25 -96 -25 -96 q -3 -104 -7 -96 l 4 -103 q 21 -104 18 -104 q 31 -110 29 -107 l 29 -117 l 22 -124 l -18 -126 z "},"\\":{"ha":483,"x_min":149,"x_max":281,"o":"m 253 0 l 250 18 l 244 17 l 242 24 l 240 22 l 239 4 l 225 32 q 219 60 224 35 l 215 60 q 210 90 211 79 l 206 93 q 196 182 203 103 l 193 215 l 193 217 l 193 221 l 189 254 q 186 293 188 265 q 185 310 186 306 l 175 443 q 174 458 175 444 q 168 507 169 493 q 163 582 168 513 q 158 665 158 651 q 158 696 158 674 l 160 703 l 156 704 q 151 758 153 718 q 156 814 150 799 l 163 824 l 167 821 q 171 824 168 821 q 176 828 174 826 l 178 829 q 196 839 188 838 l 197 842 l 204 846 l 206 846 q 229 831 222 846 q 236 796 235 819 q 238 781 236 788 q 238 765 238 778 q 242 715 240 726 l 243 710 q 244 694 244 708 q 246 672 246 688 l 249 669 q 250 664 250 667 q 247 642 251 649 q 250 636 249 642 q 251 628 250 631 q 253 621 251 624 l 251 613 q 254 600 257 606 l 254 599 l 250 596 l 251 596 q 254 585 253 596 q 256 575 256 579 l 257 572 l 257 568 l 256 567 l 254 565 q 255 565 254 565 q 256 561 256 565 q 253 546 257 550 q 256 536 254 544 l 258 533 q 263 496 261 526 q 263 485 263 486 l 263 478 q 264 428 265 446 q 264 422 264 425 l 268 419 q 267 394 268 406 q 267 383 265 389 q 268 368 269 378 q 269 354 265 364 q 271 348 271 350 q 272 328 271 346 q 273 290 272 311 q 272 256 274 269 l 274 253 q 274 229 275 244 q 274 218 274 221 l 274 217 q 275 192 279 208 q 275 174 274 188 l 278 174 l 276 169 l 278 126 q 278 78 278 121 q 274 22 278 36 l 274 18 l 269 18 l 269 4 l 253 0 z "},"]":{"ha":557,"x_min":63,"x_max":636,"o":"m 146 -125 q 129 -126 138 -126 q 114 -125 121 -126 q 103 -124 108 -125 l 67 -118 l 63 -111 l 65 -103 q 78 -97 69 -99 q 81 -97 79 -97 q 96 -99 86 -97 l 106 -99 q 126 -94 110 -94 q 133 -93 131 -94 l 128 -93 q 121 -92 124 -92 l 115 -87 l 110 -81 l 113 -76 l 117 -72 l 124 -69 l 128 -69 q 139 -71 135 -71 q 161 -68 154 -71 l 168 -64 l 178 -61 q 185 -56 178 -58 l 194 -53 l 194 -51 q 204 -47 197 -50 q 217 -39 215 -40 q 219 -36 219 -37 l 199 -47 l 204 -39 q 197 -42 201 -40 l 192 -43 l 194 -25 l 197 -22 l 199 -19 l 200 -15 l 208 -8 q 235 21 226 7 q 247 43 243 33 q 254 61 249 49 l 263 86 l 265 94 l 263 90 l 260 111 q 260 118 258 114 l 261 124 l 313 224 l 332 276 l 331 282 l 332 290 l 372 400 l 436 564 l 438 565 q 438 568 438 567 q 440 577 438 572 q 449 594 443 582 l 454 606 l 458 615 q 485 678 481 672 q 517 814 531 779 q 499 828 511 826 q 466 836 482 829 q 449 849 450 843 q 463 893 442 872 q 472 900 464 896 q 543 915 508 915 q 550 915 547 915 q 603 901 585 913 q 615 890 611 896 q 624 882 621 886 l 628 878 q 631 869 629 875 q 633 850 635 864 q 632 825 635 842 q 629 813 629 817 q 619 775 629 801 l 613 753 l 596 711 l 554 606 q 543 572 550 593 l 497 454 l 481 411 l 479 406 l 475 397 l 474 392 l 471 382 q 468 375 471 379 l 469 369 l 468 365 l 464 358 q 463 355 464 357 q 463 353 463 353 l 338 33 q 271 -64 315 -22 q 146 -125 211 -117 z "},"_":{"ha":665,"x_min":40,"x_max":624,"o":"m 603 -118 q 544 -126 592 -126 q 525 -125 531 -126 l 515 -124 q 500 -125 506 -125 q 426 -126 486 -126 q 390 -125 393 -126 l 389 -125 q 358 -124 379 -125 q 347 -122 347 -122 l 257 -121 q 247 -121 247 -121 l 176 -117 q 108 -112 115 -114 l 104 -111 l 106 -107 q 88 -104 104 -107 l 63 -101 l 72 -96 q 67 -94 68 -96 l 58 -69 q 56 -69 57 -69 q 47 -65 49 -69 l 42 -54 l 64 -49 q 144 -42 76 -44 q 163 -40 158 -40 l 167 -46 l 168 -42 q 178 -42 176 -42 q 189 -39 181 -39 q 196 -40 193 -39 q 197 -40 196 -40 q 201 -40 199 -40 q 213 -39 208 -39 q 219 -40 217 -39 q 282 -36 238 -36 l 289 -39 q 300 -39 290 -39 q 344 -37 313 -39 q 369 -37 364 -37 l 375 -37 q 382 -37 376 -37 q 396 -36 390 -36 q 410 -39 406 -36 q 418 -42 414 -42 q 426 -39 419 -39 l 439 -39 q 457 -39 444 -39 q 475 -40 471 -40 q 481 -42 475 -40 q 488 -40 482 -42 q 496 -39 493 -39 q 531 -43 528 -40 l 535 -43 l 574 -43 l 578 -47 l 579 -43 l 592 -43 q 611 -47 604 -43 q 624 -68 624 -54 q 618 -79 624 -74 q 614 -94 618 -87 q 607 -107 610 -104 l 610 -112 l 603 -118 z "},"a":{"ha":563,"x_min":-51,"x_max":675,"o":"m 644 339 q 658 349 646 339 q 672 356 669 358 q 663 339 674 354 q 633 300 653 324 q 593 254 614 276 q 549 210 572 233 q 511 175 525 188 q 494 161 497 163 q 432 117 469 140 q 382 88 417 107 q 364 80 381 88 q 340 70 347 72 q 317 65 333 68 q 286 61 301 61 q 260 64 278 60 q 228 76 249 65 q 189 136 196 100 q 182 178 185 149 q 185 233 181 204 q 185 237 185 235 q 185 239 185 239 q 128 160 158 197 q 83 113 103 131 q 51 90 65 99 q -6 88 21 76 q -35 118 -28 99 q -33 204 -50 150 l -14 251 q 31 329 17 308 q 82 397 56 369 q 158 468 107 429 l 186 485 q 244 494 218 501 q 267 475 267 489 q 256 458 265 464 q 213 433 246 451 q 171 406 189 422 q 138 375 157 394 q 90 322 108 344 q 28 203 49 263 q 17 165 19 181 q 15 152 15 158 q 16 142 15 146 q 17 138 17 138 l 18 136 l 19 136 q 28 139 21 136 q 54 160 39 144 q 125 246 90 197 q 151 290 133 257 q 178 333 169 322 q 214 396 189 351 q 235 436 233 433 l 238 442 q 257 454 244 451 q 292 435 282 458 q 292 415 294 425 l 290 413 l 289 410 q 286 399 289 406 q 246 264 249 276 q 236 203 238 225 q 244 142 235 163 q 275 119 257 122 q 291 118 283 118 q 304 118 299 118 l 310 119 q 350 131 321 119 q 406 161 379 143 q 492 228 456 193 q 560 289 521 251 q 621 342 617 344 q 631 347 624 340 q 642 351 639 353 q 644 346 644 350 q 644 339 643 342 z "},"b":{"ha":369,"x_min":-64,"x_max":425,"o":"m 418 933 q 424 915 424 925 q 421 906 422 910 q 417 894 418 897 q 408 881 414 890 q 313 776 379 846 q 311 774 313 775 q 281 722 306 764 q 244 654 257 679 q 193 543 235 638 q 121 394 146 447 q 110 368 117 386 q 168 438 139 407 q 257 497 206 479 q 289 503 268 501 q 303 504 300 504 q 318 503 314 504 q 340 493 332 500 q 349 488 349 488 q 375 421 375 464 q 361 343 376 385 q 294 236 339 282 q 236 189 269 210 q 171 154 207 169 l 129 142 q 35 146 68 126 q 8 90 24 122 l 1 74 l -1 69 q -17 54 -6 58 q -56 67 -42 46 q -61 89 -62 76 q -60 94 -61 92 l -60 96 l -58 100 q -44 136 -53 117 q -7 231 -39 153 q 35 332 25 310 q 78 432 57 388 q 128 536 99 476 q 168 619 157 596 q 144 592 151 601 q 133 585 136 583 q 122 576 131 586 q 108 565 113 565 q 107 571 106 565 q 106 579 108 576 q 99 572 106 581 q 85 555 92 563 q 74 549 78 547 q 85 573 72 550 q 123 632 97 596 q 175 700 149 668 q 253 789 210 740 q 267 813 260 800 q 279 832 275 825 l 283 838 q 291 850 285 840 q 306 871 297 860 q 322 893 314 882 q 358 933 340 918 q 375 943 367 940 l 382 946 q 392 947 386 947 q 403 944 397 946 q 418 933 413 942 m 122 293 q 54 181 81 226 q 115 196 71 186 q 183 222 153 206 q 235 257 218 240 q 296 329 272 290 q 319 393 314 360 q 318 435 324 418 q 310 446 315 443 q 294 446 304 449 q 246 428 275 444 q 194 388 217 411 q 161 349 188 383 q 122 293 135 314 z "},"c":{"ha":528,"x_min":-7,"x_max":639,"o":"m 613 358 q 622 365 613 357 q 636 368 632 372 q 628 355 638 367 q 603 326 619 343 q 568 293 586 308 q 488 229 543 271 q 342 139 447 203 q 271 108 324 128 q 206 81 229 89 q 107 69 157 65 q 60 78 72 72 q 15 113 29 89 q -6 181 -4 147 q 6 249 -7 206 q 67 350 21 292 q 81 365 71 356 q 72 376 74 371 q 119 413 69 401 q 124 414 121 413 q 132 421 125 414 q 142 432 139 428 q 167 455 149 440 q 200 479 185 469 q 217 489 215 489 q 247 503 233 497 q 261 506 250 504 l 269 507 l 278 507 q 289 500 283 506 q 297 490 294 496 q 300 479 300 483 q 293 454 300 472 q 285 443 289 449 q 231 396 264 417 q 156 363 218 388 q 149 361 151 361 q 128 338 135 346 q 76 271 82 279 q 51 206 68 260 q 51 163 47 181 q 56 152 53 161 q 63 142 60 143 q 74 132 69 135 q 163 126 104 117 q 258 163 211 136 q 286 176 267 167 q 319 193 306 185 l 335 200 q 410 241 353 206 q 482 289 468 276 q 493 297 485 292 q 515 313 501 303 q 539 331 529 324 q 590 365 588 367 q 599 367 593 363 q 610 369 606 371 q 610 365 611 368 q 613 358 610 361 z "},"d":{"ha":499,"x_min":-14,"x_max":665,"o":"m 629 965 q 663 942 656 968 q 663 928 664 935 q 661 922 661 925 l 660 922 l 658 919 l 656 913 q 649 901 653 908 q 643 889 646 893 q 592 782 614 832 l 513 617 q 438 447 481 557 q 378 278 394 338 q 344 138 351 185 q 342 56 338 85 q 345 40 343 49 q 347 31 347 32 q 349 22 350 24 q 350 14 346 19 q 360 2 354 8 q 365 -6 365 -4 q 362 -8 365 -8 q 355 -7 358 -8 q 350 -8 351 -6 q 351 -10 349 -8 q 356 -15 353 -12 q 364 -19 360 -17 q 374 -22 368 -21 q 399 -33 400 -29 q 378 -33 399 -36 q 325 -7 349 -32 q 296 67 303 21 q 297 146 292 108 q 331 297 306 217 q 267 206 300 249 q 196 124 232 161 q 187 116 194 122 q 178 108 179 110 q 169 100 176 106 q 158 92 161 94 q 147 85 154 90 q 134 77 139 79 q 122 72 129 75 q 107 66 114 68 q 92 62 100 64 q 74 60 83 60 q 46 63 61 60 q 8 86 22 67 q -8 167 -12 114 q 4 224 -6 193 q 9 235 7 229 q 11 243 11 240 l 13 246 q 79 372 43 317 q 172 476 126 443 q 257 514 217 510 q 315 500 290 517 q 350 463 335 490 q 354 449 351 460 q 374 483 365 468 q 429 585 385 500 q 483 694 474 671 q 535 799 501 732 q 583 900 568 867 q 597 925 589 908 q 606 946 604 942 l 608 950 q 629 965 615 963 m 293 340 q 295 358 293 346 q 299 383 297 371 q 301 408 300 396 q 299 435 301 426 q 282 456 294 450 q 251 456 264 460 q 231 447 238 453 q 150 376 190 425 q 103 307 124 344 q 53 185 67 242 q 50 128 44 147 q 58 117 53 119 q 72 115 65 117 q 81 116 75 115 q 88 117 86 117 q 103 121 90 115 q 129 138 108 124 q 147 151 136 142 q 160 164 157 161 q 172 177 164 168 q 183 190 181 186 q 292 339 235 251 q 293 340 292 340 z "},"e":{"ha":447,"x_min":4,"x_max":560,"o":"m 533 342 q 543 347 533 340 q 557 350 553 354 q 549 338 558 349 q 524 309 540 326 q 489 276 507 292 q 404 214 474 263 q 253 133 332 172 q 176 111 226 122 q 147 106 175 111 q 101 101 110 100 q 72 107 82 103 q 44 121 56 111 q 10 174 19 138 q 6 221 4 193 q 17 268 8 249 q 42 324 31 303 q 76 375 54 346 q 156 460 108 422 q 200 492 176 478 q 229 506 214 500 q 249 510 246 510 q 278 508 257 513 q 281 508 279 508 q 286 507 283 507 q 293 501 288 506 q 301 495 299 497 q 306 490 304 493 q 310 481 308 486 q 313 475 311 476 q 315 463 314 474 q 314 447 315 453 q 308 426 310 429 q 293 401 300 408 q 290 397 292 399 q 288 393 289 394 l 288 392 q 238 340 243 344 q 183 300 214 318 q 110 265 157 283 q 97 262 103 264 q 89 260 92 260 l 86 260 q 71 257 83 258 q 63 225 64 238 q 83 161 54 172 q 172 167 117 147 q 219 183 175 168 l 251 194 q 331 231 276 201 q 403 275 371 251 q 413 282 403 275 q 436 298 424 289 q 460 314 449 307 q 511 348 508 350 q 520 350 514 346 q 529 353 526 354 q 531 348 532 351 q 533 342 531 344 m 150 381 q 108 326 142 374 q 142 340 138 338 q 186 368 168 356 q 251 440 229 400 q 257 457 257 456 q 256 457 257 457 q 240 453 250 457 q 213 435 228 446 q 150 381 172 404 z "},"f":{"ha":392,"x_min":-140,"x_max":507,"o":"m 500 396 q 488 372 507 392 q 450 339 468 353 q 301 274 392 293 q 133 288 200 254 q 129 290 132 288 q 126 292 126 292 q 138 228 135 263 q 139 125 142 183 q 128 39 138 101 q 93 -90 117 -25 q 51 -183 75 -140 q 10 -243 31 -219 q -29 -274 -11 -264 q -61 -282 -47 -282 q -99 -274 -79 -285 q -133 -231 -124 -261 q -139 -178 -140 -208 q -121 -82 -137 -139 q -103 -17 -119 -72 q -74 67 -86 38 q 11 257 -49 135 q 34 304 15 265 q 64 367 53 343 q 68 388 64 378 q 78 407 71 397 q 97 433 82 414 q 99 437 97 435 q 101 440 101 439 q 163 561 118 472 q 208 651 207 650 q 332 872 274 783 q 365 919 351 901 q 389 943 381 936 q 399 950 393 947 q 411 956 406 954 q 433 954 421 958 q 443 950 439 951 q 453 933 451 943 q 453 921 453 926 q 440 885 450 910 q 426 856 432 867 q 394 793 413 828 q 335 690 376 757 q 313 656 324 674 q 297 629 303 639 l 290 621 q 245 553 286 614 q 175 453 204 493 q 167 441 172 449 q 158 429 161 433 q 124 360 138 386 q 124 358 124 358 q 125 358 125 358 l 136 349 q 146 340 144 342 q 154 335 154 335 q 203 319 165 326 q 296 322 244 313 q 356 338 325 326 q 405 357 388 349 q 422 364 422 365 q 440 370 425 361 q 458 378 454 379 q 480 388 461 378 q 500 396 499 397 m 67 13 q 80 97 74 44 q 83 175 86 149 q 83 201 83 189 q 82 218 82 213 l 81 222 q 78 268 79 246 q 4 111 31 169 q -72 -115 -54 -24 q -81 -164 -78 -146 q -76 -215 -83 -199 q -62 -226 -72 -226 q -51 -221 -61 -226 q -13 -185 -36 -215 q 25 -117 10 -154 q 67 13 51 -60 z "},"g":{"ha":510,"x_min":-264,"x_max":649,"o":"m 596 353 q 621 364 596 353 q 647 369 646 375 q 589 331 649 368 q 533 296 579 325 q 458 250 486 267 q 260 126 294 149 q 215 99 253 122 q 165 4 185 38 q 152 -18 164 1 q 126 -62 140 -37 q 99 -108 113 -86 q 25 -222 63 -168 q -64 -332 -22 -289 q -112 -374 -93 -360 q -175 -401 -144 -397 q -250 -372 -222 -407 q -260 -353 -258 -357 q -264 -332 -262 -343 q -260 -294 -262 -304 q -190 -169 -244 -243 q -106 -78 -169 -137 q -76 -50 -92 -64 q -51 -29 -60 -36 l -43 -22 q 125 101 49 49 q 168 131 146 117 q 243 282 214 221 l 224 261 q 175 214 189 226 q 93 163 128 175 q 31 164 58 150 q 4 185 15 171 q -8 219 -8 211 q 0 264 -8 238 q 13 290 3 268 q 67 367 32 328 q 131 429 99 401 q 153 447 143 439 q 168 458 164 456 l 174 461 q 236 491 206 482 q 283 498 267 500 q 303 488 300 496 q 302 479 304 483 q 291 468 300 475 q 272 456 282 461 q 242 438 263 450 q 206 414 222 425 q 132 354 160 383 q 81 293 106 328 q 53 243 60 263 q 47 222 47 232 q 47 218 46 218 l 51 214 q 72 211 58 208 q 111 232 89 215 q 214 338 158 265 q 306 475 281 425 q 314 493 310 483 q 332 513 317 507 q 358 511 346 518 q 376 474 381 500 q 368 449 374 464 q 338 361 357 410 q 257 186 311 293 q 294 210 289 206 q 443 297 326 231 q 564 357 560 363 q 583 363 567 356 q 603 368 599 371 q 602 365 604 367 q 597 359 600 363 q 596 353 594 356 m 85 -25 q 118 35 101 3 q -43 -99 33 -26 q -161 -219 -126 -175 q -167 -228 -161 -219 q -180 -247 -172 -236 q -193 -271 -187 -258 q -207 -309 -203 -289 q -208 -335 -211 -329 q -192 -347 -206 -343 q -161 -339 -182 -350 q -89 -279 -129 -322 q 18 -133 -64 -253 q 85 -25 47 -92 z "},"h":{"ha":463,"x_min":-42,"x_max":532,"o":"m 525 346 q 531 330 531 342 q 518 292 531 318 q 481 232 506 265 q 421 157 453 193 q 358 97 381 111 q 290 67 321 69 q 244 78 267 65 q 213 118 221 90 q 232 225 203 156 q 301 356 233 226 q 332 419 326 404 q 336 447 339 439 q 328 453 335 453 q 323 453 328 454 q 308 447 318 451 q 289 436 299 443 q 231 382 264 418 q 111 231 165 310 q 25 83 76 181 q 11 60 15 64 q -15 51 0 50 q -37 65 -29 53 q -41 77 -40 69 q -40 90 -42 85 l -40 96 q -37 103 -39 97 q -35 111 -36 108 q -6 183 -22 144 q 46 300 8 215 q 146 499 93 399 q 96 469 100 465 q 78 465 94 472 q 60 460 63 457 q 59 463 57 461 q 64 469 61 465 q 65 474 67 472 q 53 470 65 475 q 31 462 40 465 q 18 463 21 458 q 23 467 17 464 q 43 479 29 471 q 71 496 57 488 q 179 586 121 531 q 214 621 194 600 q 268 721 244 676 q 328 819 290 764 l 375 885 q 378 889 375 885 q 386 897 382 893 q 396 908 390 901 q 408 919 401 914 q 421 931 414 925 q 435 940 428 936 q 451 945 443 943 q 465 947 458 947 q 479 942 472 946 q 438 813 511 919 q 319 661 389 742 q 264 600 299 635 q 236 547 246 568 q 188 458 218 515 q 143 374 157 401 q 129 347 138 364 q 144 367 144 367 q 221 450 186 415 q 274 489 250 475 q 311 506 293 501 q 364 497 340 513 q 389 465 382 485 q 392 424 396 446 q 367 356 388 397 q 347 320 357 338 q 332 294 338 303 l 328 285 q 267 164 279 208 q 264 136 261 146 q 272 125 267 126 q 300 126 282 118 q 356 168 319 133 q 407 229 392 203 q 422 248 415 239 q 432 261 429 257 l 435 265 q 490 328 465 307 q 525 346 514 350 z "},"i":{"ha":374,"x_min":-14,"x_max":485,"o":"m 482 365 q 478 356 483 365 q 465 332 474 346 q 444 304 456 318 q 396 249 419 271 q 362 216 386 238 q 306 165 338 194 q 260 135 293 154 q 219 106 226 110 q 157 76 199 92 q 96 58 113 60 q 87 58 96 58 q 67 58 78 57 q 47 61 57 58 q 13 78 29 64 q -3 100 -3 92 q -10 115 -7 110 q -10 123 -10 118 q -11 129 -11 128 q -12 154 -14 139 q -6 194 -11 158 q 17 271 13 256 l 40 331 q 53 355 46 338 q 68 392 60 372 q 78 415 76 411 q 85 428 79 418 q 94 449 90 439 q 100 463 99 458 q 103 470 101 467 q 106 475 104 474 l 106 478 q 133 501 115 497 q 158 492 150 506 q 158 454 167 479 q 133 401 143 422 q 123 381 131 394 q 107 347 115 367 q 88 294 99 326 q 76 270 85 288 q 65 246 68 253 q 54 201 61 238 q 49 183 53 194 q 44 163 46 172 q 42 146 43 154 q 44 128 42 140 q 47 124 46 126 q 49 121 49 121 q 51 118 50 121 q 53 117 51 117 q 57 114 56 115 q 72 111 57 114 q 107 117 90 111 q 156 134 143 129 q 191 152 168 139 q 235 183 214 165 q 263 206 249 196 q 273 212 268 208 q 281 218 278 215 l 283 219 q 330 257 294 225 q 374 300 365 289 q 393 319 376 301 q 424 351 410 338 q 443 364 439 365 q 449 366 444 363 q 457 368 454 369 q 460 364 460 367 q 463 358 461 361 q 471 364 464 358 q 482 365 478 369 m 199 580 q 195 575 199 580 q 177 571 190 571 q 155 580 164 571 q 146 601 146 589 q 155 623 146 614 q 177 632 164 632 q 199 623 190 632 q 208 601 208 614 q 199 580 208 589 z "},"j":{"ha":349,"x_min":-417,"x_max":461,"o":"m 422 349 q 440 356 422 347 q 460 358 457 364 q 395 313 461 356 q 259 225 329 269 q 188 179 189 181 q 144 153 171 169 q 108 131 118 136 q 97 123 106 129 q 82 113 88 117 q 43 29 67 79 q -18 -79 28 -3 q -75 -175 -57 -149 q -169 -296 -112 -233 q -275 -387 -235 -368 q -314 -401 -303 -400 q -392 -383 -360 -411 q -407 -365 -401 -376 q -415 -343 -412 -356 q -415 -306 -417 -337 q -401 -264 -408 -278 q -346 -176 -383 -222 q -289 -114 -329 -154 q -157 8 -262 -87 q -89 61 -125 36 q -65 78 -78 69 q -47 92 -53 88 l -40 96 q 39 146 -17 111 q 92 276 74 222 q 133 390 129 369 l 143 424 q 168 481 154 460 q 194 501 182 501 q 206 491 201 501 q 208 459 210 481 q 199 407 207 438 q 176 341 194 392 q 154 281 158 290 q 119 197 132 226 q 169 228 140 210 q 204 251 199 247 q 313 316 233 271 q 396 356 392 361 q 410 359 397 354 q 425 363 422 364 q 423 356 426 360 q 422 349 419 351 m -58 -39 q -12 47 -35 6 q -37 29 -25 38 q -78 -1 -40 26 q -135 -44 -115 -29 q -214 -117 -154 -58 q -312 -222 -294 -199 q -344 -273 -329 -242 q -361 -324 -360 -304 q -361 -334 -362 -329 q -353 -344 -360 -339 q -333 -350 -346 -350 q -264 -314 -304 -349 q -150 -186 -211 -267 q -58 -39 -97 -115 m 244 580 q 239 575 244 580 q 222 571 235 571 q 199 580 208 571 q 190 601 190 589 q 199 623 190 614 q 222 632 208 632 q 244 623 235 632 q 253 601 253 614 q 244 580 253 589 z "},"k":{"ha":578,"x_min":-72,"x_max":661,"o":"m 646 326 q 651 326 647 325 q 660 322 661 326 q 646 301 658 315 q 524 190 588 235 q 369 115 450 135 q 282 106 318 103 q 156 146 210 110 q 92 217 114 175 q 78 247 83 231 q 24 122 35 158 l 7 75 q -57 -40 -35 -39 q -67 -27 -64 -40 q -67 19 -71 -14 q -47 93 -62 51 q 13 244 -40 117 q 74 388 67 372 q 122 501 86 419 q 210 688 158 582 q 313 867 261 793 q 394 932 365 940 q 356 776 432 921 q 350 767 353 769 q 235 560 338 742 q 121 354 133 378 q 146 372 121 354 q 202 410 171 389 q 274 454 233 431 q 349 493 315 478 q 413 515 383 508 q 451 504 443 521 q 415 449 467 482 q 329 404 364 415 q 199 353 313 399 q 141 283 150 333 q 171 199 132 232 q 183 189 176 194 q 283 157 225 160 q 353 164 319 157 q 408 182 386 174 q 499 232 453 200 q 553 272 525 249 q 597 308 582 296 q 614 321 613 321 q 631 331 617 318 q 649 343 644 343 q 649 340 650 343 q 646 333 647 336 q 646 326 644 329 z "},"l":{"ha":386,"x_min":-3,"x_max":497,"o":"m 494 914 q 497 902 496 910 q 496 893 497 894 q 485 861 494 883 q 469 833 478 847 q 457 813 461 819 l 453 807 q 360 688 397 731 q 268 583 317 635 q 232 515 242 532 q 189 434 222 501 q 147 347 156 367 q 81 182 99 233 q 60 104 67 139 q 57 24 49 50 q 65 11 61 13 q 93 8 76 6 q 124 19 106 10 l 138 26 q 218 90 171 43 q 286 165 246 118 q 363 261 347 235 l 383 289 q 426 335 406 321 q 457 346 447 350 q 465 332 464 343 q 456 301 465 321 q 429 256 447 281 q 385 199 419 242 q 346 150 351 156 q 281 78 321 119 q 229 28 254 51 q 217 17 226 25 q 204 6 208 10 q 190 -5 200 3 q 173 -17 181 -12 q 153 -28 165 -22 q 131 -40 142 -35 q 56 -46 92 -57 q 33 -36 50 -44 q 14 -15 21 -26 q 1 28 4 1 q 1 81 -1 50 q 14 149 4 111 q 65 293 26 201 q 118 415 111 401 q 151 481 124 428 q 83 443 90 436 q 69 441 82 446 q 54 439 57 436 q 56 444 53 440 q 58 451 60 449 q 40 446 58 451 q 21 446 22 440 q 25 450 21 447 q 40 459 29 453 q 61 471 51 465 q 144 536 100 497 q 217 604 179 565 q 299 743 251 669 q 401 894 375 860 q 435 926 422 917 q 461 935 449 935 q 476 932 471 935 q 494 914 489 926 z "},"m":{"ha":746,"x_min":-69,"x_max":828,"o":"m 821 356 q 826 339 826 350 q 813 303 826 328 q 775 250 799 279 q 714 183 761 232 q 657 128 667 135 q 594 81 626 100 q 550 57 568 64 q 515 49 529 50 q 467 61 486 47 q 444 96 447 76 q 443 140 440 114 q 472 243 449 175 q 498 308 478 258 q 526 385 518 358 q 536 424 532 400 q 538 450 539 440 q 535 456 536 454 q 530 456 533 456 q 525 456 526 457 q 465 417 503 453 q 407 349 443 394 q 360 280 393 331 q 318 214 328 229 q 263 133 274 149 q 248 122 258 126 q 229 122 238 118 q 207 149 208 128 q 208 158 206 151 q 211 168 210 164 l 213 172 q 258 279 244 238 q 288 390 281 344 q 286 432 290 419 q 276 447 283 446 q 249 436 268 450 q 215 403 232 424 q 150 310 183 367 q 96 219 97 222 q 78 188 88 204 q 65 164 69 172 l 61 156 q 26 92 47 135 q 3 46 8 57 q -15 10 -14 13 q -40 -3 -24 -4 q -64 11 -56 -1 q -68 26 -68 18 q -67 34 -68 29 q -64 43 -65 39 l -62 46 q 4 213 -53 74 q 67 349 13 240 q 129 457 122 458 q 141 469 132 456 q 154 483 150 483 q 156 476 157 483 q 157 468 154 469 q 172 487 158 467 q 189 504 185 507 q 164 447 190 503 q 140 394 164 446 q 204 469 178 447 q 256 500 231 493 q 294 500 274 507 q 326 476 311 494 q 343 417 343 453 q 338 364 343 393 q 332 338 336 357 q 406 433 371 394 q 464 488 438 468 q 503 507 478 499 q 529 511 511 510 q 557 506 539 511 q 578 488 569 500 q 589 464 588 476 q 590 424 593 446 q 574 350 588 399 q 536 249 567 325 l 511 181 q 497 139 501 158 q 494 114 494 122 q 497 104 496 104 q 517 103 501 100 q 549 117 533 107 q 596 150 568 128 q 653 200 618 167 q 703 253 688 233 q 717 271 710 263 q 728 283 725 279 l 731 286 q 821 356 797 364 z "},"n":{"ha":535,"x_min":-54,"x_max":606,"o":"m 596 346 q 603 333 603 343 q 596 306 604 324 q 571 267 588 288 q 528 222 563 256 q 488 183 494 188 q 419 132 454 154 q 361 101 386 111 q 311 92 333 92 q 242 124 265 90 q 232 192 225 150 q 249 251 236 214 q 281 342 253 264 q 300 399 296 385 q 303 442 308 431 q 299 446 300 446 q 289 444 294 446 q 251 417 278 439 q 203 360 235 403 q 158 293 178 325 q 124 236 146 272 q 93 183 103 200 q 68 138 83 165 q 41 83 53 110 q 17 24 29 56 q 3 1 8 6 q -35 -3 -15 -14 q -49 13 -43 1 q -50 33 -54 25 q -49 40 -50 36 q -47 44 -47 43 q -33 85 -43 60 l -15 133 q 79 365 22 225 q 124 461 86 386 q 168 533 161 536 q 178 541 171 532 q 188 550 185 550 q 190 545 190 550 q 193 538 190 540 q 204 551 194 538 q 218 561 214 564 q 213 544 219 561 q 190 493 206 528 q 165 436 175 458 q 145 387 158 418 q 131 353 132 356 q 132 355 131 353 q 135 358 133 357 q 185 424 176 414 q 251 486 221 469 q 315 499 285 508 q 357 449 350 486 q 360 429 360 439 q 358 410 360 419 q 356 395 357 400 q 351 378 354 390 q 347 365 347 367 q 324 303 343 353 q 297 222 306 254 q 289 163 286 176 q 293 151 290 154 q 300 149 299 147 q 325 147 304 143 q 367 163 346 150 q 433 211 392 176 q 507 281 488 253 l 528 303 q 596 346 572 356 z "},"o":{"ha":463,"x_min":-14,"x_max":574,"o":"m 544 360 q 556 366 544 360 q 571 368 568 372 q 562 356 574 367 q 526 328 550 344 q 479 301 503 311 q 367 265 435 279 q 299 263 338 261 q 265 267 269 267 q 251 229 258 247 q 221 169 243 211 q 136 71 185 107 q 75 42 99 46 q 29 49 54 38 q 8 68 14 57 q -3 90 3 75 q -7 158 -14 118 q -3 189 -7 171 l 0 201 q 26 275 7 226 q 54 339 44 324 q 78 378 60 350 q 100 413 97 407 l 115 432 q 161 461 136 458 q 179 485 168 476 q 217 496 196 496 q 257 478 240 496 q 276 444 274 461 q 282 415 282 419 q 285 386 283 403 q 281 317 285 344 q 303 314 294 314 q 390 324 343 311 q 461 346 438 336 q 490 358 474 350 q 513 368 506 365 q 522 369 521 371 q 533 370 525 367 q 543 372 540 374 q 543 367 544 371 q 544 360 542 364 m 211 278 q 214 283 213 279 q 171 318 188 296 q 147 382 153 339 q 111 328 117 340 q 83 275 89 286 q 51 167 58 218 q 51 100 46 115 q 57 96 56 94 q 68 96 67 96 q 81 100 72 96 q 144 154 113 117 q 188 225 154 165 q 211 278 203 249 m 228 340 q 229 367 229 358 q 229 393 231 383 q 226 417 228 411 q 221 435 221 435 q 210 439 215 444 q 203 403 199 433 q 206 383 204 388 q 206 376 206 381 q 207 371 207 372 q 211 361 210 365 q 228 340 217 349 z "},"p":{"ha":525,"x_min":-154,"x_max":636,"o":"m 632 346 q 633 331 635 340 q 613 306 631 321 q 565 279 594 292 q 500 253 551 271 q 440 233 449 235 q 268 188 401 222 q 203 150 236 165 q 119 124 161 132 q 68 119 93 118 q 51 122 58 119 q 28 138 38 126 q -14 18 8 88 q -53 -117 -36 -53 q -68 -176 -54 -122 q -95 -277 -82 -231 q -111 -324 -108 -324 q -119 -335 -115 -324 q -126 -349 -124 -347 q -131 -343 -129 -349 q -135 -337 -132 -337 q -142 -356 -136 -337 q -151 -372 -147 -374 q -151 -349 -154 -372 q -142 -289 -149 -326 q -128 -214 -136 -251 q -89 -53 -111 -133 q -62 36 -83 -31 q -6 207 -19 168 q 46 319 10 251 q 100 419 68 375 q 150 481 124 456 q 221 526 181 511 q 297 533 256 542 q 340 514 324 526 q 368 479 360 500 q 382 436 376 468 q 382 374 388 404 q 349 275 375 319 q 340 263 347 274 q 399 279 379 274 q 511 318 489 306 q 528 324 521 321 q 539 329 536 328 l 543 331 q 632 346 615 363 m 318 342 q 329 419 333 385 q 317 460 328 446 q 299 475 311 468 q 174 426 239 499 q 89 283 126 374 q 74 250 86 278 q 56 207 63 222 q 50 192 53 197 q 57 194 54 193 q 142 215 79 201 q 170 222 156 218 q 192 226 185 225 l 199 228 q 242 236 214 231 q 247 240 242 236 q 256 247 253 244 q 318 342 294 276 z "},"q":{"ha":526,"x_min":-76,"x_max":665,"o":"m 615 354 q 638 365 615 354 q 664 369 661 375 q 610 333 664 368 q 486 257 557 301 q 300 143 315 151 q 256 115 292 136 q 197 78 221 93 q 188 71 192 74 q 181 67 183 68 q 178 66 179 67 q 176 65 176 65 q 176 61 176 64 q 177 55 176 58 q 178 44 178 51 q 179 26 179 36 q 167 -122 179 -40 q 119 -283 154 -206 q 89 -342 96 -331 q 47 -382 69 -368 q -11 -392 19 -400 q -46 -375 -35 -385 q -60 -360 -53 -369 q -68 -342 -65 -350 q -69 -281 -75 -318 q -33 -181 -61 -240 q 47 -26 11 -83 q 178 185 126 101 q 200 221 186 199 q 160 189 176 201 q 121 167 139 175 q 65 158 90 154 q 35 172 49 161 q 14 199 21 182 q 8 217 8 207 q 8 232 8 228 q 14 254 13 251 q 42 311 21 278 q 92 376 56 338 q 157 438 129 414 l 197 467 q 256 493 226 486 q 301 498 285 500 q 319 489 317 496 q 319 481 318 483 q 315 475 319 479 q 306 467 310 471 q 293 458 303 464 q 276 448 283 453 q 254 435 268 443 q 228 418 240 426 q 158 364 196 400 q 107 308 129 338 q 78 263 86 281 q 63 219 63 238 q 63 219 63 219 q 64 217 63 218 q 72 211 67 214 q 103 217 81 207 q 201 304 144 236 q 297 429 264 375 q 306 447 297 431 q 321 478 314 463 l 328 493 q 350 515 339 513 q 379 510 365 519 q 393 489 390 501 q 392 468 394 488 l 390 463 q 376 422 386 450 q 281 249 351 365 q 254 205 272 236 q 226 157 236 174 q 269 185 247 171 q 310 209 292 199 q 332 222 328 219 q 472 304 364 243 q 585 360 581 365 q 602 365 586 358 q 621 369 618 372 q 622 366 624 368 q 617 360 619 364 q 615 354 614 357 m 118 -67 q 125 -6 122 -42 q 64 -110 74 -89 q 8 -221 28 -178 q -17 -314 -18 -286 q -6 -336 -15 -331 q 22 -335 7 -343 q 76 -244 53 -314 q 104 -140 93 -194 l 118 -67 z "},"r":{"ha":314,"x_min":-36,"x_max":397,"o":"m 381 493 q 389 490 381 493 q 396 482 397 488 q 376 476 396 482 q 331 460 357 472 q 264 419 282 438 q 244 404 261 417 q 211 375 226 392 q 174 326 196 358 q 156 304 169 321 q 138 278 143 288 q 113 231 132 271 q 94 197 106 218 q 78 165 82 175 q 65 138 74 160 q 50 106 56 115 q 42 89 49 103 q 29 63 35 75 l 22 50 q 14 40 19 44 q -4 35 7 35 q -21 39 -15 35 q -33 54 -28 44 q -36 68 -36 60 l -33 79 q -20 115 -33 81 q 10 193 -7 149 q 35 268 26 238 l 63 336 q 76 365 68 344 q 94 407 85 385 q 106 435 103 429 q 117 460 106 436 q 131 492 128 483 q 135 500 133 496 q 138 506 136 504 l 138 508 q 167 537 149 532 q 194 527 186 542 q 190 485 201 513 q 163 424 169 442 q 151 400 158 415 q 139 375 143 385 l 140 376 q 151 388 142 378 q 173 410 161 399 q 196 431 185 421 q 256 476 233 464 q 313 504 279 493 q 338 511 325 508 q 359 514 351 514 q 368 511 367 514 q 376 508 368 508 q 383 503 383 507 q 382 499 385 501 q 381 493 379 497 z "},"s":{"ha":349,"x_min":-99,"x_max":461,"o":"m 431 326 q 443 331 431 326 q 458 331 456 335 q 374 275 460 324 q 268 215 289 226 q 227 195 264 214 q 153 153 190 176 q 143 113 150 126 q 101 51 131 79 q 40 10 81 29 q 0 -4 18 0 q -28 -8 -1 -6 l -42 -10 l -54 -8 q -74 -4 -68 -7 q -86 6 -82 0 q -97 36 -99 14 q -39 99 -93 60 q 14 136 -17 114 q 99 186 33 151 q 83 265 97 221 q 67 311 82 269 q 46 385 51 353 q 53 454 40 418 q 68 486 57 468 q 72 493 69 490 q 75 497 75 496 l 76 499 q 140 550 103 528 q 207 585 172 571 q 251 596 229 592 q 306 600 288 603 q 319 593 311 600 q 332 581 328 589 q 335 551 339 567 q 332 544 333 547 q 330 540 331 540 q 329 539 329 539 q 286 508 313 517 q 261 513 269 506 q 258 536 253 521 q 261 542 258 538 q 253 540 257 540 q 246 538 249 539 q 243 538 243 538 q 188 515 208 526 q 151 493 165 504 q 113 449 121 471 q 101 382 97 413 q 108 355 100 378 q 124 317 115 332 q 151 214 143 267 q 151 213 151 214 q 274 278 214 244 q 410 338 404 346 q 419 338 411 336 q 431 339 428 340 q 430 333 432 336 q 431 326 428 329 m 299 563 q 300 564 300 563 l 299 563 m 79 108 q 80 110 79 110 q 81 110 81 110 q 35 85 44 90 q 10 68 31 82 q 1 60 7 65 q -8 54 -6 56 l -10 53 l -8 53 l -10 50 q -8 50 -10 50 q -3 53 -10 50 q 7 56 1 53 q 42 74 24 63 q 79 108 64 86 z "},"t":{"ha":165,"x_min":-28,"x_max":499,"o":"m 479 743 q 497 713 497 742 q 476 686 496 685 q 469 687 475 686 q 456 688 463 688 q 450 688 450 688 q 279 689 414 689 q 271 672 276 683 q 261 656 265 661 q 258 646 261 654 q 249 626 254 638 q 243 608 244 614 q 213 547 243 608 q 201 523 210 543 q 188 493 193 503 q 151 415 168 458 q 124 351 146 400 q 92 265 101 301 q 79 229 89 256 l 69 204 q 47 143 63 192 q 31 82 32 94 q 21 32 29 79 q 13 -10 17 -10 q 10 -17 10 -11 q 6 -24 10 -22 q 1 -23 4 -25 q -4 -22 -1 -21 q -5 -32 -6 -22 q -10 -44 -4 -42 q -22 -19 -12 -46 q -26 7 -24 -15 q -26 38 -26 36 q -25 60 -26 49 q -22 82 -24 72 q -19 99 -21 92 q -16 112 -17 107 q -15 117 -15 117 q -1 162 -11 129 q 21 239 8 194 q 43 292 21 239 q 47 302 43 293 q 53 323 50 311 q 60 340 57 335 q 88 403 65 356 q 98 429 90 408 q 111 458 106 450 q 147 536 121 478 q 180 606 157 561 q 215 685 203 651 q 215 687 215 686 q 217 688 215 688 q 88 675 154 686 q 44 674 46 668 q 40 677 43 676 q 35 681 36 678 q 33 685 33 683 q 32 690 33 688 q 27 692 32 692 q 19 697 22 693 q 24 702 19 699 q 36 710 28 706 q 53 717 44 714 q 88 728 79 728 q 165 738 115 733 q 228 743 215 743 q 242 743 231 743 l 243 746 q 285 832 246 750 q 296 853 285 832 q 310 882 307 875 l 317 897 q 344 922 326 918 q 370 913 363 926 q 368 872 378 899 q 340 818 358 853 q 327 792 339 814 q 304 744 315 769 q 446 744 325 746 q 479 743 451 744 z "},"u":{"ha":507,"x_min":0,"x_max":617,"o":"m 592 353 q 602 361 593 353 q 615 367 611 369 q 615 363 617 367 q 608 351 613 358 q 599 336 604 344 q 554 285 578 308 q 476 213 526 256 q 429 179 457 197 q 408 165 425 176 q 370 144 390 154 q 321 126 350 135 q 276 125 301 119 q 247 138 251 133 q 225 165 232 147 q 219 204 218 176 q 220 210 219 207 q 221 215 221 214 q 158 149 190 178 q 113 118 131 126 q 81 106 103 111 q 58 104 69 104 q 35 113 49 107 q 22 121 26 118 q 4 156 8 133 q 3 193 0 172 q 10 233 10 233 q 58 358 35 317 q 78 394 63 368 q 99 426 94 419 q 105 437 101 432 q 110 443 108 442 l 111 446 q 146 472 126 465 q 171 468 165 478 q 157 411 185 450 q 135 378 151 404 q 115 347 118 351 q 90 299 94 307 q 61 200 68 243 q 60 172 60 182 q 61 163 60 168 l 63 158 q 64 158 63 158 q 74 158 68 158 q 97 172 88 164 q 160 228 131 197 q 183 257 167 235 q 208 289 200 279 q 278 381 219 300 q 283 386 281 385 q 290 392 288 390 q 297 394 293 393 q 301 394 299 394 q 308 394 304 394 q 315 392 313 393 q 326 381 322 388 q 329 372 328 378 q 331 365 331 367 q 330 361 331 363 q 329 358 329 360 q 325 347 328 356 q 319 333 324 343 q 314 319 318 328 q 308 307 310 310 q 289 261 294 275 q 275 218 279 238 q 273 195 272 207 q 278 183 274 183 q 278 183 278 183 q 282 182 279 183 q 286 181 283 182 q 290 181 289 181 q 300 181 294 181 q 313 183 306 182 q 324 186 319 185 l 328 186 q 401 222 353 190 q 468 274 433 243 q 497 299 472 276 q 544 340 521 321 q 569 357 567 358 q 578 360 572 356 q 588 364 585 365 q 590 359 590 363 q 592 353 589 356 z "},"v":{"ha":383,"x_min":8,"x_max":443,"o":"m 438 489 q 399 425 443 485 q 351 363 372 386 q 335 344 346 356 q 308 314 324 332 q 271 267 293 296 q 232 225 269 265 q 225 217 231 225 q 211 200 219 210 q 200 186 203 190 q 153 136 194 179 q 133 114 147 132 l 124 103 q 115 94 121 99 q 108 86 110 89 q 89 67 106 83 q 73 55 85 61 q 60 47 61 49 q 26 53 43 40 q 13 68 18 58 q 10 101 10 94 l 10 110 l 11 119 q 14 130 13 124 q 15 139 15 136 q 19 156 15 140 q 25 178 24 171 q 40 258 36 222 l 57 324 q 65 351 60 332 q 74 391 69 369 q 81 417 79 413 q 88 442 81 419 q 96 472 96 464 q 99 480 97 476 q 100 486 100 483 l 100 488 q 124 517 107 511 q 152 510 142 524 q 156 471 163 497 q 150 453 154 467 q 142 428 146 440 q 138 414 139 415 q 131 390 136 407 q 119 351 125 374 q 107 293 114 329 q 104 277 107 286 q 98 257 101 268 q 92 239 94 246 q 83 189 92 231 q 76 156 82 175 l 72 140 l 69 132 q 70 131 69 131 q 71 129 71 131 q 86 144 72 128 q 138 201 103 164 q 194 267 174 238 l 239 317 q 283 363 250 325 q 326 414 317 401 q 335 425 328 415 q 352 444 343 435 q 371 465 361 454 q 388 481 381 475 q 397 486 394 488 q 405 488 400 485 q 413 490 410 492 q 415 486 415 489 q 418 481 415 483 q 426 486 419 481 q 438 489 433 492 z "},"w":{"ha":574,"x_min":-7,"x_max":601,"o":"m 588 504 q 589 512 588 504 q 596 519 590 519 q 600 478 601 519 q 586 386 599 436 q 566 326 578 357 q 546 278 554 294 q 535 258 538 263 q 493 193 519 229 q 456 149 478 172 q 375 90 414 106 q 346 85 368 86 q 326 88 339 83 q 307 99 315 90 q 274 158 283 118 q 265 199 271 165 q 260 251 260 233 q 260 266 260 257 q 260 276 260 275 q 207 196 218 211 q 136 106 172 143 q 99 71 117 85 q 72 54 85 60 q 31 49 51 43 q -4 97 0 58 q -4 144 -6 114 q 11 215 -3 171 l 26 261 q 90 418 88 413 q 114 463 96 429 q 138 506 132 496 q 145 519 142 513 q 150 528 149 525 l 151 531 q 187 568 168 557 q 217 574 206 579 q 200 500 238 560 q 173 454 193 490 q 150 413 153 418 q 118 347 121 353 q 71 215 90 283 q 49 126 50 139 q 49 107 47 118 q 51 103 49 104 l 51 104 q 58 108 53 104 q 60 111 58 110 q 65 114 63 113 q 67 117 67 115 q 86 133 78 126 q 125 175 106 153 q 155 218 133 186 q 183 258 176 250 q 222 319 192 269 q 258 383 253 369 q 267 401 263 390 l 272 410 q 276 418 275 417 q 282 424 278 419 q 289 426 285 425 q 304 427 293 429 q 318 419 315 425 q 325 404 325 413 l 325 401 l 325 396 l 325 390 q 322 372 324 383 q 321 356 321 360 q 315 292 315 315 q 315 229 313 256 q 329 164 318 189 q 339 147 338 147 q 341 144 340 144 q 343 143 342 143 q 346 143 343 143 q 349 143 347 143 q 360 145 351 143 q 368 149 368 147 l 378 153 q 412 178 389 157 q 453 225 435 199 q 507 319 488 271 q 540 401 521 344 q 551 436 546 417 q 558 465 556 456 q 564 475 561 475 q 569 485 567 475 q 575 496 572 496 q 580 493 578 497 q 585 489 582 489 q 588 504 586 489 z "},"x":{"ha":533,"x_min":-114,"x_max":650,"o":"m 626 351 q 633 356 626 351 q 644 358 639 361 q 613 297 650 356 q 570 239 589 260 q 488 151 551 218 q 442 119 469 135 q 397 93 431 108 q 328 78 367 79 q 315 77 325 78 q 297 76 304 76 q 264 82 272 79 q 248 88 263 83 q 222 99 233 93 q 183 124 215 103 q 128 188 149 150 q 126 191 128 189 q 125 194 125 193 q 72 142 88 161 l 42 111 q 10 83 33 107 q -22 50 -14 60 q -75 8 -67 3 q -81 9 -78 11 q -87 10 -85 7 q -91 13 -90 11 q -93 18 -92 15 q -100 15 -94 18 q -110 16 -106 13 q -83 58 -114 19 q -49 97 -53 96 q -37 109 -44 101 q -18 128 -29 117 q 10 158 -7 140 q 38 185 11 161 q 60 210 40 188 q 94 240 64 214 q 99 244 96 242 q 96 252 99 247 q 92 260 93 257 q 85 281 89 265 q 78 310 81 297 l 75 321 q 67 369 74 332 q 60 411 60 406 q 56 434 58 413 q 51 463 54 456 l 50 478 q 60 511 47 499 q 88 517 72 524 q 107 485 103 511 q 113 429 113 432 q 115 408 114 424 q 121 372 117 392 q 133 319 125 351 q 143 285 135 318 q 167 307 161 301 q 206 341 179 319 q 247 382 232 363 l 281 411 q 295 422 286 414 q 316 442 304 431 q 328 454 328 453 q 337 461 331 456 q 349 471 343 467 q 357 479 354 475 l 365 486 q 392 490 376 496 q 412 471 408 485 q 403 443 415 457 q 372 417 375 421 q 359 407 368 414 q 338 390 350 400 q 310 361 326 379 q 281 338 310 361 q 276 333 281 338 q 265 322 271 328 q 257 313 260 317 q 222 283 254 310 q 209 270 219 281 q 193 256 199 260 q 167 233 188 253 q 196 186 185 201 q 205 177 199 182 q 219 166 211 172 q 232 157 228 160 q 263 141 238 151 q 294 133 288 131 q 358 138 328 131 q 417 169 393 147 q 443 189 422 174 l 461 204 q 505 243 474 210 q 543 289 536 276 q 559 308 544 289 q 588 343 574 328 q 606 356 601 358 q 612 358 607 354 q 619 360 617 361 q 623 356 622 358 q 626 351 624 353 z "},"y":{"ha":531,"x_min":-196,"x_max":650,"o":"m 628 338 q 632 336 629 336 q 624 314 650 335 q 499 221 600 297 q 308 82 399 149 q 292 69 300 76 q 282 50 286 60 q 217 -65 238 -32 q 142 -181 181 -126 q -40 -372 49 -312 q -100 -400 -72 -393 q -140 -400 -119 -404 q -160 -392 -149 -397 q -179 -378 -165 -390 q -192 -354 -186 -369 q -194 -329 -194 -337 q -192 -319 -193 -326 q -191 -309 -192 -311 q -183 -290 -190 -307 q -144 -224 -172 -262 q -58 -132 -117 -185 q -27 -104 -43 -118 q -3 -83 -11 -90 l 6 -76 q 244 100 42 -44 q 261 138 256 122 q 343 372 315 264 q 347 388 347 382 q 342 379 346 388 q 340 376 340 378 q 339 374 340 375 q 333 365 338 372 q 260 268 304 322 q 234 235 247 251 q 213 211 221 219 l 206 203 q 139 135 146 142 q 90 99 113 113 q 15 86 47 75 q -9 106 0 92 q -19 132 -18 119 q -19 168 -22 150 q -10 210 -17 185 q 68 372 -1 240 q 82 396 75 385 q 92 411 89 407 l 94 417 q 149 487 122 463 q 188 507 175 511 q 143 386 211 497 q 93 301 114 338 q 56 225 65 249 q 36 168 42 192 q 33 144 33 153 q 36 136 35 136 q 40 135 38 135 q 47 136 42 135 q 57 140 51 138 q 96 168 74 149 q 196 279 138 204 q 219 308 201 288 q 246 342 236 329 q 260 360 250 347 q 274 378 269 372 q 308 424 282 389 q 313 430 310 425 q 323 443 317 435 q 333 458 329 451 q 356 488 339 464 q 359 491 357 489 q 363 495 361 493 q 367 499 365 497 q 376 508 374 507 q 386 513 382 513 q 392 514 390 514 q 398 512 393 514 q 404 508 403 510 q 410 505 407 507 q 414 501 413 503 q 418 488 421 497 q 414 444 415 456 q 410 417 414 436 q 406 396 406 399 l 400 372 l 397 360 l 396 353 l 389 328 q 354 225 375 278 q 331 163 342 190 q 335 165 332 163 q 338 167 338 167 q 491 274 390 206 q 596 339 592 343 q 615 345 599 336 q 633 353 631 354 q 634 349 636 351 q 629 343 632 347 q 628 338 626 339 m 136 -93 q 192 0 160 -57 q 4 -153 88 -76 q -112 -274 -83 -235 q -139 -324 -135 -307 q -137 -342 -143 -340 q -135 -344 -136 -343 q -129 -346 -132 -344 q -121 -347 -129 -346 q -46 -308 -94 -346 q 28 -239 -10 -281 q 136 -93 61 -203 z "},"z":{"ha":469,"x_min":-10,"x_max":553,"o":"m 528 311 q 538 319 528 310 q 551 325 547 329 q 545 311 553 325 q 523 275 538 297 q 492 231 508 253 q 460 189 478 211 q 431 155 442 167 q 417 140 419 143 q 368 96 399 121 q 351 83 364 93 q 328 65 339 72 q 299 45 318 57 q 260 24 281 33 q 169 1 219 4 q 134 0 167 0 q 85 3 101 0 q 57 11 69 7 q 26 25 39 15 q -6 94 -8 50 q 3 124 -4 111 q 11 139 6 131 l 19 149 q 50 185 36 169 q 139 279 113 247 q 179 323 151 292 q 219 369 207 354 q 251 414 238 392 q 269 463 269 447 q 268 469 268 467 q 265 469 268 469 q 250 469 253 471 q 241 469 246 469 q 235 468 236 468 l 232 468 q 171 446 206 467 q 122 407 139 428 q 99 379 111 399 q 88 347 88 360 q 85 337 86 342 q 83 330 83 332 q 83 328 83 328 q 79 307 82 317 q 74 289 76 296 q 57 271 67 274 q 36 282 44 267 q 28 303 31 289 q 26 335 25 313 q 32 357 26 340 q 43 389 36 376 q 52 408 46 399 q 63 424 58 418 q 68 431 68 429 q 122 478 92 458 q 168 504 142 492 q 249 528 208 522 q 272 528 253 529 q 292 522 276 528 q 313 508 293 522 q 321 443 333 474 q 308 408 319 435 q 285 365 297 385 q 217 285 265 338 q 191 254 214 281 q 157 217 168 228 q 112 170 147 208 q 69 122 76 132 q 51 100 54 106 q 49 86 49 94 q 65 65 51 71 q 172 57 122 46 q 224 71 197 61 q 240 77 232 74 q 253 83 249 81 l 257 85 q 336 136 285 93 q 404 203 365 161 q 456 261 421 221 q 458 265 456 263 q 474 284 468 278 q 487 299 479 290 q 499 310 494 307 q 504 313 503 313 q 513 316 507 310 q 522 322 519 322 q 525 317 525 321 q 528 311 525 313 z "},"{":{"ha":521,"x_min":-57,"x_max":460,"o":"m 86 -126 l 82 -126 q 28 -105 56 -126 q -15 -58 0 -83 q -25 125 -56 10 q 22 274 -21 143 q 28 325 35 310 q 13 343 25 332 q -3 358 1 351 q -12 413 -22 385 q 50 482 -3 446 q 135 622 89 510 q 205 763 168 707 q 280 843 242 818 q 348 878 318 868 q 417 890 378 888 l 424 890 q 457 872 454 890 q 432 833 460 856 q 393 804 419 822 q 358 789 385 799 q 318 771 326 776 q 213 572 296 750 l 206 558 q 203 551 206 556 q 182 510 185 515 l 182 508 l 179 504 q 147 457 171 486 l 143 451 q 124 436 139 446 q 100 417 101 421 q 103 413 100 415 q 110 404 107 408 q 118 386 114 400 q 124 368 121 382 q 125 363 124 364 q 122 343 126 357 q 94 206 125 286 q 89 190 93 203 q 78 160 88 185 q 60 110 63 115 q 49 -11 39 28 l 49 -15 l 46 -21 l 35 -28 l 32 -25 q 24 -10 26 -15 l 22 -10 l 24 -10 q 39 -40 28 -21 q 60 -57 42 -43 q 81 -79 81 -74 l 81 -83 l 78 -87 l 67 -93 q 71 -96 69 -94 q 92 -101 76 -99 l 100 -103 q 107 -106 106 -104 l 108 -107 l 110 -111 l 108 -117 l 104 -121 l 100 -124 q 86 -126 93 -126 m 42 -79 l 43 -79 q 53 -83 44 -79 q 64 -90 61 -87 l 42 -76 q 42 -79 42 -78 z "},"|":{"ha":279,"x_min":-35,"x_max":242,"o":"m -26 -126 l -35 -122 q -18 -36 -19 -51 q -14 -8 -15 -14 q -4 42 -11 10 q 8 100 4 79 q 18 147 11 119 l 33 207 q 64 369 38 222 q 115 650 90 515 q 139 792 139 785 q 143 813 142 808 l 147 829 q 168 865 151 850 q 179 874 174 871 l 185 876 l 190 879 q 201 881 196 881 q 217 875 210 881 q 239 811 242 858 l 239 804 q 225 740 239 793 q 182 521 225 738 q 93 57 94 63 q 51 -46 76 -11 q 44 -54 47 -51 l 35 -72 l 26 -71 l 28 -46 q 7 -99 17 -94 l 6 -99 l 1 -99 q -6 -90 -4 -96 q -15 -110 -14 -108 l -26 -126 z "},"}":{"ha":606,"x_min":63,"x_max":608,"o":"m 85 -126 q 83 -126 85 -126 q 79 -125 81 -126 q 67 -122 72 -125 l 64 -118 l 63 -114 l 63 -112 l 65 -108 l 69 -104 q 79 -101 74 -103 l 88 -100 q 113 -96 106 -99 q 121 -92 117 -94 l 119 -92 l 110 -86 l 114 -82 q 150 -58 119 -74 q 183 -42 178 -46 q 201 -29 194 -35 l 196 -29 l 190 -19 l 193 -17 q 269 107 233 25 q 288 157 272 114 q 299 189 297 183 q 304 204 304 201 q 375 342 331 283 q 376 344 375 342 q 380 351 378 347 q 385 358 382 356 q 390 364 386 360 q 410 382 403 378 q 429 399 422 394 q 441 406 433 401 q 449 411 449 410 q 439 429 450 415 q 431 447 431 442 l 431 451 q 432 500 428 482 l 433 503 l 435 506 q 442 546 433 510 q 444 556 444 554 l 447 569 q 483 768 492 747 q 458 788 482 775 q 435 804 439 799 q 417 835 422 824 q 419 875 406 858 q 460 890 432 890 q 471 889 464 890 q 574 835 550 879 q 558 611 608 771 q 543 471 524 499 q 556 399 569 433 q 508 346 544 371 q 483 332 500 340 q 454 315 463 322 q 422 264 436 300 q 364 115 365 118 q 225 -64 313 1 q 153 -106 194 -86 q 85 -126 111 -126 z "},"":{"ha":447,"x_min":0,"x_max":0,"o":""},"":{"ha":210,"x_min":-133,"x_max":192,"o":"m 189 629 q 182 590 190 608 l 181 586 q 169 570 178 581 q 157 557 160 560 l 153 554 q 118 539 133 539 l 115 539 q 81 560 92 543 q 78 608 69 578 q 93 633 82 619 q 103 644 97 639 q 114 653 111 651 q 146 664 124 664 q 168 660 160 663 q 189 629 185 650 m 104 468 q 107 469 106 469 l 118 475 l 118 453 q 100 369 118 440 q 93 347 94 350 q 89 335 89 339 q 83 317 92 325 q 82 310 82 314 q 76 290 81 299 q 71 267 75 283 q 63 238 67 250 q 58 225 60 226 l 56 219 q 51 215 53 217 q 49 199 53 206 q 47 196 47 197 q 43 176 47 186 l 43 172 l 39 172 q 31 136 38 158 l 28 131 q 26 124 28 129 q 15 94 21 100 q 11 86 13 90 q 11 78 13 86 q 8 69 10 76 q 4 60 6 63 q 0 47 4 58 q -7 28 -6 31 q -10 22 -8 25 q -10 15 -10 21 q -12 4 -11 8 q -28 -31 -25 -28 l -29 -35 q -33 -48 -31 -37 q -39 -67 -36 -58 q -42 -78 -42 -76 q -46 -86 -43 -79 q -58 -114 -50 -104 q -83 -126 -69 -126 q -93 -122 -89 -126 q -108 -117 -101 -121 q -119 -110 -117 -112 l -125 -114 l -129 -106 q -124 -67 -132 -99 q -111 -26 -115 -35 l -106 -15 q -103 0 -104 -7 q -85 60 -100 10 q -67 114 -69 110 q -54 147 -64 122 q -50 157 -51 156 l -18 251 q -15 263 -18 256 q -9 281 -14 268 q 0 304 -4 293 l 3 315 l 3 318 l 6 319 l 11 335 q 39 406 33 399 l 40 410 l 44 408 q 49 421 44 410 q 60 442 54 432 l 64 451 l 65 443 q 69 449 68 447 l 83 464 l 86 458 l 101 475 l 99 464 l 104 472 l 104 468 z "},"":{"ha":365,"x_min":-74,"x_max":297,"o":"m 282 606 q 292 571 296 589 q 271 550 288 558 q 251 543 260 543 q 246 544 249 543 l 244 543 l 238 542 q 229 544 233 542 l 226 544 q 211 540 218 543 q 160 497 190 531 q 122 451 149 488 q 74 378 96 415 q 45 323 58 351 q 26 278 32 294 q 18 258 19 263 q 3 189 4 206 q 3 162 1 175 q 8 143 6 149 q 11 136 10 138 q 14 135 13 135 l 21 128 q 24 128 22 128 q 31 128 26 128 q 65 136 47 128 q 164 208 111 154 q 231 286 201 247 q 242 301 239 297 l 263 322 l 261 321 q 263 322 261 321 l 275 322 q 269 293 275 313 l 276 293 q 233 208 268 258 q 147 117 197 157 l 140 119 l 144 114 q 99 82 124 96 l 86 43 q 85 38 85 38 q 78 19 83 32 q 71 -3 74 7 l 67 -12 q 49 -61 53 -54 l 47 -62 l 46 -62 q 40 -75 44 -64 l 32 -93 l 31 -86 q 29 -90 29 -89 l 10 -97 q 10 -99 10 -99 q 6 -104 8 -103 l -4 -108 l -3 -93 q 10 -37 -3 -85 q 22 10 15 -14 q 25 15 24 14 q 35 57 26 28 q 18 56 25 56 q 13 56 13 56 q -25 67 -10 56 q -54 99 -44 78 q -65 136 -62 118 q -64 218 -72 172 q -4 385 -53 285 l -1 389 q 24 433 13 415 q 57 481 47 471 q 74 507 60 489 q 92 529 88 525 l 94 532 q 99 536 97 535 q 114 553 110 550 l 115 550 l 115 553 q 122 560 115 554 q 150 585 139 575 q 176 604 158 592 l 181 607 q 190 611 186 610 q 190 614 190 613 q 196 624 193 621 q 199 629 197 626 q 199 635 197 631 l 201 644 q 206 656 203 647 q 210 667 210 665 q 211 671 211 669 q 213 676 213 672 q 214 682 213 681 q 224 706 221 704 l 225 708 l 236 747 q 243 760 239 756 q 260 769 250 769 q 265 767 264 769 q 275 764 271 765 q 283 760 281 761 l 286 761 l 289 757 q 282 718 292 750 q 278 704 279 708 l 274 697 q 272 688 274 692 q 257 639 269 678 q 251 621 254 631 q 282 606 272 617 z "},"":{"ha":518,"x_min":-99,"x_max":458,"o":"m 451 761 q 453 730 457 749 q 446 698 450 711 q 439 682 442 685 q 418 665 428 665 q 406 674 410 665 q 397 697 401 681 q 392 713 394 706 q 389 722 390 715 q 382 744 385 736 q 368 763 379 753 q 342 772 357 772 q 328 771 335 772 q 271 737 297 765 q 226 667 244 708 q 197 592 207 625 q 178 525 186 558 q 175 518 176 519 l 175 517 l 171 514 q 172 510 171 513 q 168 475 172 508 l 165 463 q 257 461 239 461 q 274 461 271 461 q 283 463 282 463 l 292 463 q 308 451 303 463 q 311 444 310 449 l 311 439 q 301 413 310 421 q 279 406 294 406 q 269 404 272 406 q 235 401 261 401 q 157 403 215 401 q 154 392 156 400 q 151 376 153 383 q 150 365 150 369 q 28 128 126 231 q 49 129 38 129 q 86 122 68 129 q 122 96 104 114 q 165 71 143 75 l 169 71 l 174 65 l 174 69 l 181 71 q 182 71 181 71 q 188 69 186 71 q 194 69 193 69 l 201 69 q 221 79 217 76 q 242 96 233 86 l 247 101 l 251 97 l 253 88 l 250 83 q 243 74 246 78 q 235 67 239 71 q 236 68 235 67 q 242 71 240 71 q 256 79 253 79 q 282 113 279 110 l 288 119 l 292 124 l 294 125 l 300 124 l 303 117 l 299 111 q 292 100 296 107 q 235 36 267 63 q 154 8 201 8 q 68 42 108 8 q 67 40 67 40 q 54 50 65 40 q 40 47 47 50 q -10 25 24 43 l -11 24 l -15 25 q -18 22 -15 24 q -26 17 -21 19 q -35 11 -35 11 q -49 4 -43 7 l -57 3 q -67 0 -64 1 l -71 0 l -74 0 q -89 7 -82 0 q -93 15 -90 7 q -97 29 -96 22 q -97 44 -97 36 q -96 57 -97 50 q -87 82 -93 69 q -83 90 -85 88 q -39 151 -74 108 l -35 157 q 8 210 -6 192 q 44 265 29 239 q 56 289 50 276 l 60 296 l 61 294 l 61 297 q 60 298 60 297 q 61 300 61 299 l 64 307 l 65 313 l 69 315 l 69 317 q 71 325 71 322 q 75 335 74 332 l 76 342 l 79 350 l 82 364 q 90 401 88 390 l 76 401 q -4 399 39 401 l -11 399 l 6 425 l 22 435 q 42 453 31 451 q 56 456 51 456 q 79 457 64 456 q 94 458 85 457 l 96 467 l 101 499 l 92 489 l 101 515 q 108 550 103 525 l 113 565 q 125 608 115 579 l 128 614 q 146 663 132 629 q 251 813 172 731 q 279 832 269 826 q 331 853 303 846 q 360 857 346 857 q 378 856 369 857 q 400 847 389 853 q 411 840 408 843 l 415 836 l 418 833 q 424 825 421 828 q 432 814 428 819 q 443 789 438 806 q 447 776 444 785 q 451 761 450 765 m 213 51 q 210 50 211 51 q 214 49 213 50 q 218 51 217 50 q 222 54 219 51 q 228 61 224 58 q 213 51 218 54 z "},"":{"ha":453,"x_min":-71,"x_max":482,"o":"m 475 843 q 468 778 481 833 q 450 713 456 722 l 449 710 l 447 710 q 428 651 435 671 q 354 494 410 603 q 244 301 299 385 q 254 301 253 301 l 258 296 l 260 300 q 267 303 263 303 q 290 299 288 301 l 315 300 l 322 294 l 322 300 l 326 300 q 339 297 335 300 q 347 282 347 292 q 343 274 347 276 q 340 263 343 267 q 336 254 338 256 l 335 247 q 296 239 325 239 q 283 240 286 239 l 278 242 q 268 240 272 240 q 224 240 260 240 q 200 240 203 240 q 181 214 192 228 l 178 211 q 186 211 181 211 q 199 210 197 210 l 203 208 q 211 211 208 211 q 233 208 232 210 l 260 208 l 267 204 l 267 208 q 269 208 268 208 q 283 206 279 208 q 292 190 292 200 q 288 182 290 185 q 285 171 288 175 q 281 163 282 165 l 279 157 q 240 149 269 149 q 228 149 231 149 l 221 150 q 213 149 217 149 q 167 149 204 149 q 144 149 147 149 q 131 150 139 149 q 49 56 82 83 l 46 53 l 43 56 l 15 26 l 13 29 q -17 7 -8 11 l -21 4 l -24 10 q -32 4 -29 6 l -36 3 l -37 7 l -46 3 l -49 8 l -50 7 l -49 6 l -54 3 l -60 1 l -64 0 l -67 3 l -67 4 l -71 4 l -69 8 l -69 13 l -67 17 q -61 21 -65 18 l -61 26 q 14 114 -32 56 l 17 117 l 19 122 q 43 153 39 147 l 13 154 q -29 158 -25 157 l -32 160 l -32 161 q -41 163 -33 161 q -54 165 -49 164 l -61 167 l -54 169 l -56 171 l -60 189 q -64 188 -62 188 q -67 190 -65 188 l -71 200 l -56 204 q -6 210 -47 207 q 6 210 3 210 l 7 206 l 11 208 q 13 209 11 208 q 15 210 15 210 q 22 211 17 211 l 24 211 l 28 210 q 38 211 36 211 l 42 210 q 79 213 53 213 l 85 211 q 88 211 85 211 q 104 233 97 226 l 110 243 l 69 246 q 26 250 32 247 l 24 250 l 24 253 q 15 254 22 253 q 1 257 7 256 l -6 257 l 1 261 q 0 261 0 261 l -4 279 q -7 279 -6 279 q -11 282 -10 279 l -15 290 l 0 296 q 51 300 10 299 l 61 301 l 67 300 q 69 300 67 300 q 71 300 71 300 q 78 301 74 301 l 79 301 l 83 301 q 93 303 92 303 l 99 301 q 135 304 108 304 l 140 303 l 147 303 q 228 428 176 347 q 165 365 196 390 q 133 338 146 347 q 81 314 115 324 l 74 313 q 31 338 46 313 q 19 404 15 364 l 19 408 l 24 410 l 24 415 q 33 494 24 463 l 40 515 q 56 549 47 543 q 56 553 56 550 q 58 558 57 556 l 57 560 l 60 563 q 68 579 65 575 q 74 589 65 582 q 78 601 78 600 l 93 625 l 93 622 l 99 631 q 101 635 100 633 q 107 646 104 643 q 140 672 128 672 l 147 668 l 149 668 l 149 665 q 164 649 157 663 l 165 650 l 169 649 l 172 642 q 165 618 174 635 q 151 596 156 601 l 150 594 q 128 546 143 579 l 119 528 q 103 476 111 511 q 92 433 96 447 q 90 392 83 401 q 92 382 92 388 q 96 386 93 383 q 110 397 104 394 q 163 458 108 400 l 167 461 q 208 509 183 481 q 289 622 233 538 q 379 786 344 706 q 388 807 382 793 q 419 854 404 851 q 433 861 426 861 q 442 857 439 861 q 461 850 453 857 q 468 844 467 846 l 475 843 z "},"":{"ha":376,"x_min":-114,"x_max":408,"o":"m 396 858 q 393 775 407 819 q 382 750 388 758 q 360 736 372 736 q 350 738 354 736 q 338 768 336 746 q 336 785 335 772 l 338 796 q 335 829 339 821 q 310 840 331 840 q 289 838 296 840 q 244 815 264 831 q 215 788 225 801 q 200 747 203 768 q 211 664 193 711 q 228 626 218 646 l 229 622 q 238 604 231 619 q 265 547 254 569 q 285 489 279 515 q 290 447 289 471 l 290 443 q 282 392 290 415 q 225 304 268 344 q 132 249 176 258 q 118 247 128 249 q 125 232 119 243 q 153 174 143 194 q 172 117 167 142 q 178 75 176 99 l 178 69 q 169 18 178 42 q 113 -68 156 -28 q 19 -124 64 -115 q -3 -126 8 -126 q -61 -107 -36 -126 q -111 -14 -103 -72 q -108 38 -114 14 l -107 43 l -103 44 q -92 76 -99 61 l -89 82 l -69 79 l -71 74 q -74 56 -71 69 l -74 51 l -69 51 l -69 46 q -51 -31 -69 -1 q -19 -62 -37 -54 q 6 -68 -8 -68 q 24 -65 14 -68 l 39 -58 l 47 -53 q 94 -10 72 -37 q 118 43 115 17 q 117 76 119 60 q 110 104 115 89 q 81 168 101 129 l 74 181 q 42 249 51 224 q 19 338 21 297 q 33 410 21 378 q 40 426 35 415 l 43 433 q 58 456 51 446 q 78 476 68 468 q 113 506 89 490 q 143 522 132 519 q 175 532 164 532 l 176 532 q 196 535 186 533 q 195 538 196 536 q 193 540 194 539 l 186 554 q 154 621 164 597 q 132 710 133 669 q 146 782 133 751 q 153 799 147 789 l 156 806 q 171 829 164 819 q 190 850 181 842 q 225 879 201 864 q 256 894 244 892 q 288 906 276 906 l 289 906 q 321 908 308 908 q 343 907 332 908 q 382 885 369 901 q 392 869 388 879 q 396 858 396 863 m 211 371 q 224 442 235 411 q 178 468 214 472 q 86 379 115 460 q 82 333 74 350 q 101 311 90 317 q 118 306 111 306 q 136 308 126 306 l 151 315 l 160 321 q 207 364 185 335 q 211 371 207 364 z "},"":{"ha":790,"x_min":-15,"x_max":765,"o":"m 736 700 q 742 685 739 694 q 753 649 746 676 q 762 592 760 621 q 760 519 764 563 q 740 433 756 475 q 685 308 717 363 q 619 218 654 254 q 563 165 583 182 q 511 128 542 147 q 265 53 399 53 q 165 65 213 53 q 156 69 160 68 l 146 71 l 144 75 l 142 74 q 135 76 136 76 l 133 79 l 131 78 l 125 79 l 122 81 q 104 90 110 86 l 97 96 q 94 97 97 96 q 89 101 92 100 l 81 107 q 71 115 78 108 l 63 122 l 42 144 q -1 232 13 185 q -11 336 -14 275 l -10 351 q -7 374 -8 368 l -4 386 q -1 396 -3 393 q 1 408 -1 397 q 3 414 3 414 l 3 419 l 6 425 l 10 431 l 8 433 q 11 443 10 436 q 15 453 13 447 l 25 476 q 26 483 25 479 q 29 488 28 486 l 29 489 l 32 493 l 35 496 l 33 497 l 39 508 l 44 519 q 61 550 49 531 l 69 564 l 79 579 q 99 607 92 599 q 168 685 133 653 q 194 708 176 693 l 199 713 l 199 714 l 211 725 q 269 765 247 753 q 378 817 328 800 q 424 829 393 822 l 432 832 l 457 836 q 469 839 467 838 l 478 839 l 483 840 l 488 842 l 490 842 l 496 839 l 503 840 l 526 839 q 549 836 542 839 l 560 835 q 585 829 576 832 q 649 801 624 819 q 701 757 675 786 q 715 739 707 751 l 721 729 q 728 718 724 726 l 733 707 l 736 700 m 699 521 q 690 608 701 553 l 685 632 l 679 643 l 675 656 q 644 701 661 682 q 636 711 642 704 q 635 714 635 714 q 628 718 629 717 l 628 721 l 625 721 l 610 733 q 593 743 596 742 l 589 743 q 581 746 582 746 l 579 747 l 578 749 l 575 749 q 569 751 575 750 q 568 751 568 751 q 560 754 563 754 q 547 761 553 757 q 539 763 542 761 q 478 769 526 769 q 224 667 339 769 q 140 572 200 643 q 93 492 115 540 q 64 407 75 453 q 56 325 54 364 q 56 314 56 321 l 58 294 l 56 293 q 60 272 57 285 l 61 268 q 86 210 69 235 q 126 164 101 183 q 181 133 149 146 q 192 131 186 132 q 213 125 204 126 l 228 122 l 244 118 l 243 114 q 260 113 251 113 q 276 114 268 113 q 306 117 286 114 l 319 118 q 417 151 374 131 q 507 210 457 171 l 521 221 l 526 222 l 531 224 q 546 239 535 229 l 547 240 l 558 238 l 560 239 q 574 252 567 244 q 603 288 582 260 q 642 345 625 315 q 676 423 660 375 q 699 521 693 471 m 494 733 q 538 715 524 733 q 547 681 553 699 q 528 660 543 667 q 508 653 517 653 q 501 654 506 653 l 501 653 l 494 651 q 486 654 490 651 l 483 654 q 467 650 474 653 q 417 607 447 640 q 378 560 406 596 q 331 488 351 525 q 302 432 315 461 q 283 387 289 403 q 275 367 276 371 q 260 299 260 314 q 259 272 257 285 q 264 253 261 258 q 268 246 267 247 q 269 243 269 244 l 278 238 q 279 238 279 238 q 286 236 282 236 q 322 244 303 236 q 421 318 368 264 q 486 396 458 357 q 499 411 494 407 l 518 432 l 518 431 q 518 432 518 431 l 532 431 q 525 403 532 422 l 532 403 q 489 318 525 368 q 404 226 453 267 q 311 171 356 186 q 275 165 289 165 q 269 165 269 165 q 231 175 247 165 q 203 208 213 188 q 190 246 194 228 q 192 328 185 281 q 251 494 204 394 l 254 499 q 281 543 269 524 q 313 590 304 581 q 331 617 317 599 q 349 639 344 635 l 351 642 q 354 646 353 642 q 371 663 367 660 l 372 660 l 372 663 q 379 669 372 664 q 406 694 394 685 q 433 714 414 701 l 436 715 q 458 726 450 722 q 494 733 478 733 z "},"":{"ha":413,"x_min":-62,"x_max":326,"o":"m 103 107 l 103 90 l 97 93 l 97 90 l 94 92 l 96 88 l 88 88 l 90 82 l 78 82 l 78 71 l 65 85 q 61 89 65 86 l 57 89 q 36 117 54 90 l 32 124 l 31 124 l 28 128 l 25 132 q 13 150 15 146 l 10 156 q -58 282 -62 267 q -32 315 -57 296 q -21 324 -24 322 q -4 336 -7 335 q 0 343 -3 340 l 3 346 l 11 354 l 15 356 l 17 357 l 18 358 l 22 363 q 29 368 25 368 q 33 372 32 371 l 38 376 l 39 375 l 40 375 q 54 389 46 383 q 65 396 64 396 l 67 397 l 72 403 q 81 407 76 407 q 89 411 85 411 l 90 415 q 115 433 94 421 l 121 436 q 124 438 122 436 q 132 443 125 443 q 143 451 135 447 l 150 456 q 175 468 165 468 l 179 468 l 179 467 l 196 475 l 188 460 l 190 461 l 181 444 l 179 440 l 176 432 l 176 428 l 172 419 q 168 413 172 418 l 169 413 l 168 407 l 163 401 q 154 392 160 397 q 126 360 151 383 l 125 358 l 121 357 l 119 351 l 117 353 l 113 347 q 101 338 108 343 l 63 306 q 46 290 49 293 q 24 274 44 289 q 65 197 64 200 q 71 183 69 196 q 72 182 72 183 q 74 179 74 181 q 83 163 75 179 q 93 142 86 158 q 101 118 100 126 l 101 117 l 99 113 q 103 107 101 113 m 325 467 l 315 451 l 319 454 l 310 438 l 308 432 l 306 425 l 306 421 l 301 411 q 297 406 301 410 l 299 404 l 297 399 l 292 393 q 285 383 290 390 q 254 351 281 375 l 250 349 l 249 344 l 246 346 l 242 340 q 231 329 238 335 l 192 299 q 175 283 178 285 q 153 265 172 281 q 194 190 193 193 q 200 176 200 188 q 203 172 201 175 q 213 154 204 172 q 222 135 215 151 q 231 110 229 118 l 231 108 l 228 104 l 229 104 q 232 99 231 104 l 232 82 l 226 85 l 226 82 l 224 83 l 225 79 l 217 81 l 219 75 l 207 75 l 207 63 l 194 78 q 190 82 193 79 l 186 81 q 165 108 183 83 l 161 117 l 160 115 l 157 119 l 154 124 q 142 143 144 139 l 139 149 q 71 275 68 258 q 97 307 72 289 q 108 315 106 314 q 125 329 122 326 q 129 335 126 332 l 132 339 l 140 346 l 144 347 l 146 349 l 147 351 l 151 354 q 158 360 154 360 q 163 364 161 363 l 167 369 l 168 367 l 169 368 q 183 381 175 375 q 194 389 192 388 l 196 390 l 201 396 q 210 399 206 399 q 218 403 214 403 l 218 404 l 219 408 q 244 425 224 413 l 250 429 l 250 428 q 253 429 250 429 q 261 435 254 435 q 272 444 264 439 l 279 449 q 304 460 294 460 l 308 460 l 308 458 l 325 467 z "},"":{"ha":0,"x_min":0,"x_max":0,"o":""},"":{"ha":511,"x_min":61,"x_max":449,"o":"m 449 700 l 447 700 l 449 700 l 444 693 l 444 685 q 438 640 444 660 q 399 562 422 596 q 360 515 375 528 q 322 486 346 501 q 207 447 272 451 l 201 447 q 151 453 172 447 q 147 454 149 454 l 140 456 l 140 457 l 138 457 l 136 458 l 135 458 l 131 460 q 121 465 124 464 l 118 468 l 113 471 q 108 475 111 472 q 103 479 104 478 l 100 481 l 90 493 q 68 536 75 513 q 64 589 63 558 l 64 596 q 65 608 64 604 l 67 614 l 68 619 q 69 625 68 619 l 71 632 l 74 636 l 74 638 l 75 643 q 76 647 75 644 l 85 667 l 86 668 l 86 669 l 90 681 q 100 696 93 686 l 103 703 l 108 710 q 118 725 114 719 q 153 764 136 747 q 160 770 154 765 q 169 779 165 775 l 175 783 q 204 803 193 797 q 258 829 232 821 q 281 836 265 832 l 285 836 l 297 839 q 304 840 301 840 l 308 840 l 332 840 q 343 839 340 840 l 349 839 q 361 836 357 838 q 393 821 381 831 q 419 799 407 814 l 436 774 l 443 754 l 444 747 q 447 735 446 739 l 447 729 q 449 715 449 719 l 449 700 m 349 544 q 367 564 357 551 q 395 611 378 576 q 417 683 413 646 q 413 726 418 699 l 410 738 l 404 749 q 390 771 397 761 q 386 776 389 772 l 385 778 l 382 781 l 381 781 l 372 788 l 368 789 l 363 792 l 360 794 l 356 794 l 349 797 q 342 801 344 799 l 336 803 q 335 803 336 803 q 331 803 333 803 q 325 804 328 804 q 317 805 322 804 q 308 806 313 806 q 183 754 239 806 q 142 707 171 742 q 118 668 129 692 q 104 625 110 649 q 100 586 99 606 q 100 581 100 583 l 101 569 l 100 568 q 101 561 100 565 q 115 529 107 542 q 135 507 122 517 q 161 492 146 497 l 167 490 q 176 488 172 489 l 196 483 l 194 482 q 200 482 197 482 q 208 482 204 482 q 224 483 213 482 l 229 485 q 278 501 256 490 q 322 529 297 510 l 329 535 l 335 536 q 340 544 335 539 l 343 546 l 349 544 m 325 781 q 333 772 329 779 q 335 742 342 761 q 306 692 328 719 q 244 646 281 663 q 238 643 242 644 q 240 638 240 638 q 249 618 244 626 q 257 603 253 608 q 268 585 264 589 q 278 574 271 581 q 289 561 283 565 l 297 554 l 301 550 l 306 544 l 311 539 l 303 536 l 297 535 q 293 533 293 533 q 265 546 279 533 q 256 554 260 550 q 246 567 249 561 q 236 579 244 567 q 225 596 228 592 q 213 624 219 604 l 207 608 l 192 563 q 181 538 185 543 l 169 524 l 167 518 l 167 518 l 167 519 l 165 535 q 165 538 165 535 l 164 540 q 172 579 164 549 q 185 618 178 604 q 199 665 192 638 q 217 717 203 676 q 218 724 218 721 q 213 721 213 721 l 207 717 l 203 719 l 201 725 q 204 731 201 728 l 206 735 q 260 774 222 756 q 289 785 276 782 q 304 786 297 786 q 311 786 308 786 q 319 783 314 786 q 325 781 324 782 m 304 735 q 310 751 310 746 q 306 757 311 756 q 299 758 304 758 q 283 756 290 758 q 249 742 269 753 q 238 735 244 739 q 244 729 243 733 l 244 728 q 238 694 247 724 q 229 669 236 692 q 247 678 238 672 q 281 706 264 686 q 304 735 297 721 z "},"":{"ha":396,"x_min":53,"x_max":333,"o":"m 332 674 l 332 665 l 332 658 l 332 653 l 329 633 l 324 635 q 319 625 322 629 q 314 610 315 613 q 294 581 306 593 q 272 553 286 567 q 263 543 268 550 l 251 535 l 244 531 l 231 522 l 215 514 q 200 507 203 508 l 189 504 l 183 504 l 179 506 l 178 511 l 169 510 q 160 515 164 513 l 160 514 l 150 510 l 150 513 l 149 511 l 146 511 q 110 519 128 513 q 71 560 83 532 q 71 647 54 597 q 82 674 75 660 l 88 682 l 94 693 q 103 703 97 699 q 107 708 104 704 q 164 760 132 740 q 224 783 193 778 l 225 783 l 229 782 l 233 783 l 242 781 l 251 781 l 258 779 l 264 779 q 290 769 279 776 q 310 753 301 763 q 311 751 310 751 l 317 750 l 321 743 q 328 725 326 732 q 333 689 333 710 q 332 674 333 683 m 260 660 l 263 665 l 261 665 l 260 667 l 256 672 l 253 683 l 250 686 q 249 697 247 689 l 244 697 l 243 699 l 244 703 q 238 704 244 703 q 229 704 233 704 l 224 704 q 213 701 218 703 l 204 699 l 200 701 q 189 692 199 699 q 178 682 182 686 q 169 671 175 678 l 164 667 l 169 667 l 156 651 l 144 644 l 142 638 q 143 615 138 624 l 147 607 l 146 601 l 144 599 q 190 583 169 583 q 218 596 207 583 l 229 606 l 242 622 l 246 624 l 246 626 l 247 638 l 250 640 l 257 647 l 256 650 l 257 654 l 260 660 z "},"":{"ha":167,"x_min":-69,"x_max":56,"o":"m 42 293 q 44 244 54 272 q 29 221 40 233 q 19 208 25 214 q 8 200 13 201 q -24 189 -1 189 l -24 194 l -28 190 q -46 194 -37 190 q -67 224 -62 203 q -60 263 -68 244 l -58 267 q -46 286 -54 275 q 8 310 -24 310 q 14 310 11 310 q 42 293 33 306 z "},"":{"ha":414,"x_min":-75,"x_max":306,"o":"m 76 171 q 64 157 72 163 q 54 149 56 150 l 53 147 l 46 142 q 38 138 42 138 q 31 133 35 133 l 29 128 q 6 110 25 122 l 0 106 l -1 106 q -3 106 -1 106 q -11 99 -4 99 q -22 89 -14 94 l -29 85 q -54 71 -44 72 l -60 69 l -58 72 l -75 63 l -65 79 l -69 76 l -61 93 l -60 99 l -57 106 l -57 111 l -54 119 q -50 126 -53 121 l -50 132 l -44 139 q -37 149 -42 142 q -10 182 -35 157 l -6 185 l -4 189 l -1 189 l 3 194 q 14 206 7 199 l 21 204 l 18 208 l 51 239 l 56 242 q 67 254 64 253 q 89 272 68 257 q 43 344 44 342 q 35 358 38 347 q 33 361 35 358 q 22 379 31 363 q 12 398 19 382 q 1 421 4 414 l 1 422 l 4 428 q 0 432 3 428 l -1 450 l 4 447 l 4 450 l 7 447 l 6 453 l 14 453 l 11 457 q 24 458 24 458 l 22 469 l 36 456 l 40 453 l 44 453 q 67 428 49 451 l 72 419 l 74 421 l 79 413 q 93 394 90 399 l 96 390 q 172 269 175 285 q 147 235 171 256 q 136 226 140 229 q 121 213 121 213 q 117 206 119 208 l 114 203 l 106 194 l 101 193 l 100 192 l 99 189 l 94 185 q 89 179 93 179 l 88 179 q 85 175 86 176 l 81 169 l 79 172 l 76 171 m 226 390 q 303 269 304 285 q 276 235 301 256 q 267 226 271 229 q 251 213 251 213 q 247 206 250 208 l 243 203 l 236 194 l 232 193 l 231 192 l 229 189 l 225 185 q 219 179 222 179 l 218 179 q 215 175 215 176 l 210 171 l 208 172 l 207 171 q 194 157 203 163 q 183 149 186 150 l 183 147 l 176 142 q 168 138 172 138 q 161 133 165 133 l 161 132 l 160 128 q 135 110 156 122 l 129 106 q 128 106 128 106 q 118 99 126 100 q 108 89 115 94 l 101 85 q 76 71 86 72 l 71 69 l 72 72 l 56 63 l 64 79 l 61 76 l 69 93 l 71 99 l 74 106 l 74 111 l 76 119 q 81 126 76 122 l 81 132 l 85 139 q 93 149 88 142 q 121 182 96 157 l 125 185 l 126 190 l 129 189 l 133 194 q 144 206 136 199 l 150 206 l 149 208 l 182 239 l 185 243 q 197 254 194 253 q 218 272 199 257 q 174 344 175 342 q 165 358 168 347 q 164 363 165 358 q 153 379 161 363 q 142 398 150 382 q 132 421 133 414 l 132 422 l 135 428 q 131 433 131 432 l 129 450 l 135 447 l 135 450 l 138 447 l 136 453 l 143 453 l 142 457 q 154 458 154 458 l 153 469 l 167 456 l 171 453 l 175 453 q 197 428 178 451 l 203 419 l 204 421 l 208 413 q 224 394 221 399 l 226 390 z "},"":{"ha":353,"x_min":-149,"x_max":292,"o":"m 194 107 l 224 89 q 233 53 242 76 q 217 13 226 32 q 188 -32 206 -10 q 158 -61 169 -54 q 106 -97 114 -94 q 62 -116 94 -106 q -3 -126 29 -126 l -8 -126 q -104 -89 -64 -126 q -136 -43 -126 -71 q -146 0 -144 -24 q -144 39 -149 11 q -126 103 -139 72 l -119 118 q -110 136 -114 129 q -89 163 -101 149 q -67 188 -78 175 l -56 200 q -12 242 -26 231 l 21 274 q 81 336 60 308 q 106 374 93 351 l 113 385 l 115 383 q 129 411 128 406 l 131 415 l 136 415 q 140 423 138 418 q 143 431 142 428 l 144 435 q 150 447 149 446 l 169 478 l 168 460 l 169 460 l 174 468 l 179 467 q 188 486 186 483 l 190 490 l 204 486 l 203 482 q 189 400 196 424 q 163 338 182 376 l 164 338 l 160 328 l 154 318 q 111 260 133 286 q 107 253 111 258 q 97 242 103 247 q 88 236 92 236 q 79 225 86 233 q 57 204 67 210 l 22 165 q -18 106 3 144 q -40 33 -39 68 q -14 -24 -42 -3 q 15 -32 -3 -32 q 78 -17 40 -32 l 82 -15 q 97 -7 94 -7 l 103 -4 q 119 11 113 4 q 140 40 132 25 q 151 61 146 47 q 167 88 160 79 q 194 107 181 107 m 289 642 q 282 603 292 621 l 281 599 q 269 583 278 593 q 257 571 260 572 l 254 567 q 218 551 233 551 l 215 553 q 182 572 192 556 q 178 621 169 590 q 193 646 182 632 q 204 657 197 651 q 215 665 211 664 q 247 676 224 676 q 268 672 260 676 q 289 642 285 663 z "},"":{"ha":846,"x_min":-56,"x_max":871,"o":"m 708 985 q 701 1007 707 989 q 686 1036 694 1018 q 664 1092 678 1054 q 653 1149 650 1131 q 657 1158 654 1151 l 664 1174 l 665 1178 q 683 1199 674 1192 q 701 1208 692 1207 l 706 1210 q 749 1119 732 1203 l 750 1114 l 751 1107 l 751 1103 l 746 1089 l 746 1086 q 751 1061 751 1064 l 751 1060 l 750 1056 l 747 1044 l 746 1036 l 738 1043 l 736 1043 q 735 1043 735 1043 l 735 1040 l 735 1042 q 736 1036 736 1042 q 735 1028 739 1033 q 735 1011 738 1015 l 731 1008 l 724 1008 l 725 1007 q 722 994 725 999 q 722 990 724 993 l 722 988 l 719 983 l 713 981 l 708 982 l 708 985 m 828 524 q 860 512 850 524 q 860 489 869 500 q 828 479 851 478 q 799 480 822 479 q 774 481 775 481 q 747 482 774 481 q 693 482 721 483 l 690 469 q 606 208 619 243 q 563 104 585 153 q 529 45 546 71 q 508 22 513 19 q 496 14 504 24 q 483 6 488 4 q 481 12 481 7 q 479 19 482 17 q 465 8 478 21 q 449 3 453 -1 q 451 8 449 4 q 458 21 453 11 q 469 39 464 31 q 511 129 488 75 q 564 275 540 203 q 579 319 568 288 q 601 387 590 350 q 625 482 611 424 q 611 482 617 482 q 567 479 610 482 q 506 479 565 479 q 481 476 500 478 q 453 475 463 475 q 376 468 408 475 q 311 461 368 468 l 247 368 q 143 203 210 325 q 86 103 90 113 l 72 74 q 38 26 56 42 q 6 13 19 10 q -6 25 -3 14 q -6 56 -10 36 q 11 103 -1 76 q 43 162 18 117 q 72 214 68 207 q 101 259 88 238 q 144 328 114 281 q 211 435 174 375 q 213 438 211 436 q 215 442 214 440 q 198 438 207 439 q 183 435 189 436 l 178 433 q 121 422 165 433 q 64 406 76 410 q 52 402 63 406 q 31 395 42 399 q 6 388 19 392 q -14 384 -7 385 q -22 385 -21 383 q -29 386 -24 386 q -36 388 -35 386 q -36 392 -37 390 q -35 397 -35 394 q -44 397 -36 397 q -53 399 -51 396 q 7 428 -54 403 q 72 450 67 450 q 108 460 76 451 q 182 481 139 468 q 232 489 186 482 q 236 491 233 490 q 244 492 239 492 q 253 494 250 493 q 279 529 272 519 q 292 547 282 532 q 318 585 303 563 q 340 615 333 607 q 431 725 365 651 q 453 752 436 732 q 485 790 469 772 q 513 819 500 808 q 664 939 621 929 q 708 941 686 949 q 739 914 729 933 q 746 893 742 908 q 749 879 749 885 q 751 856 751 860 q 746 772 751 824 q 735 697 743 753 q 722 604 728 642 q 704 525 718 578 q 738 525 717 525 q 764 525 758 525 q 788 524 764 525 q 814 524 813 522 l 828 524 m 675 733 q 686 864 688 842 l 683 878 l 682 878 l 681 876 l 681 876 l 675 874 q 668 869 672 872 q 659 864 664 867 q 653 860 654 861 q 590 806 629 846 q 529 742 554 771 q 476 681 510 719 q 427 622 443 642 q 388 572 411 603 q 342 508 364 540 q 363 511 343 508 q 393 514 383 514 q 469 519 397 514 q 543 522 499 522 q 617 525 588 522 q 635 526 622 526 q 647 576 638 539 q 661 631 657 613 q 675 733 668 656 z "},"":{"ha":829,"x_min":-56,"x_max":871,"o":"m 740 1042 l 732 1036 l 735 1053 l 735 1061 q 747 1083 736 1064 l 751 1089 l 750 1100 l 750 1106 l 756 1114 l 758 1119 q 829 1208 806 1203 q 835 1210 832 1210 q 838 1208 836 1210 q 853 1199 846 1207 q 863 1178 860 1192 l 864 1174 l 864 1163 q 864 1149 864 1149 q 837 1096 861 1131 q 790 1035 813 1061 l 767 1008 q 753 985 754 989 l 751 983 l 747 981 l 746 981 l 743 981 l 742 982 l 740 983 l 739 986 q 742 997 739 992 q 742 1004 740 999 l 742 1006 l 744 1008 l 738 1008 l 735 1011 q 738 1024 733 1015 q 743 1038 739 1032 q 747 1043 743 1039 l 744 1043 l 743 1044 l 740 1042 m 828 524 q 860 512 850 524 q 861 489 869 500 q 828 479 853 478 q 799 480 822 479 q 774 481 775 481 q 747 482 774 481 q 693 482 721 483 l 690 469 q 606 208 621 246 q 563 104 585 153 q 529 45 546 71 q 508 22 513 19 q 496 14 504 24 q 483 6 488 4 q 481 12 481 7 q 479 19 482 17 q 465 8 478 21 q 449 3 453 -1 q 451 8 449 4 q 458 21 453 11 q 469 39 464 31 q 511 129 489 75 q 564 275 540 203 q 579 319 568 288 q 601 387 590 350 q 625 482 611 424 q 611 482 617 482 q 567 479 610 482 q 506 479 565 479 q 481 476 500 478 q 453 475 463 475 q 376 469 408 475 q 311 461 368 468 l 247 368 q 143 203 210 325 q 86 103 90 113 l 72 74 q 38 26 56 42 q 6 13 19 10 q -6 25 -3 14 q -6 56 -10 36 q 11 103 -1 76 q 43 162 18 117 q 72 214 68 207 q 101 259 88 238 q 144 328 114 281 q 211 435 174 375 q 213 438 211 436 q 215 442 214 440 q 198 438 207 439 q 183 435 189 436 l 178 433 q 121 422 165 433 q 64 406 76 410 q 52 402 63 406 q 31 395 42 399 q 6 388 19 392 q -14 384 -7 385 q -22 385 -21 383 q -29 386 -24 386 q -36 388 -35 386 q -36 392 -37 390 q -35 397 -35 394 q -44 397 -36 397 q -53 399 -51 396 q 7 428 -54 403 q 72 450 67 450 q 108 460 76 451 q 182 481 139 468 q 232 489 186 482 q 236 491 233 490 q 244 492 239 492 q 253 494 250 493 q 279 529 272 519 q 340 615 282 533 q 431 725 365 651 q 453 752 436 732 q 485 790 469 772 q 513 819 500 808 q 664 939 621 929 q 708 941 686 949 q 739 914 729 933 q 746 893 742 908 q 749 879 749 885 q 751 856 751 860 q 746 772 751 824 q 735 697 743 753 q 722 604 728 642 q 704 525 718 578 q 738 525 717 525 q 764 525 758 525 q 789 524 764 525 q 814 524 814 522 q 822 524 818 524 q 826 524 825 524 l 828 524 m 676 733 q 686 864 688 842 l 683 878 l 682 878 l 681 876 l 681 876 l 675 874 q 668 869 672 872 q 659 864 664 867 q 653 860 654 861 q 590 806 629 846 q 529 742 554 771 q 476 681 510 719 q 427 622 443 642 q 388 572 411 603 q 342 508 364 540 q 363 511 343 508 q 393 514 383 514 q 471 519 397 514 q 543 522 499 522 q 617 525 588 522 q 635 526 622 526 q 647 576 638 539 q 661 631 657 613 q 676 733 668 656 z "},"":{"ha":846,"x_min":-56,"x_max":871,"o":"m 565 988 l 563 988 l 561 992 q 567 1011 558 1000 q 632 1077 582 1028 q 700 1135 682 1126 q 725 1140 713 1140 q 739 1139 731 1140 q 767 1121 756 1135 q 775 1111 768 1119 q 782 1100 775 1110 q 819 1046 815 1054 q 822 1036 821 1042 l 825 1029 q 826 1018 828 1024 q 819 1000 826 1011 q 797 986 811 989 q 785 985 792 985 q 743 1007 764 985 q 738 1016 743 1007 q 723 1039 732 1025 q 713 1056 714 1053 q 672 1017 700 1042 q 633 986 644 992 q 626 983 629 983 q 619 990 619 983 l 619 996 q 619 1004 621 1003 q 578 981 589 981 l 575 981 l 572 982 l 572 986 q 575 990 574 989 q 565 988 568 988 m 828 524 q 860 512 850 524 q 861 489 869 500 q 828 479 853 478 q 799 480 822 479 q 774 481 775 481 q 747 482 774 481 q 693 482 721 483 l 690 469 q 606 208 619 243 q 563 106 585 153 q 529 45 546 71 q 508 22 513 19 q 496 14 504 24 q 483 6 488 4 q 481 12 481 7 q 479 19 482 17 q 465 8 478 21 q 449 3 453 -1 q 451 8 449 4 q 458 21 453 11 q 469 39 464 31 q 511 129 488 75 q 564 275 540 204 q 579 319 568 288 q 601 387 590 350 q 625 482 611 424 q 611 482 617 482 q 567 479 610 482 q 506 479 565 479 q 481 476 500 478 q 453 475 463 475 q 376 469 408 475 q 311 461 368 468 l 247 368 q 143 203 210 325 q 86 103 90 113 l 72 74 q 38 26 56 42 q 6 13 19 10 q -6 25 -3 14 q -6 56 -10 36 q 11 103 -1 76 q 43 162 18 117 q 72 214 68 207 q 101 259 88 238 q 144 328 114 281 q 211 435 174 375 q 213 438 211 436 q 215 442 214 440 q 198 438 207 439 q 183 435 189 436 l 178 433 q 121 422 165 433 q 64 406 76 410 q 52 402 63 406 q 31 395 42 399 q 6 388 19 392 q -14 384 -7 385 q -22 385 -21 383 q -29 386 -24 386 q -36 388 -35 386 q -36 392 -37 390 q -35 397 -35 394 q -44 397 -36 397 q -53 399 -51 396 q 7 428 -54 403 q 72 450 67 450 q 108 460 76 451 q 182 481 139 468 q 232 489 186 482 q 236 491 233 490 q 244 492 239 492 q 253 494 250 493 q 279 529 272 519 q 292 547 282 532 q 318 585 303 563 q 340 615 333 607 q 431 725 365 651 q 453 752 436 732 q 485 790 469 772 q 513 819 500 808 q 664 939 621 929 q 708 941 686 949 q 739 914 729 933 q 746 893 742 908 q 749 879 749 885 q 751 856 751 860 q 746 772 751 824 q 735 697 743 753 q 722 604 728 642 q 704 525 718 578 q 738 525 717 525 q 764 525 758 525 q 789 524 764 525 q 814 524 814 522 l 828 524 m 675 733 q 686 864 688 842 l 683 878 l 682 878 l 681 876 l 681 876 l 675 874 q 668 869 672 872 q 659 864 664 867 q 653 860 654 861 q 590 806 629 846 q 529 742 554 771 q 476 681 510 719 q 427 622 443 642 q 388 572 411 603 q 342 508 364 540 q 363 511 343 508 q 393 514 383 514 q 469 519 397 514 q 543 522 499 522 q 617 525 588 522 q 635 526 622 526 q 647 576 638 539 q 661 631 657 613 q 675 733 668 656 z "},"":{"ha":846,"x_min":-56,"x_max":871,"o":"m 569 981 q 556 994 558 983 q 554 1015 553 1003 q 564 1038 557 1026 l 567 1039 l 567 1043 l 569 1046 q 639 1106 600 1090 l 647 1110 l 651 1110 q 664 1111 664 1111 q 732 1076 696 1108 l 739 1071 l 740 1069 l 740 1068 q 747 1065 744 1067 l 754 1064 l 763 1067 l 768 1067 l 771 1064 l 774 1065 q 790 1085 783 1072 l 793 1089 l 796 1090 l 801 1092 l 808 1089 l 814 1094 q 835 1107 828 1104 q 844 1114 838 1114 l 846 1114 l 850 1113 l 851 1111 l 851 1107 l 850 1103 q 847 1097 850 1101 q 843 1088 844 1092 l 840 1083 q 822 1051 832 1065 q 765 1003 794 1014 l 763 1004 l 761 1003 l 754 1000 q 740 1000 740 1000 q 710 1006 722 1000 q 696 1011 704 1007 l 683 1019 l 683 1024 l 685 1029 l 679 1026 l 656 1038 q 654 1038 656 1038 q 653 1038 653 1038 q 646 1038 649 1038 l 646 1036 l 642 1035 l 633 1029 l 629 1026 l 622 1021 q 617 1014 618 1017 l 613 1008 l 608 1006 l 606 1004 l 606 1001 l 601 997 l 599 993 q 589 986 593 986 l 588 986 l 585 986 l 585 985 l 576 982 l 571 981 l 569 981 m 828 524 q 860 512 850 524 q 861 489 869 500 q 828 479 853 478 q 799 480 822 479 q 774 481 775 481 q 747 482 774 481 q 693 482 721 483 l 690 469 q 606 208 619 243 q 563 104 585 153 q 529 45 546 71 q 508 22 513 19 q 496 14 504 24 q 483 6 488 4 q 481 12 481 7 q 479 19 482 17 q 465 8 478 21 q 449 3 453 -1 q 451 8 449 4 q 458 21 453 11 q 469 39 464 31 q 511 129 489 75 q 564 275 540 204 q 579 319 568 288 q 601 387 590 350 q 625 482 611 424 q 611 482 617 482 q 567 479 610 482 q 506 479 565 479 q 481 476 500 478 q 453 475 463 475 q 376 469 408 475 q 311 461 368 468 l 247 368 q 143 203 210 325 q 86 103 90 113 l 72 74 q 38 26 56 42 q 6 13 19 10 q -6 25 -3 14 q -6 56 -10 36 q 11 103 -1 76 q 43 162 18 117 q 72 214 68 207 q 101 259 88 238 q 144 328 114 281 q 211 435 174 375 q 213 438 211 436 q 215 442 214 440 q 198 438 207 439 q 183 435 189 436 l 178 433 q 121 422 165 433 q 64 406 76 410 q 52 402 63 406 q 31 395 42 399 q 6 388 19 392 q -14 384 -7 385 q -22 385 -21 383 q -29 386 -24 386 q -36 388 -35 386 q -36 392 -37 390 q -35 397 -35 394 q -44 397 -36 397 q -53 399 -51 396 q 7 428 -54 403 q 72 450 67 450 q 108 460 76 451 q 182 481 139 468 q 232 489 186 482 q 236 491 233 490 q 244 492 239 492 q 253 494 250 493 q 279 529 272 519 q 292 547 282 532 q 318 585 303 563 q 340 615 333 607 q 431 725 365 651 q 453 752 436 732 q 485 790 469 772 q 513 819 500 808 q 664 939 621 929 q 708 941 686 949 q 739 914 729 933 q 746 893 742 908 q 749 879 749 885 q 751 856 751 860 q 746 772 751 824 q 735 697 743 753 q 722 604 728 642 q 704 525 718 578 q 738 525 717 525 q 763 525 758 525 q 789 524 764 525 q 814 524 814 522 q 822 524 818 524 q 826 524 825 524 l 828 524 m 675 733 q 686 864 688 842 l 683 878 l 682 878 l 681 876 l 681 876 l 675 874 q 668 869 672 872 q 659 864 664 867 q 653 860 654 861 q 590 806 629 846 q 529 742 554 771 q 476 681 510 719 q 427 622 443 642 q 388 572 411 603 q 342 508 364 540 q 363 511 343 508 q 393 514 383 514 q 469 519 397 514 q 543 522 499 522 q 617 525 588 522 q 635 526 622 526 q 647 576 638 539 q 661 631 657 613 q 675 733 668 656 z "},"":{"ha":846,"x_min":-56,"x_max":871,"o":"m 604 989 q 579 1032 569 1003 l 583 1043 q 596 1078 583 1063 q 611 1086 603 1086 q 617 1085 614 1086 q 649 1101 629 1097 q 657 1104 651 1104 q 685 1079 668 1104 l 683 1072 l 688 1076 l 689 1075 l 689 1071 q 688 1049 688 1065 q 678 1026 688 1036 l 678 1025 l 674 1022 q 674 1022 674 1022 q 670 1018 671 1019 q 665 1013 669 1017 q 615 981 638 981 q 610 981 613 981 l 606 982 l 604 986 l 604 989 m 750 989 q 725 1032 715 1003 l 728 1043 q 742 1078 728 1063 q 757 1086 749 1086 q 763 1085 760 1086 q 794 1101 774 1097 q 803 1104 797 1104 q 831 1079 814 1104 l 829 1072 l 833 1076 l 835 1075 l 835 1071 q 833 1049 833 1065 q 824 1026 833 1036 l 824 1025 l 819 1022 q 818 1022 819 1022 q 815 1018 817 1019 q 811 1013 814 1017 q 761 981 783 981 q 754 981 758 981 l 751 982 l 750 986 l 750 989 m 828 524 q 860 512 850 524 q 860 489 869 500 q 828 479 851 478 q 799 480 822 479 q 774 481 775 481 q 747 482 774 481 q 693 482 721 483 l 690 469 q 606 208 619 243 q 563 104 585 153 q 529 45 546 71 q 508 22 513 19 q 496 14 504 24 q 483 6 488 4 q 481 12 481 7 q 479 19 482 17 q 465 8 478 21 q 449 3 453 -1 q 451 8 449 4 q 458 21 453 11 q 469 39 464 31 q 511 129 488 75 q 564 275 540 204 q 579 319 568 288 q 601 387 590 350 q 625 482 611 424 q 611 482 617 482 q 567 479 610 482 q 506 479 565 479 q 481 476 500 478 q 453 475 463 475 q 376 469 408 475 q 311 461 368 468 l 247 368 q 143 203 210 325 q 86 103 90 113 l 72 74 q 38 26 56 42 q 6 13 19 10 q -6 25 -3 14 q -6 56 -10 36 q 11 103 -1 76 q 43 162 18 117 q 72 214 68 207 q 101 259 88 238 q 144 328 114 281 q 211 435 174 375 q 213 438 211 436 q 215 442 214 440 q 198 438 207 439 q 183 435 189 436 l 178 433 q 121 422 165 433 q 64 406 76 410 q 52 402 63 406 q 31 395 42 399 q 6 388 19 392 q -14 384 -7 385 q -22 385 -21 383 q -29 386 -24 386 q -36 388 -35 386 q -36 392 -37 390 q -35 397 -35 394 q -44 397 -36 397 q -53 399 -51 396 q 7 428 -54 403 q 72 450 67 450 q 108 460 76 451 q 182 481 139 468 q 232 489 186 482 q 236 491 233 490 q 244 492 239 492 q 253 494 250 493 q 279 529 272 519 q 292 547 282 532 q 318 585 303 563 q 340 615 333 607 q 431 725 365 651 q 453 752 436 732 q 485 790 469 772 q 513 819 500 808 q 664 939 621 929 q 708 941 686 949 q 739 914 729 933 q 746 893 742 908 q 749 879 749 885 q 751 856 751 860 q 746 772 751 824 q 735 697 743 753 q 722 604 728 642 q 704 525 718 578 q 738 525 717 525 q 764 525 758 525 q 789 524 764 525 q 814 524 814 522 q 822 524 818 524 q 826 524 825 524 l 828 524 m 675 733 q 686 864 688 842 l 683 878 l 682 878 l 681 876 l 681 876 l 675 874 q 668 869 672 872 q 659 864 664 867 q 653 860 654 861 q 590 806 629 846 q 529 742 554 771 q 476 681 510 719 q 427 622 443 642 q 388 572 411 603 q 342 508 364 540 q 363 511 343 508 q 393 514 383 514 q 469 519 397 514 q 543 522 499 522 q 617 525 588 522 q 635 526 622 526 q 647 576 638 539 q 661 631 657 613 q 675 733 668 656 z "},"":{"ha":846,"x_min":-56,"x_max":871,"o":"m 679 990 q 650 1017 661 999 q 642 1074 635 1040 q 646 1090 643 1082 l 649 1096 l 651 1103 q 656 1110 653 1107 l 663 1113 l 658 1114 q 690 1146 669 1133 q 726 1161 703 1156 l 728 1161 l 731 1161 l 739 1160 l 744 1160 l 749 1158 l 753 1158 q 769 1153 761 1157 q 783 1142 778 1147 l 789 1139 l 792 1135 q 799 1124 797 1129 q 806 1101 804 1114 q 807 1090 807 1097 l 807 1086 l 808 1081 l 807 1068 q 804 1060 806 1064 q 801 1050 803 1053 q 793 1031 797 1039 q 781 1013 788 1022 q 775 1007 779 1011 l 768 1000 l 764 997 l 757 993 l 749 988 q 739 983 740 983 l 732 981 l 728 981 l 726 982 l 722 985 l 718 985 q 711 988 714 986 l 710 986 l 704 986 l 703 986 q 679 990 692 986 m 692 1065 l 692 1064 q 694 1054 690 1058 l 696 1050 l 696 1049 l 696 1046 q 718 1039 708 1039 q 728 1044 725 1039 l 733 1049 l 736 1056 l 742 1058 l 738 1061 l 738 1064 l 740 1065 l 739 1067 l 742 1071 l 739 1075 l 742 1076 l 739 1079 l 738 1083 q 733 1090 733 1086 q 729 1092 732 1090 q 729 1093 729 1093 l 726 1097 l 724 1093 q 718 1092 721 1093 l 713 1090 q 708 1088 713 1090 q 704 1083 706 1085 q 701 1079 704 1082 l 700 1076 l 699 1072 l 696 1068 l 692 1065 m 828 524 q 860 512 850 524 q 860 489 869 500 q 828 479 851 478 q 799 480 822 479 q 774 481 775 481 q 747 482 774 481 q 693 482 721 483 l 690 469 q 606 208 619 243 q 563 104 585 153 q 529 45 546 71 q 508 22 513 19 q 496 14 504 24 q 483 6 488 4 q 481 12 481 7 q 479 19 482 17 q 465 8 478 21 q 449 3 453 -1 q 451 8 449 4 q 458 21 453 11 q 469 39 464 31 q 511 129 488 75 q 564 275 540 204 q 579 319 568 288 q 601 387 590 350 q 625 482 611 424 q 611 482 617 482 q 567 479 610 482 q 506 479 565 479 q 481 476 500 478 q 453 475 463 475 q 376 469 408 475 q 311 461 368 468 l 247 368 q 143 203 210 325 q 86 103 90 113 l 72 74 q 38 26 56 42 q 6 13 19 10 q -6 25 -3 14 q -6 56 -10 36 q 11 103 -1 76 q 43 162 18 117 q 72 214 68 207 q 101 259 88 238 q 144 328 114 281 q 211 435 174 375 q 213 438 211 436 q 215 442 214 440 q 198 438 207 439 q 183 435 189 436 l 178 433 q 121 422 165 433 q 64 406 76 410 q 52 402 63 406 q 31 395 42 399 q 6 388 19 392 q -14 384 -7 385 q -22 385 -21 383 q -29 386 -24 386 q -36 388 -35 386 q -36 392 -37 390 q -35 397 -35 394 q -44 397 -36 397 q -53 399 -51 396 q 7 428 -54 403 q 72 450 67 450 q 108 460 76 451 q 182 481 139 468 q 232 489 186 482 q 236 491 233 490 q 244 492 239 492 q 253 494 250 493 q 279 529 272 519 q 292 547 282 532 q 318 585 303 563 q 340 615 333 607 q 431 725 365 651 q 453 752 436 732 q 485 790 469 772 q 513 819 500 808 q 664 939 621 929 q 708 941 686 949 q 739 914 729 933 q 746 893 742 908 q 749 879 749 885 q 751 856 751 860 q 746 772 751 824 q 735 697 743 753 q 722 604 728 642 q 704 525 718 578 q 738 525 717 525 q 764 525 758 525 q 788 524 764 525 q 814 524 813 522 q 822 524 818 524 q 826 524 825 524 l 828 524 m 675 733 q 686 864 688 842 l 683 878 l 682 878 l 681 876 l 681 876 l 675 874 q 668 869 672 872 q 659 864 664 867 q 653 860 654 861 q 590 806 629 846 q 529 742 554 771 q 476 681 510 719 q 427 622 443 642 q 388 572 411 603 q 342 508 364 540 q 363 511 343 508 q 393 514 383 514 q 469 519 397 514 q 543 522 499 522 q 617 525 588 522 q 635 526 622 526 q 647 576 638 539 q 661 631 657 613 q 675 733 668 656 z "},"":{"ha":1106,"x_min":-54,"x_max":1279,"o":"m 1254 956 q 1274 940 1271 953 q 1269 918 1278 928 q 1247 911 1261 908 q 1214 914 1222 915 q 1140 913 1167 915 q 1124 911 1136 911 q 1107 911 1113 911 q 1101 910 1107 911 q 1089 908 1096 910 q 1078 906 1082 907 q 1038 903 1074 906 q 1022 900 1035 903 q 1003 897 1008 897 q 951 890 988 897 q 906 883 939 888 q 899 840 911 865 q 888 819 897 836 q 872 788 879 801 q 864 771 864 774 q 848 742 858 761 q 825 697 838 724 q 793 626 813 669 q 785 608 790 618 q 772 583 779 597 q 760 563 764 569 q 749 535 758 558 q 782 542 749 536 q 797 547 785 543 q 814 551 808 550 q 860 563 839 554 q 897 573 868 565 q 944 590 926 581 q 956 595 947 592 q 971 600 965 599 l 978 603 q 1026 622 983 603 q 1034 626 1028 624 q 1045 631 1040 628 q 1053 635 1050 633 q 1060 639 1060 639 q 1082 639 1071 646 q 1094 621 1093 632 q 1082 600 1096 610 q 1065 592 1079 599 q 1051 585 1051 585 q 1031 577 1050 585 q 985 557 1011 569 q 954 549 983 557 q 928 538 944 543 q 892 528 919 533 q 876 522 888 526 q 858 517 865 518 q 813 506 843 515 q 770 496 797 501 q 725 483 743 490 q 710 453 719 474 q 696 424 700 433 q 682 390 692 415 q 668 353 672 364 q 648 303 663 344 q 632 253 633 263 q 613 156 615 178 q 633 83 608 100 q 644 78 636 82 q 661 72 646 76 q 670 71 664 71 q 679 71 676 71 q 688 71 688 71 q 761 86 708 65 q 832 122 794 100 q 888 158 864 143 q 938 188 935 190 q 947 189 940 185 q 957 190 954 193 q 960 185 960 189 q 963 179 960 182 q 973 185 963 178 q 988 189 983 193 q 981 174 989 186 q 956 144 972 163 q 921 113 939 126 q 836 54 869 69 q 782 31 818 44 q 740 15 761 21 q 667 3 697 3 q 624 13 649 3 q 600 26 611 19 q 581 46 596 29 q 561 78 575 50 q 556 90 558 83 q 527 40 542 61 q 510 22 513 19 q 497 14 506 24 q 485 6 489 4 q 483 12 482 7 q 481 19 483 17 q 467 8 479 21 q 450 3 454 -1 q 452 8 450 4 q 460 21 454 11 q 471 39 465 31 q 513 129 489 75 q 565 275 542 204 q 581 319 569 288 q 602 387 592 350 q 626 482 613 424 q 613 482 618 482 q 568 479 611 482 q 507 479 567 479 q 483 476 501 478 q 454 475 464 475 q 378 468 410 475 q 313 461 369 468 l 249 368 q 144 203 211 325 q 88 103 92 113 l 74 74 q 39 26 57 42 q 7 13 21 10 q -5 25 -1 14 q -4 56 -8 36 q 13 103 0 76 q 44 162 19 117 q 74 214 69 207 q 102 259 89 238 q 145 328 115 281 q 213 435 175 375 q 214 438 213 436 q 217 442 215 440 q 199 438 208 439 q 185 435 190 436 l 179 433 q 122 422 167 433 q 65 406 78 410 q 53 402 64 406 q 32 395 43 399 q 8 388 21 392 q -12 384 -6 385 q -21 385 -19 383 q -28 386 -22 386 q -35 388 -33 386 q -35 392 -36 390 q -33 397 -33 394 q -42 397 -35 397 q -51 399 -50 396 q 8 428 -53 403 q 74 450 68 450 q 109 460 78 451 q 183 481 140 468 q 233 489 188 482 q 238 490 235 490 q 246 492 240 490 q 254 494 251 493 q 281 529 274 519 q 294 547 283 532 q 319 585 304 563 q 342 615 335 607 q 432 725 367 651 q 454 752 438 732 q 486 790 471 772 q 514 819 501 808 q 665 939 622 929 q 709 941 688 949 q 740 914 731 933 q 747 893 743 908 q 755 894 747 893 q 780 899 763 894 q 818 910 797 903 q 851 915 821 910 q 882 924 875 921 q 922 929 886 924 q 938 932 925 929 q 958 936 951 935 q 1010 942 972 936 q 1058 948 1028 946 q 1108 954 1088 950 l 1149 957 q 1180 957 1156 956 q 1208 958 1204 958 q 1224 958 1211 958 q 1243 957 1238 957 q 1254 956 1254 956 m 676 733 q 681 767 678 744 q 685 801 683 790 q 688 833 686 811 q 688 864 689 854 l 685 878 l 683 878 l 682 876 l 682 876 l 676 874 q 669 869 674 872 q 660 864 665 867 q 654 860 656 861 q 592 806 631 846 q 531 742 556 771 q 478 681 511 719 q 428 622 444 642 q 389 572 413 603 q 343 508 365 540 q 365 511 344 508 q 394 514 385 514 q 471 519 399 514 q 544 522 500 522 q 618 525 589 522 q 636 526 624 526 q 649 576 639 539 q 663 631 658 613 q 676 733 669 656 m 829 851 q 838 867 835 863 q 828 865 833 867 q 821 864 824 864 l 818 864 q 753 850 803 864 q 747 772 753 818 q 729 649 732 661 l 743 674 q 760 706 749 683 q 783 755 771 728 q 797 786 796 782 q 812 814 797 786 q 829 851 826 842 z "},"":{"ha":643,"x_min":-58,"x_max":574,"o":"m 538 247 q 551 258 539 246 q 568 267 564 269 q 544 226 574 263 q 475 154 517 192 q 421 109 451 132 q 374 76 390 86 q 353 64 358 67 q 274 26 322 46 q 210 8 218 10 q 126 3 169 0 q 108 -33 111 -28 l 114 -36 l 119 -39 q 122 -40 119 -39 q 143 -64 138 -49 q 149 -107 150 -89 q 142 -131 146 -122 q 133 -150 139 -139 l 131 -154 l 129 -156 l 125 -158 q 111 -178 119 -168 q 94 -192 104 -185 q 78 -201 83 -199 q 68 -206 72 -204 l 64 -207 l 58 -206 l 50 -204 q 44 -206 47 -204 q 15 -206 43 -206 q 6 -204 7 -206 l 4 -203 l 1 -200 l 1 -194 l 4 -193 l 1 -194 l 1 -189 q -15 -181 -10 -185 q -20 -176 -19 -178 q -21 -174 -21 -175 l -19 -171 l -17 -168 q -21 -164 -19 -165 l -22 -162 l -22 -160 l -21 -154 l -19 -151 l -15 -149 q 4 -154 -1 -153 q 22 -157 14 -157 l 26 -157 q 61 -151 46 -158 l 64 -150 l 65 -150 l 68 -147 q 81 -135 76 -140 q 87 -116 86 -124 q 85 -103 88 -108 q 78 -95 83 -99 q 71 -90 74 -92 q 65 -89 68 -89 l 61 -87 l 53 -87 l 53 -86 l 51 -87 l 47 -85 l 43 -83 l 28 -79 l 28 -75 l 28 -71 l 71 13 q -7 71 19 32 q -32 113 -14 76 q -37 128 -33 115 q -44 146 -42 140 q -50 175 -46 151 q -40 315 -57 231 q -10 432 -22 400 q 24 508 21 504 q 63 586 39 543 q 153 721 96 647 q 253 843 201 783 q 310 897 274 868 q 332 914 321 906 q 349 926 343 922 l 356 929 q 372 938 358 931 q 394 951 385 946 q 422 962 404 956 q 456 971 439 968 l 472 972 q 497 968 483 971 q 519 957 510 963 q 533 940 528 947 q 550 890 546 919 q 539 772 554 867 l 531 739 q 501 689 519 706 q 469 678 482 672 q 467 760 444 689 q 481 815 476 792 q 486 864 486 849 q 483 894 486 885 q 476 908 481 907 l 451 906 q 440 903 446 904 q 368 857 408 890 q 290 789 307 807 q 231 715 272 774 q 154 614 161 624 q 100 517 154 613 q 67 446 86 494 q 39 371 49 404 q 13 224 15 281 q 50 103 10 143 q 60 95 53 100 q 69 88 67 90 q 99 75 83 81 q 142 68 142 68 q 186 67 150 63 q 256 85 222 72 q 360 140 308 104 q 439 197 410 174 q 470 223 451 207 q 498 246 489 239 q 510 250 507 253 q 521 256 513 249 q 533 261 529 263 q 535 255 536 260 q 538 247 535 250 z "},"":{"ha":582,"x_min":15,"x_max":754,"o":"m 474 958 l 474 961 q 467 975 474 961 q 451 1009 460 989 q 435 1051 443 1029 q 422 1093 426 1072 q 418 1125 417 1114 q 422 1135 419 1128 l 429 1150 l 431 1154 q 449 1175 439 1167 q 467 1185 458 1183 l 471 1186 q 492 1158 481 1183 q 510 1107 504 1132 l 517 1083 l 517 1079 l 511 1065 l 511 1063 q 517 1038 517 1040 l 517 1036 l 513 1021 l 511 1011 l 503 1019 l 501 1019 q 500 1019 501 1019 l 500 1017 q 501 1013 501 1017 q 500 1003 504 1010 q 500 988 503 990 l 500 986 l 496 983 l 489 985 l 490 983 q 488 971 490 975 q 489 967 489 969 l 488 963 l 482 958 l 474 958 m 729 956 q 749 940 746 953 q 744 918 753 928 q 722 911 736 908 q 689 914 696 915 q 615 911 642 915 q 599 911 611 911 q 582 911 586 911 q 576 910 582 911 q 564 908 571 908 q 553 906 557 907 q 513 903 549 906 q 496 900 508 903 q 478 897 483 897 q 426 890 463 897 q 381 883 414 888 q 374 840 386 865 q 363 819 372 836 q 347 787 354 801 q 338 771 339 772 q 323 742 333 761 q 300 697 313 724 q 268 625 288 669 q 235 561 268 625 q 224 535 233 557 q 257 542 224 536 q 271 547 260 543 q 289 551 282 550 q 335 563 313 554 q 372 573 343 565 q 419 590 401 581 q 431 594 422 592 q 446 600 439 597 l 453 603 q 501 622 458 603 q 509 625 503 622 q 520 631 515 628 q 528 635 525 633 q 535 639 535 639 q 556 639 544 646 q 569 621 568 632 q 557 600 571 610 q 540 591 554 597 q 526 585 526 585 q 506 577 525 585 q 460 557 486 569 q 429 547 458 557 q 403 536 425 546 q 367 526 394 533 q 351 522 363 526 q 333 517 340 518 q 288 506 318 515 q 245 496 272 501 q 200 483 218 490 q 185 453 194 474 q 171 424 175 433 q 157 390 167 415 q 142 353 147 364 q 123 303 138 344 q 107 251 108 263 q 88 154 90 178 q 108 83 83 100 q 119 78 111 81 q 136 72 121 76 q 145 71 139 71 q 154 69 151 71 q 163 71 163 71 q 236 86 183 65 q 307 122 269 100 q 363 158 339 143 q 413 188 410 190 q 422 189 415 185 q 432 190 429 193 q 435 185 435 189 q 438 179 435 182 q 448 185 438 178 q 463 189 458 193 q 456 174 464 186 q 431 144 447 163 q 396 113 414 126 q 311 54 346 71 q 257 31 293 44 q 215 15 236 21 q 142 3 172 3 q 99 13 124 3 q 75 26 86 19 q 56 46 72 29 q 36 78 50 50 q 24 124 24 108 q 33 219 19 154 q 53 299 50 293 q 93 404 67 342 q 121 468 104 436 q 90 463 100 465 q 61 459 81 461 q 33 461 42 457 q 30 465 33 464 q 25 468 26 465 q 26 472 25 469 q 26 476 28 474 q 22 478 26 476 q 15 483 17 479 q 19 485 15 483 q 31 490 24 488 q 46 494 38 492 q 63 498 54 496 q 78 501 71 500 q 90 504 85 503 q 96 506 94 506 q 112 508 96 506 q 143 515 128 511 q 181 597 167 560 l 218 674 q 235 706 224 683 q 258 755 246 728 q 272 786 271 782 q 287 813 272 786 q 304 851 301 840 q 313 867 307 856 q 303 865 308 865 q 296 864 299 864 l 293 864 q 256 857 285 864 q 217 847 226 850 q 209 844 215 846 q 195 841 203 843 q 178 837 188 839 q 165 835 169 835 q 158 836 160 835 q 153 839 157 839 q 149 842 150 839 q 148 845 147 843 q 149 850 149 847 q 142 850 147 850 q 135 854 136 850 q 175 874 133 858 q 219 890 217 890 q 243 895 222 890 q 293 910 264 900 q 326 915 296 910 q 357 924 336 917 q 397 929 361 924 q 413 932 400 929 q 433 936 426 935 q 485 942 447 936 q 533 948 503 946 q 583 954 563 950 l 624 957 q 655 957 631 956 q 683 958 679 958 q 699 958 686 958 q 718 957 713 957 l 729 956 z "},"":{"ha":582,"x_min":15,"x_max":754,"o":"m 475 1017 l 468 1011 l 471 1029 l 471 1036 q 483 1058 472 1040 l 486 1065 l 486 1076 l 486 1082 l 490 1090 q 564 1185 544 1181 q 570 1185 568 1185 q 574 1185 572 1185 q 588 1175 582 1183 q 599 1154 594 1167 l 599 1150 l 600 1139 q 600 1133 600 1136 q 600 1128 600 1129 q 600 1125 600 1126 q 585 1093 597 1114 q 558 1051 574 1072 q 526 1009 542 1029 q 499 975 511 989 q 488 961 488 961 l 486 958 l 474 958 l 474 963 q 476 974 475 968 q 476 981 476 974 l 478 982 l 479 985 l 472 983 l 469 988 q 474 1000 468 990 q 478 1014 474 1008 q 482 1019 478 1015 l 481 1019 l 479 1021 l 475 1017 m 729 956 q 749 940 746 953 q 744 918 753 928 q 722 911 736 908 q 689 914 697 915 q 615 911 642 915 q 599 911 611 911 q 582 911 588 911 q 576 910 582 911 q 564 908 571 908 q 553 906 557 907 q 513 903 549 906 q 497 900 510 903 q 478 897 483 897 q 426 890 463 897 q 381 883 414 888 q 374 840 386 865 q 363 819 372 836 q 347 787 354 801 q 339 771 339 772 q 323 742 333 761 q 300 697 313 724 q 268 625 288 669 q 260 608 265 618 q 247 583 254 597 q 235 561 239 569 q 224 535 233 557 q 257 542 224 536 q 272 547 260 543 q 289 551 283 550 q 335 563 314 554 q 372 573 343 565 q 419 590 401 581 q 431 594 422 592 q 446 600 440 597 l 453 603 q 501 622 458 603 q 509 625 503 622 q 520 631 515 628 q 528 635 525 633 q 535 639 535 639 q 557 639 546 646 q 569 621 568 632 q 557 600 571 610 q 540 591 554 597 q 526 585 526 585 q 506 577 525 585 q 460 557 486 569 q 429 547 458 557 q 403 536 419 543 q 367 526 394 533 q 351 522 363 526 q 333 517 340 518 q 288 506 318 515 q 245 496 272 501 q 200 483 218 490 q 185 453 196 474 q 171 424 175 433 q 157 390 167 415 q 143 353 147 364 q 123 303 138 344 q 107 251 108 263 q 88 154 90 178 q 108 83 83 100 q 119 78 111 81 q 136 72 121 76 q 145 71 139 71 q 154 69 151 71 q 163 71 163 71 q 236 86 183 65 q 307 122 269 100 q 363 158 339 143 q 413 188 410 190 q 422 189 415 185 q 432 190 429 193 q 435 185 435 189 q 438 179 435 182 q 448 185 438 178 q 463 189 458 193 q 456 174 464 186 q 431 144 447 163 q 396 113 414 126 q 311 54 346 69 q 257 31 293 44 q 215 15 236 21 q 142 3 172 3 q 99 13 124 3 q 75 26 86 19 q 56 46 71 29 q 36 78 50 50 q 24 124 24 108 q 33 219 19 154 q 53 299 50 293 q 93 404 67 342 q 121 468 104 436 q 90 463 100 465 q 61 459 81 461 q 33 461 42 457 q 30 465 33 464 q 25 468 26 465 q 26 472 25 469 q 26 476 28 474 q 22 478 26 476 q 15 483 17 479 q 19 485 15 483 q 31 490 24 488 q 46 494 38 492 q 63 498 54 496 q 78 501 71 500 q 90 504 85 503 q 96 506 94 506 q 112 508 96 506 q 143 515 128 511 q 181 597 167 560 l 218 674 q 235 706 224 683 q 258 755 246 728 q 272 786 271 782 q 287 813 272 786 q 304 851 301 840 q 313 867 307 856 q 303 865 308 865 q 296 864 299 864 l 293 864 q 256 857 285 864 q 217 847 226 850 q 209 844 215 846 q 195 841 203 843 q 178 837 188 839 q 165 835 169 835 q 158 836 160 835 q 153 839 157 839 q 149 842 150 839 q 148 845 147 843 q 149 850 149 847 q 142 850 147 850 q 135 854 136 850 q 175 874 133 858 q 219 890 217 890 q 243 895 222 890 q 293 910 264 900 q 326 915 296 910 q 357 924 350 921 q 397 929 361 924 q 413 932 400 929 q 433 936 426 935 q 485 942 447 936 q 533 948 503 946 q 583 954 563 950 l 624 957 q 655 957 631 956 q 683 958 679 958 q 699 958 686 958 q 718 957 713 957 q 729 956 729 956 z "},"":{"ha":582,"x_min":15,"x_max":754,"o":"m 339 967 l 336 967 l 335 969 q 340 989 332 979 q 406 1056 356 1007 q 474 1113 456 1106 q 499 1119 488 1119 q 513 1117 504 1119 q 542 1100 529 1113 q 549 1089 543 1097 q 556 1078 549 1088 q 593 1024 589 1032 q 597 1014 594 1019 l 599 1008 q 600 996 601 1001 q 592 978 600 989 q 571 964 585 967 q 560 963 565 963 q 518 985 538 963 q 511 994 517 985 q 497 1017 506 1004 q 486 1033 489 1031 q 446 994 474 1019 q 408 964 418 969 q 400 961 404 961 q 393 968 394 961 l 394 974 q 394 982 394 981 q 353 958 363 958 l 350 960 l 346 960 l 347 964 q 349 969 347 967 q 339 967 343 967 m 729 956 q 749 940 746 953 q 744 918 753 928 q 722 911 736 908 q 689 914 696 915 q 615 911 642 915 q 599 911 611 911 q 582 911 588 911 q 576 910 582 911 q 564 908 571 908 q 553 906 557 907 q 513 903 549 906 q 497 900 510 903 q 478 897 483 897 q 426 890 463 897 q 381 883 414 888 q 374 840 386 865 q 363 819 372 836 q 347 787 354 801 q 338 771 339 772 q 323 742 333 761 q 300 697 313 724 q 268 625 288 669 q 260 608 265 618 q 247 583 254 597 q 235 561 239 569 q 224 535 233 557 q 257 542 224 536 q 271 547 260 543 q 289 551 282 550 q 335 563 313 554 q 372 573 343 565 q 419 590 401 581 q 431 594 422 592 q 446 600 439 597 l 453 603 q 501 622 458 603 q 509 625 503 622 q 520 631 515 628 q 528 635 525 633 q 535 639 535 639 q 557 639 546 646 q 569 621 568 632 q 557 600 571 610 q 540 591 554 597 q 526 585 526 585 q 506 577 525 585 q 460 557 486 569 q 429 547 458 557 q 403 536 425 546 q 367 526 394 533 q 351 522 363 526 q 333 517 340 518 q 288 506 318 515 q 245 496 272 501 q 200 483 218 490 q 185 453 194 474 q 171 424 175 433 q 157 390 167 415 q 142 353 147 364 q 123 303 138 344 q 107 251 108 263 q 88 154 90 178 q 108 83 83 100 q 119 78 111 81 q 136 72 121 76 q 145 71 139 71 q 154 69 151 71 q 163 71 163 71 q 236 86 183 65 q 307 122 269 100 q 363 158 339 143 q 413 188 410 190 q 422 189 415 185 q 432 190 429 193 q 435 185 435 189 q 438 179 435 182 q 448 185 438 178 q 463 189 458 193 q 456 174 464 186 q 431 144 447 163 q 396 113 414 126 q 311 54 346 71 q 257 31 293 44 q 215 15 236 21 q 142 3 172 3 q 99 13 124 3 q 75 26 86 19 q 56 46 72 29 q 36 78 50 50 q 24 124 24 108 q 33 219 19 154 q 53 299 50 293 q 93 404 67 342 q 121 468 104 436 q 90 463 100 465 q 61 459 81 461 q 33 461 42 457 q 30 465 33 464 q 25 468 26 465 q 26 472 25 469 q 26 476 28 474 q 22 478 26 476 q 15 483 17 479 q 19 485 15 483 q 31 490 24 488 q 46 494 38 492 q 63 498 54 496 q 78 501 71 500 q 90 504 85 503 q 96 506 94 506 q 112 508 96 506 q 143 515 128 511 q 181 597 167 560 l 218 674 q 235 706 224 683 q 258 755 246 728 q 272 786 271 782 q 287 813 272 786 q 304 851 301 840 q 313 867 307 856 q 303 865 308 865 q 296 864 299 864 l 293 864 q 256 857 285 864 q 217 847 226 850 q 209 844 215 846 q 195 841 203 843 q 178 837 188 839 q 165 835 169 835 q 158 836 160 835 q 153 839 157 839 q 149 842 150 839 q 148 845 147 843 q 149 850 149 847 q 142 850 147 850 q 135 854 136 850 q 175 874 133 858 q 219 890 217 890 q 243 895 222 890 q 293 910 264 900 q 326 915 296 910 q 357 924 350 921 q 397 929 361 924 q 413 932 400 929 q 433 936 426 935 q 485 942 447 936 q 533 948 503 946 q 583 954 563 950 l 624 957 q 655 957 631 956 q 683 958 679 958 q 699 958 686 958 q 718 957 713 957 l 729 956 z "},"":{"ha":582,"x_min":15,"x_max":754,"o":"m 350 967 q 324 1010 314 981 l 328 1021 q 340 1056 328 1040 q 357 1064 349 1064 q 363 1063 360 1064 q 394 1079 374 1075 q 401 1082 396 1082 q 431 1058 414 1082 l 429 1051 l 432 1054 l 433 1053 l 435 1050 q 433 1028 433 1043 q 424 1004 432 1015 l 422 1003 l 419 1001 q 418 1000 419 1001 q 415 997 417 999 l 410 990 q 361 958 382 958 q 354 960 357 958 l 350 960 l 349 964 l 350 967 m 494 967 q 469 1010 460 981 l 474 1021 q 486 1056 474 1040 q 501 1064 493 1064 q 507 1063 504 1064 q 539 1079 519 1075 q 547 1082 542 1082 q 575 1058 558 1082 l 575 1051 l 578 1054 l 579 1053 l 581 1050 q 578 1028 579 1043 q 569 1004 578 1015 l 568 1003 l 564 1001 q 564 1000 564 1001 q 561 997 563 999 q 554 990 558 994 q 506 958 528 958 q 500 960 503 958 l 496 960 l 494 964 l 494 967 m 729 956 q 749 940 746 953 q 744 918 753 928 q 722 911 736 908 q 689 914 697 915 q 615 911 642 915 q 599 911 611 911 q 582 911 588 911 q 576 910 582 911 q 564 908 571 908 q 553 906 557 907 q 513 903 549 906 q 497 900 510 903 q 478 897 483 897 q 426 890 463 897 q 382 883 414 888 q 374 840 386 865 q 363 819 372 836 q 347 787 354 801 q 339 771 339 772 q 323 742 333 761 q 300 697 313 724 q 268 625 288 669 q 260 608 265 618 q 247 583 254 597 q 235 561 239 569 q 224 535 233 557 q 257 542 224 536 q 272 547 260 543 q 289 551 283 550 q 335 563 314 554 q 372 573 343 565 q 419 590 401 581 q 431 594 422 592 q 446 600 440 597 l 453 603 q 501 622 458 603 q 528 635 528 635 q 535 639 535 639 q 557 639 546 646 q 569 621 568 632 q 557 600 571 610 q 540 591 554 597 q 526 585 526 585 q 506 577 525 585 q 460 557 486 569 q 429 547 460 557 q 403 536 419 543 q 367 526 394 533 q 351 522 363 526 q 335 517 340 518 q 288 506 318 515 q 245 496 272 501 q 200 483 218 490 q 185 453 196 474 q 171 424 175 433 q 157 390 167 415 q 143 353 147 364 q 123 303 138 344 q 107 251 108 263 q 89 154 90 178 q 108 83 83 100 q 119 78 111 81 q 136 72 122 76 q 145 71 139 71 q 154 69 151 71 q 163 71 163 71 q 236 86 183 65 q 307 122 269 100 q 363 158 339 143 q 413 188 410 190 q 422 189 415 185 q 432 190 429 193 q 435 185 435 189 q 438 179 435 182 q 448 185 438 178 q 463 189 458 192 q 456 174 465 186 q 431 144 447 163 q 396 113 414 126 q 311 54 346 69 q 257 31 293 44 q 215 15 236 21 q 142 3 172 3 q 99 13 124 3 q 75 26 86 19 q 56 46 71 29 q 36 78 50 50 q 24 124 24 108 q 33 219 19 154 q 53 299 50 293 q 93 404 67 342 q 121 468 104 436 q 90 463 100 465 q 61 459 81 461 q 33 461 42 457 q 30 465 33 464 q 25 468 26 465 q 26 472 25 469 q 26 476 28 474 q 22 478 26 476 q 15 483 17 479 q 19 485 15 483 q 31 490 24 488 q 46 494 38 492 q 63 498 54 496 q 78 501 71 500 q 90 504 85 503 q 96 506 94 506 q 112 508 96 506 q 143 515 128 511 q 181 597 167 560 l 218 674 q 235 706 224 683 q 258 755 246 728 q 272 786 271 782 q 287 813 272 786 q 304 851 301 840 q 313 867 307 856 q 303 865 308 865 q 296 864 299 864 l 293 864 q 256 857 285 864 q 217 847 226 850 q 209 844 215 846 q 195 841 203 843 q 178 837 188 839 q 165 835 169 835 q 158 836 160 835 q 153 839 157 839 q 149 842 150 839 q 148 845 147 843 q 149 850 149 847 q 142 850 147 850 q 135 854 136 850 q 175 874 133 858 q 219 890 217 890 q 243 895 222 890 q 293 910 264 900 q 326 915 296 910 q 357 924 350 921 q 397 929 361 924 q 413 932 400 929 q 433 936 426 935 q 485 942 447 936 q 533 948 503 946 q 583 954 563 950 l 624 957 q 655 957 631 956 q 683 958 679 958 q 699 958 686 958 q 718 957 713 957 l 729 956 z "}}}
